<svg xmlns="http://www.w3.org/2000/svg" width="19" height="19.031"><path id="_11" data-name="11" d="M1253.92 153.689h-1.53a.411.411 0 0 0-.4.323 7.555 7.555 0 0 1-1.11 2.686.391.391 0 0 0 .05.507l1.15 1.154a9.2 9.2 0 0 1-1.7 1.708l-1.16-1.154a.406.406 0 0 0-.51-.051 7.524 7.524 0 0 1-2.68 1.116.4.4 0 0 0-.32.395v1.533a9.424 9.424 0 0 1-2.42 0v-1.533a.4.4 0 0 0-.32-.395 7.524 7.524 0 0 1-2.68-1.116.407.407 0 0 0-.51.051l-1.16 1.154a9.2 9.2 0 0 1-1.7-1.708l1.15-1.154a.391.391 0 0 0 .05-.507 7.54 7.54 0 0 1-1.11-2.686.411.411 0 0 0-.4-.322h-1.53a9.168 9.168 0 0 1 0-2.417h1.53a.411.411 0 0 0 .4-.322 7.555 7.555 0 0 1 1.11-2.686.391.391 0 0 0-.05-.507l-1.15-1.154a9.2 9.2 0 0 1 1.7-1.708l1.16 1.154a.406.406 0 0 0 .51.05 7.542 7.542 0 0 1 2.68-1.116.4.4 0 0 0 .32-.394v-1.533a9.424 9.424 0 0 1 2.42 0v1.533a.4.4 0 0 0 .32.394 7.542 7.542 0 0 1 2.68 1.116.406.406 0 0 0 .51-.05l1.16-1.154a9.2 9.2 0 0 1 1.7 1.708l-1.15 1.154a.391.391 0 0 0-.05.507 7.555 7.555 0 0 1 1.11 2.686.411.411 0 0 0 .4.322h1.53a9.16 9.16 0 0 1 0 2.416zm-9.42-5.682a4.49 4.49 0 1 0 4.52 4.49 4.512 4.512 0 0 0-4.52-4.49zm0 7.2a2.71 2.71 0 1 1 2.7-2.71 2.707 2.707 0 0 1-2.7 2.71z" transform="translate(-1235 -142.969)" fill-rule="evenodd"/></svg>