<svg xmlns="http://www.w3.org/2000/svg" width="26" height="17"><path id="_13" data-name="13" d="M851.133 116l-3.126-1.92h-4l-3.13 1.92L833 103.861l6.164-3.789L842 104v-5h8v5l2.822-3.928 6.178 3.789zm-8.864-7.742l-2.667-2.193-.868.541 1.186 5.335.919-.566-.375-1.591 1.224-.756.581.5v-1.275zm5.516-2.688a15.618 15.618 0 0 0-1.791-1.738 15.549 15.549 0 0 0-1.8 1.738 1.521 1.521 0 0 0-.233.853 1.1 1.1 0 0 0 1.137 1.162.936.936 0 0 0 .759-.3l-.213.8h.686l-.219-.823a.931.931 0 0 0 .774.329 1.1 1.1 0 0 0 1.134-1.166 1.54 1.54 0 0 0-.234-.855zm4.6.494l-2.868 2.335v1.28l.782-.651 1.246.756-.371 1.591.917.566 1.183-5.335zm-.611 2.85l-.787-.483.927-.757c.057-.05.11-.091.169-.145-.02.077-.031.142-.05.224zm-11.789-1.161c-.019-.082-.03-.147-.05-.224.06.054.112.095.169.144l.927.758-.787.483z" transform="translate(-833 -99)" fill-rule="evenodd"/></svg>