<svg xmlns="http://www.w3.org/2000/svg" width="17" height="20"><path id="_14" data-name="14" d="M851.253 156.987a3.621 3.621 0 0 0-.583.047l-2.533-5.795a5.219 5.219 0 0 0 2.991-.979c.921-.953.976-3.5.979-3.79v-.462h-.446c-.278 0-2.741.06-3.662 1.014a.833.833 0 1 1-1.323 0c-.922-.954-3.385-1.01-3.663-1.014h-.446v.462c0 .287.058 2.837.979 3.79a5.123 5.123 0 0 0 2.923.973l-3.979 7.1a3.6 3.6 0 0 0-.753-.079 3.873 3.873 0 1 0 3.741 3.871 3.915 3.915 0 0 0-1.405-3.02l3.134-5.588 1.841 4.213a3.91 3.91 0 0 0-1.546 3.132 3.743 3.743 0 1 0 3.751-3.875z" transform="translate(-838 -146)" fill-rule="evenodd"/></svg>