<svg xmlns="http://www.w3.org/2000/svg" width="20" height="20"><path id="_15" data-name="15" d="M844.676 196.98l.315.31.315-.309a43.213 43.213 0 0 0 3.8-4.106 3.62 3.62 0 0 0 .549-2.007 2.741 2.741 0 0 0-2.8-2.86 2.426 2.426 0 0 0-1.852.755 2.4 2.4 0 0 0-1.848-.755 2.707 2.707 0 0 0-2.8 2.86 3.619 3.619 0 0 0 .552 2.007 43.676 43.676 0 0 0 3.769 4.105zm.648 2.04l-.315-.31-.315.309a43.213 43.213 0 0 0-3.8 4.106 3.62 3.62 0 0 0-.549 2.007 2.741 2.741 0 0 0 2.8 2.86 2.426 2.426 0 0 0 1.852-.755 2.4 2.4 0 0 0 1.848.755 2.707 2.707 0 0 0 2.8-2.86 3.619 3.619 0 0 0-.552-2.007 43.676 43.676 0 0 0-3.769-4.105zm8.913-1.02a2.4 2.4 0 0 0 .755-1.848 2.707 2.707 0 0 0-2.859-2.8 3.62 3.62 0 0 0-2.008.552 43.676 43.676 0 0 0-4.105 3.775l-.31.315.309.315a43.34 43.34 0 0 0 4.106 3.8 3.626 3.626 0 0 0 2.008.548 2.74 2.74 0 0 0 2.859-2.8 2.426 2.426 0 0 0-.755-1.857zm-10.257.329l.31-.315-.309-.315a43.213 43.213 0 0 0-4.106-3.8 3.617 3.617 0 0 0-2.007-.549 2.741 2.741 0 0 0-2.86 2.8 2.423 2.423 0 0 0 .756 1.852 2.392 2.392 0 0 0-.756 1.848 2.707 2.707 0 0 0 2.86 2.8 3.619 3.619 0 0 0 2.007-.552 43.55 43.55 0 0 0 4.105-3.774z" transform="translate(-835 -188)" fill-rule="evenodd"/></svg>