<svg xmlns="http://www.w3.org/2000/svg" width="20" height="20"><path id="_16" data-name="16" d="M845.188 234.2a9.988 9.988 0 1 0 9.988 9.988 10 10 0 0 0-9.988-9.988zm-.8.778h1.549v1.549h-1.549v-1.549zm7.779 9.21a6.976 6.976 0 1 1-6.976-6.975 6.984 6.984 0 0 1 6.973 6.975zm-12.941-7.06l1.1 1.1-1.1 1.1-1.095-1.1zm-1.725 7.835h-1.549v-1.55h1.548v1.55zm1.725 6.286l-1.095-1.1 1.095-1.095 1.1 1.095zm6.711 2.15h-1.549v-1.55h1.549v1.55zm5.219-2.15l-1.1-1.1 1.1-1.095 1.1 1.095zm0-11.93l-1.1-1.1 1.1-1.1 1.1 1.1zm1.668 5.644v-1.55h1.549v1.55h-1.549zm-13.317-.775a5.685 5.685 0 1 0 5.684-5.684 5.691 5.691 0 0 0-5.691 5.684zm6.915-2.529a1.561 1.561 0 0 1 1.613 1.654 2.247 2.247 0 0 1-.332 1.216 9.994 9.994 0 0 1-2.544 2.188 10.086 10.086 0 0 1-2.539-2.188 2.247 2.247 0 0 1-.332-1.216 1.559 1.559 0 0 1 1.611-1.654 1.436 1.436 0 0 0 2.52 0z" transform="translate(-835.188 -234.188)" fill-rule="evenodd"/></svg>