<svg xmlns="http://www.w3.org/2000/svg" width="16" height="20"><path id="_20" data-name="20" d="M465.3 421h-14.6a.693.693 0 0 1-.7-.69v-9.655a.692.692 0 0 1 .7-.689h1.391v-3.449h.018a5.908 5.908 0 0 1 11.79 0h.018v3.449h1.383a.692.692 0 0 1 .7.689v9.655a.693.693 0 0 1-.7.69zm-8.347-5.137v2.378h2.086v-2.378a1.745 1.745 0 0 0 .73-1.415 1.773 1.773 0 0 0-3.546 0 1.745 1.745 0 0 0 .734 1.415zm3.478-9a2.435 2.435 0 0 0-4.87 0v3.1h4.87v-3.1z" transform="translate(-450 -401)" fill-rule="evenodd"/></svg>