<svg xmlns="http://www.w3.org/2000/svg" width="13.032" height="10.657"><path id="_21" data-name="21" d="M463.434 466.121l2.387 2.4 1.069 1.075a.973.973 0 0 0 1.382 0l1.036-1.043a.987.987 0 0 0 0-1.391l-1.693-1.706-1.762-1.771a.973.973 0 0 0-1.382 0l-1.037 1.043a.989.989 0 0 0 0 1.393zm10.051-6.57l-5.87 5.907 1.693 1.706a.987.987 0 0 1 0 1.391l-1.036 1.043a.973.973 0 0 1-1.382 0l-1.069-1.075.062.068 1.037 1.043a.973.973 0 0 0 1.382 0l7.6-7.649a.986.986 0 0 0 0-1.39l-1.036-1.044a.973.973 0 0 0-1.381 0z" transform="translate(-463.156 -459.281)" fill-rule="evenodd"/></svg>