<svg xmlns="http://www.w3.org/2000/svg" width="5" height="9"><path id="_29" data-name="29" d="M588.27 287h1.441a.274.274 0 0 0 .256-.29c0-1.651 2.022-1.509 2.022-3.322a2.449 2.449 0 0 0-2.469-2.4 3.265 3.265 0 0 0-2.457 1.208.268.268 0 0 0 0 .357l.738.824c.3.3.533-.563 1.38-.563a.866.866 0 0 1 .908.811c0 .879-2.075 1.162-2.075 2.446v.642a.274.274 0 0 0 .256.287zm-.27 2.011a1.006 1.006 0 0 0 1 .99 1.018 1.018 0 0 0 1.019-.99 1.03 1.03 0 0 0-1.025-1.011 1.018 1.018 0 0 0-.994 1.011z" transform="translate(-587 -281)" fill-rule="evenodd"/></svg>