<svg xmlns="http://www.w3.org/2000/svg" width="19" height="20"><path id="_5" data-name="5" d="M2188.24 97h-1.18a2.6 2.6 0 0 0-.27-.073 5.38 5.38 0 0 1-4.48-4.807 5.25 5.25 0 0 1 3.57-5.369c.38-.129.78-.214 1.18-.322 0-1.1-.01-2.176 0-3.256a7.956 7.956 0 0 1 .65-3.192c.24-.557.55-1.085.83-1.624-3.12-.318-7.74 4.756-7.36 8.033.64.216 1.25.426 1.91.65a6.541 6.541 0 0 0-.05 9.3 3.584 3.584 0 0 1-.39.186c-.51.163-1.03.316-1.54.472h-1.19a2.427 2.427 0 0 0-.26-.073 5.34 5.34 0 0 1-4.49-5.234 5.243 5.243 0 0 1 4.45-5.161.407.407 0 0 0 .37-.436c.21-.95.43-1.9.67-2.839a7.629 7.629 0 0 1 .39-.907c-2.87 1.153-5.09.187-7.05-1.829a6.608 6.608 0 0 1 4.23-2.32 6.011 6.011 0 0 1 4.65 1.72 10.585 10.585 0 0 1 8.6-2.881c-.42.4-.79.721-1.13 1.066a7.153 7.153 0 0 0-1.88 3.336c-.41 1.656-.14 3.337-.24 5 .13.033.2.06.28.073a5.255 5.255 0 0 1 .58 10.28c-.28.081-.57.137-.85.207zm-9.53-5.331a1.808 1.808 0 0 1 1.6-1.727.284.284 0 0 0 .19-.189c.02-.318.01-.637.01-.951a2.845 2.845 0 0 0-2.93 2.867h1.13zm7.14 0a1.8 1.8 0 0 1 1.57-1.728.286.286 0 0 0 .21-.17c.03-.329.01-.661.01-.983a2.826 2.826 0 0 0-2.91 2.88h1.12z" transform="translate(-2174 -77)" fill-rule="evenodd"/></svg>