<svg xmlns="http://www.w3.org/2000/svg" width="15" height="13"><path id="_6" data-name="6" d="M2180.92 461a.959.959 0 0 0-.92 1v1a.959.959 0 0 0 .92 1h9.16a.959.959 0 0 0 .92-1v-1a.959.959 0 0 0-.92-1h-9.16zm-3.92 0a1 1 0 0 0-1 1v1a1 1 0 0 0 1 1h1a1 1 0 0 0 1-1v-1a1 1 0 0 0-1-1h-1zm3.92 5a.959.959 0 0 0-.92 1v1a.959.959 0 0 0 .92 1h9.16a.959.959 0 0 0 .92-1v-1a.959.959 0 0 0-.92-1h-9.16zm-3.92 0a1 1 0 0 0-1 1v1a1 1 0 0 0 1 1h1a1 1 0 0 0 1-1v-1a1 1 0 0 0-1-1h-1zm3.92 5a.959.959 0 0 0-.92 1v1a.959.959 0 0 0 .92 1h9.16a.959.959 0 0 0 .92-1v-1a.959.959 0 0 0-.92-1h-9.16zm-3.92 0a1 1 0 0 0-1 1v1a1 1 0 0 0 1 1h1a1 1 0 0 0 1-1v-1a1 1 0 0 0-1-1h-1z" transform="translate(-2176 -461)" fill-rule="evenodd"/></svg>