<svg xmlns="http://www.w3.org/2000/svg" width="20" height="20"><path id="_7" data-name="7" d="M2192.31 513.384a9.989 9.989 0 0 0-7.64-6.226 10.157 10.157 0 0 0-1.67-.15 10.01 10.01 0 0 0-9.31 6.375 10.007 10.007 0 0 0 1.52 9.869 10.151 10.151 0 0 0 7.79 3.74 10.157 10.157 0 0 0 1.67-.15 9.978 9.978 0 0 0 6.12-3.589 10.118 10.118 0 0 0 1.62-2.911 9.937 9.937 0 0 0-.1-6.958zm-1.18.676l-1.74 1.009a6.664 6.664 0 0 0-1.74-2.845l1.77-1.018a8.619 8.619 0 0 1 1.71 2.854zm-2.79 2.94a5.34 5.34 0 1 1-5.34-5.343 5.344 5.344 0 0 1 5.34 5.343zm-5.34-8.66a8.676 8.676 0 0 1 1.67.165v2.039a6.684 6.684 0 0 0-1.67-.219 6.545 6.545 0 0 0-1.66.219v-2.039a8.5 8.5 0 0 1 1.66-.165zm-6.42 2.866l1.77 1.018a6.66 6.66 0 0 0-1.74 2.844l-1.74-1.008a8.609 8.609 0 0 1 1.71-2.854zm-1.82 8.459l1.78-1.023a6.651 6.651 0 0 0 1.6 2.92l-1.76 1.014a8.746 8.746 0 0 1-1.62-2.911zm8.24 6a8.5 8.5 0 0 1-1.66-.165v-2.039a6.545 6.545 0 0 0 1.66.219 6.684 6.684 0 0 0 1.67-.219v2.039a8.676 8.676 0 0 1-1.67.16zm6.62-3.084l-1.76-1.014a6.645 6.645 0 0 0 1.6-2.92l1.78 1.023a8.746 8.746 0 0 1-1.62 2.906zm-6.88-3.674a3.392 3.392 0 0 1-1.13-.2.544.544 0 0 0-.43.031.536.536 0 0 0-.26.335v.017a.655.655 0 0 0 .44.79 4.712 4.712 0 0 0 1.12.187v.446a.49.49 0 0 0 .49.489.481.481 0 0 0 .48-.489v-.516a1.915 1.915 0 0 0 1.78-1.849c0-.9-.48-1.448-1.67-1.868-.84-.32-1.19-.529-1.19-.859 0-.28.21-.56.85-.56a3.149 3.149 0 0 1 .93.138.522.522 0 0 0 .66-.372l.01-.034a.6.6 0 0 0-.43-.726 4.233 4.233 0 0 0-.89-.125v-.375a.492.492 0 0 0-.44-.5.485.485 0 0 0-.53.488v.459a1.847 1.847 0 0 0-1.69 1.779c0 .969.73 1.468 1.8 1.828" transform="translate(-2173 -507)" fill-rule="evenodd"/></svg>