<svg xmlns="http://www.w3.org/2000/svg" width="13" height="15"><path id="_8" data-name="8" d="M2183.5 566a3.493 3.493 0 1 0-2.49-1.026 3.41 3.41 0 0 0 2.49 1.026zm6.47 4.515c-.02-.324-.07-.673-.13-1.048a9.252 9.252 0 0 0-.24-1.044 5.64 5.64 0 0 0-.4-.937 3.343 3.343 0 0 0-.58-.779 2.3 2.3 0 0 0-.78-.515 2.735 2.735 0 0 0-1.03-.192 1.05 1.05 0 0 0-.39.207c-.2.138-.43.291-.69.461a4.385 4.385 0 0 1-1 .462 3.758 3.758 0 0 1-2.46 0 4.191 4.191 0 0 1-1-.462c-.26-.17-.49-.323-.69-.461a1.05 1.05 0 0 0-.39-.207 2.7 2.7 0 0 0-1.03.192 2.451 2.451 0 0 0-.79.515 3.621 3.621 0 0 0-.57.779 5.64 5.64 0 0 0-.4.937 9.252 9.252 0 0 0-.24 1.044c-.06.375-.11.724-.13 1.048s-.03.656-.03 1a2.307 2.307 0 0 0 2.46 2.491h8.08a2.307 2.307 0 0 0 2.46-2.491q0-.515-.03-1z" transform="translate(-2177 -559)" fill-rule="evenodd"/></svg>