<svg xmlns="http://www.w3.org/2000/svg" width="52" height="18"><path id="american-express" d="M860.013 9719.29c-.007.07-.033.14-.045.21a2.731 2.731 0 0 1-1.276 2.09 3.714 3.714 0 0 1-1.982.41h-3.551v-.49a3.241 3.241 0 0 1-1.9.49h-11.231v-1.89c0-.25 0-.25-.247-.25h-.166v2.14H835.9v-2.22a4.979 4.979 0 0 1-1.9.25h-.413v1.07l-.082-.09v.91h-4.542l-1.036-1.19-1.194 1.19h-7.267v-8.06h6.772l-.248-.24h.91l1.074 1.23 1.156-1.23h4.955a3.149 3.149 0 0 1 1.9.49v-.49h4.459a3.206 3.206 0 0 1 1.817.49v-.49h6.772v.49a2.618 2.618 0 0 1 1.651-.49h3.8v.49a1.184 1.184 0 0 0 .33-.16l.122.12a3.3 3.3 0 0 1 1.2-.21h3.464v3.7a3.14 3.14 0 0 1 .413 1.56c0 .05-.015.1-.018.15zm-23.671-3.13a2.1 2.1 0 0 0-2.177-1.15h-4.377l-1.734 1.89-.042-.04-.04.04-1.735-1.89h-5.367v5.76h5.285l1.817-1.89.077.09v-.01l1.58 1.81h2.714v-2.14H834c1.239 0 2.395-.33 2.395-1.97a2.276 2.276 0 0 0-.053-.5zm6.164 3.46a1.836 1.836 0 0 0-.248-1.07 1.357 1.357 0 0 0-.743-.49 1.649 1.649 0 0 0 .991-1.57 1.447 1.447 0 0 0-.743-1.31 3.3 3.3 0 0 0-1.652-.25h-3.138v5.84h1.4v-2.14h1.486a1.1 1.1 0 0 1 .991.25 1.813 1.813 0 0 1 .248 1.15v.74h1.4v-1.15zm5.45-.09h-3.221v-1.15h3.139v-1.15h-3.139v-1.07h3.221v-1.23h-4.624v5.84h4.624v-1.24zm2.23-3.2a1.259 1.259 0 0 1 .578-.08h2.56v-1.4H850.6a1.715 1.715 0 0 0-1.982 1.73c0 1.8 1.569 1.72 2.89 1.8a.711.711 0 0 1 .5.17.61.61 0 0 1 .165.41.631.631 0 0 1-.165.41.715.715 0 0 1-.579.16h-2.642v1.24h2.642c1.4 0 2.148-.58 2.148-1.81a1.673 1.673 0 0 0-.413-1.23 2.105 2.105 0 0 0-1.569-.5h-.744a1.076 1.076 0 0 1-.5-.08.436.436 0 0 1-.33-.41.39.39 0 0 1 .165-.41zm8.783 2.18c-.027-.11-.062-.21-.1-.32a1.414 1.414 0 0 0-.181-.38.079.079 0 0 0-.083-.08 1.634 1.634 0 0 0-.612-.37l.116.12a2.455 2.455 0 0 0-1.156-.25h-.743a1.076 1.076 0 0 1-.5-.08.365.365 0 0 1-.331-.41.627.627 0 0 1 .166-.41 1.259 1.259 0 0 1 .578-.08h2.56v-1.4h-2.726a2.576 2.576 0 0 0-.4.03 1.692 1.692 0 0 0-1.577 1.7c0 1.8 1.57 1.72 2.891 1.8a.706.706 0 0 1 .5.17.605.605 0 0 1 .165.41.626.626 0 0 1-.165.41.712.712 0 0 1-.578.16h-2.643v1.24h2.642a2.408 2.408 0 0 0 1.734-.58 1.667 1.667 0 0 0 .5-1.23 2.655 2.655 0 0 0-.057-.45zm-18.2-1.03a1.659 1.659 0 0 1-.661.08h-1.652v-1.31h1.652a1.659 1.659 0 0 1 .661.08.453.453 0 0 1 .247.57.641.641 0 0 1-.244.58zm-6.607.16h-1.817v-1.48h1.735a.834.834 0 0 1 .908.74.715.715 0 0 1-.823.74zm-3.22-2.05v4.68l-2.148-2.38zm-8.837 4.03v-1.24h3.056v-1.15h-3.056v-1.07h3.469l1.486 1.73-1.569 1.73h-3.386zm30.555-7.57h-.16l-.743-1.23v1.23h-4.79l-.5-1.31h-1.156l-.5 1.31h-2.477a4.928 4.928 0 0 1-2.23-.49v.49h-5.946v-1.8c0-.25 0-.25-.165-.25h-.165v2.14h-11.472v-.99l-.413.99h-2.395l-.412-.99v.99h-4.79l-.5-1.32h-1.073l-.5 1.23h-.052l-.03.09h-4.212l.036-.09h-.036l1.9-4.19 1.651-3.86h3.634l.413.99v-.99h4.223l.908 2.06.909-2.06h13.295a2.378 2.378 0 0 1 1.569.49v-.49h3.717v.49a5.027 5.027 0 0 1 2.312-.49h5.285l.495.99v-.99h3.882l.5.99v-.99h3.716v8.05h-3.716zm-15.03-1.15h1.4v-5.75h-1.4v5.75zm-6.358 0h1.4v-2.05h1.486a1.646 1.646 0 0 1 .748.08.79.79 0 0 1 .243.17 1.931 1.931 0 0 1 .248 1.15v.65h1.239v-1.15a2.067 2.067 0 0 0-.248-1.07.831.831 0 0 0-.147-.18 1.38 1.38 0 0 0-.514-.23.438.438 0 0 0 .087-.05l-.087-.03a1.635 1.635 0 0 0 .986-1.53 1.384 1.384 0 0 0-.655-1.26 3.142 3.142 0 0 0-1.652-.25h-3.138v5.75zm-5.533.09h4.624v-1.24h-3.22v-1.15h3.138v-1.15h-3.138v-1.07h3.22v-1.23h-4.624v5.84zm-11.314-5.84h-2.064l-2.443 5.75h1.452l.578-1.23h2.808l.578 1.23h2.807v-4.52l1.982 4.52h1.157l.808-1.69 1.173-2.74v.1l.083-.19v4.52h1.321v-5.75h-2.229l-1.652 3.95-.306-.66-.006-.01-1.5-3.2h-1.651l-.082-.08h-.5v5.51zm40.713 5.75v-5.67h-1.4v4.03l-2.395-4.03h-2.065v3.37l.083.08v1.98l-.083-.2v.28l-2.312-5.51H844.9l-1.9 4.52h-.578a1.308 1.308 0 0 1-.991-.33 1.764 1.764 0 0 1-.413-1.39 1.94 1.94 0 0 1 .413-1.32 1.562 1.562 0 0 1 1.074-.33h1.321v-1.23h-1.321a2.623 2.623 0 0 0-2.065.66 3.362 3.362 0 0 0-.743 2.3 2.877 2.877 0 0 0 .743 2.22 2.912 2.912 0 0 0 1.982.66h1.569l.5-1.32h2.89l.5 1.23h2.719v-.82l.082.08v-3.61l2.643 4.35h1.817zm-9.167-4.76l.908 2.3h-1.9zm-32.619 0l.908 2.3h-1.816zm21.884.9a.653.653 0 0 1-.248.58 1.659 1.659 0 0 1-.661.08h-1.651v-1.32h1.651a1.488 1.488 0 0 1 .661.09.449.449 0 0 1 .251.57z" transform="translate(-808 -9704)" fill="#c5c2c8" fill-rule="evenodd"/></svg>