<svg xmlns="http://www.w3.org/2000/svg" width="49" height="17"><path id="bank-wire" d="M688 9766.91l-2.353.02-2.214-3.87-.031 3.87h-2.089v-7.82h2.087v3.52l2.276-3.52h2.152l-2.539 3.58zm-9.1 5.5l2.679 3.54h-2.6v.03l-2.388-3.49-.03 3.49h-2.343v-7.56a6.959 6.959 0 0 1 1.348-.35 12.422 12.422 0 0 1 1.683-.12 5.439 5.439 0 0 1 2.986.65 2.053 2.053 0 0 1 1 1.82 1.65 1.65 0 0 1-.658 1.32 3.031 3.031 0 0 1-1.677.67zm-.383-3.03a1.75 1.75 0 0 0-1.271-.36 2.2 2.2 0 0 0-.688.1v2.9a2.175 2.175 0 0 0 .5.05 2.013 2.013 0 0 0 1.362-.41 1.426 1.426 0 0 0 .459-1.14 1.523 1.523 0 0 0-.365-1.14zm-3.533-6.84a4.234 4.234 0 0 1-.294-.49c-.077-.16-.139-.27-.17-.33a2.9 2.9 0 0 1 .015.38v4.83h-1.764v-7.82h1.857l2.74 4.01c.14.21.248.37.31.49a2.076 2.076 0 0 1 .139.27 2.361 2.361 0 0 1-.015-.34v-4.43h1.78v7.82h-1.61zm-5.07 5.53h2.372v7.91h-2.372v-7.91zm-.75-2.81h-2.694l-.573 1.67h-1.888l2.926-7.82h2.059l2.894 7.82H669.7zm-1.084-3.59c-.077-.26-.124-.45-.155-.58-.015-.14-.046-.26-.062-.38-.015.11-.046.21-.061.3s-.093.31-.2.64l-.82 2.56h2.09zm-2.866 11.57c.031.17.046.29.061.35.016-.12.046-.24.061-.38.031-.13.062-.3.108-.53l1.087-4.61h2.143l-2.281 7.91h-2.082l-1.3-4.15a2.531 2.531 0 0 1-.123-.48c-.03-.14-.046-.26-.061-.36-.015.06-.015.12-.031.21s-.076.3-.168.63l-1.271 4.16h-2.1l-2.265-7.9h2.342l1.056 4.61c.046.18.061.34.092.53a2.09 2.09 0 0 0 .061.36c.031-.12.061-.24.092-.39a3.513 3.513 0 0 1 .138-.5l1.331-4.61h1.7l1.3 4.61a4.105 4.105 0 0 1 .107.54zm-2.335-9.75a1.653 1.653 0 0 1 .573 1.27 1.869 1.869 0 0 1-.945 1.71 5.078 5.078 0 0 1-2.647.58 7.063 7.063 0 0 1-2.863-.46v-7.14a4.948 4.948 0 0 1 1.176-.34 9.628 9.628 0 0 1 1.579-.12 4.655 4.655 0 0 1 2.57.58 1.745 1.745 0 0 1 .882 1.5 1.476 1.476 0 0 1-.5 1.14 2.358 2.358 0 0 1-1.115.59 3 3 0 0 1 1.287.69zm-3.112-3.46h-.325a1.322 1.322 0 0 0-.433.09v2.3h.418a2.476 2.476 0 0 0 1.378-.28 1.073 1.073 0 0 0 .387-.94 1.174 1.174 0 0 0-1.428-1.17zm1.161 3.61a2.621 2.621 0 0 0-1.5-.32h-.418v2.51a1.713 1.713 0 0 0 .356.07 2.041 2.041 0 0 0 .449.03 1.913 1.913 0 0 0 1.161-.28 1.093 1.093 0 0 0 .387-.95 1.239 1.239 0 0 0-.438-1.06zm-7.453 12.37h-13.94a.493.493 0 0 1-.532-.46v-1.09a.493.493 0 0 1 .532-.46h13.94a.493.493 0 0 1 .532.46v1.09a.493.493 0 0 1-.535.46zm-2.169-9.02a.624.624 0 0 1 .7.53v4.96a.624.624 0 0 1-.7.52h-.591a.624.624 0 0 1-.7-.52v-4.96a.623.623 0 0 1 .7-.53h.585zm-3 0a.624.624 0 0 1 .7.53v4.96a.624.624 0 0 1-.7.52h-.591a.624.624 0 0 1-.7-.52v-4.96a.623.623 0 0 1 .7-.53h.585zm-3 0a.623.623 0 0 1 .7.53v4.96a.624.624 0 0 1-.7.52h-.591a.624.624 0 0 1-.7-.52v-4.96a.623.623 0 0 1 .7-.53h.585zm-3 0a.624.624 0 0 1 .7.53v4.96a.625.625 0 0 1-.7.52h-.59a.624.624 0 0 1-.7-.52v-4.96a.623.623 0 0 1 .7-.53h.59zm11.176-1h-13.966a.625.625 0 0 1-.524-.7v-.59a.619.619 0 0 1 .524-.7h13.962a.619.619 0 0 1 .524.7v.59a.625.625 0 0 1-.524.7zm-6.992-6.99l7.51 4h-14zm41.5 10.32h-2.755v2.01h2.418v1.22h-2.418v2.16h2.755v1.25l-5.144.02v-7.91h5.144v1.25z" transform="translate(-639 -9759)" fill="#c5c2c8" fill-rule="evenodd"/></svg>