<svg xmlns="http://www.w3.org/2000/svg" width="150" height="110"><path id="Depositors" d="M784.457 659H655.543A10.555 10.555 0 0 0 645 669.542v88.915A10.555 10.555 0 0 0 655.543 769h128.914A10.555 10.555 0 0 0 795 758.457v-88.915A10.555 10.555 0 0 0 784.457 659zM652.5 678.5a2.5 2.5 0 0 0 2.5-2.5h10a2.5 2.5 0 0 0 5 0h10a2.5 2.5 0 0 0 5 0h10a2.5 2.5 0 0 0 5 0h10a2.5 2.5 0 0 0 5 0h10a2.5 2.5 0 0 0 5 0h10a2.5 2.5 0 0 0 5 0h10a2.5 2.5 0 0 0 5 0h10a2.5 2.5 0 0 0 5 0h10a2.5 2.5 0 0 0 5 0v15a2.5 2.5 0 1 0-5 0h-10a2.5 2.5 0 1 0-5 0h-10a2.5 2.5 0 1 0-5 0h-10a2.5 2.5 0 1 0-5 0h-10a2.5 2.5 0 1 0-5 0h-10a2.5 2.5 0 1 0-5 0h-10a2.5 2.5 0 1 0-5 0h-10a2.5 2.5 0 1 0-5 0h-10a2.5 2.5 0 1 0-5 0h-10a2.5 2.5 0 1 0-5 0v-15a2.5 2.5 0 0 0 2.5 2.5zM790 758.457a5.549 5.549 0 0 1-5.543 5.543H655.543a5.549 5.549 0 0 1-5.543-5.543V696h140v62.457zM650 672v-2.088a5.743 5.743 0 0 1 5.543-5.912h128.914a5.743 5.743 0 0 1 5.543 5.912V672H650zm12.5 40.014H685a2.508 2.508 0 0 0 0-5.014h-22.5a2.508 2.508 0 0 0 0 5.014zm32.5 0h22.5a2.508 2.508 0 0 0 0-5.015H695a2.508 2.508 0 0 0 0 5.015zM662.5 724h2.5a2.507 2.507 0 0 0 0-5.014h-2.5a2.507 2.507 0 0 0 0 5.014zm17.5-5.014h-5a2.507 2.507 0 0 0 0 5.014h5a2.507 2.507 0 0 0 0-5.014zM690 724h2.5a2.507 2.507 0 0 0 0-5.014H690a2.507 2.507 0 0 0 0 5.014zm17.5-5.014h-5a2.507 2.507 0 0 0 0 5.014h5a2.507 2.507 0 0 0 0-5.014zm8.225.728a2.546 2.546 0 0 0 0 3.559 2.572 2.572 0 0 0 1.775.727 2.511 2.511 0 1 0-1.775-4.286zM705 681a2.5 2.5 0 1 1-2.5 2.5 2.5 2.5 0 0 1 2.5-2.5zm15 0a2.5 2.5 0 1 1-2.5 2.5 2.5 2.5 0 0 1 2.5-2.5zm-30 0a2.5 2.5 0 1 1-2.5 2.5 2.5 2.5 0 0 1 2.5-2.5zm-30 0a2.5 2.5 0 1 1-2.5 2.5 2.5 2.5 0 0 1 2.5-2.5zm15 0a2.5 2.5 0 1 1-2.5 2.5 2.5 2.5 0 0 1 2.5-2.5zm105 0a2.5 2.5 0 1 1-2.5 2.5 2.5 2.5 0 0 1 2.5-2.5zm-15 0a2.5 2.5 0 1 1-2.5 2.5 2.5 2.5 0 0 1 2.5-2.5zm-30 0a2.5 2.5 0 1 1-2.5 2.5 2.5 2.5 0 0 1 2.5-2.5zm15 0a2.5 2.5 0 1 1-2.5 2.5 2.5 2.5 0 0 1 2.5-2.5zm30 43h-45v30h45v-30zm-5 25h-35v-20h35v20z" transform="translate(-645 -659)" fill-rule="evenodd" opacity=".05"/></svg>