<svg xmlns="http://www.w3.org/2000/svg" width="150" height="125.156"><path id="coin" d="M790 930.144v-111a9.151 9.151 0 0 0-9.14-9.144h-21.72a9.029 9.029 0 0 0-7.872 4.588c.23.124.445.277.672.4.91.513 1.8 1.06 2.69 1.62.437.279.885.536 1.315.823a64.12 64.12 0 0 1 4.115 2.977A5.98 5.98 0 0 1 766 815h8.013a6 6 0 0 1 5.987 5.992v109.152h-5v-7.016c-.165.25-.345.487-.51.734-.185.278-.377.548-.567.821-.423.61-.835 1.23-1.275 1.825-.395.54-.813 1.052-1.223 1.577-.192.247-.385.5-.58.74-.25.313-.5.628-.752.935-.109.132-.225.254-.335.384h-6.823c.43-.443.874-.871 1.29-1.327a65.67 65.67 0 0 0 1.423-1.594 62.81 62.81 0 0 0 2.24-2.79c.447-.588.907-1.161 1.337-1.765l.028-.038a67.443 67.443 0 0 0 2.232-3.384c.168-.266.345-.521.508-.788.175-.291.357-.573.53-.869q1.32-2.252 2.482-4.634v-65.918q-1.166-2.38-2.482-4.634c-.173-.3-.355-.579-.53-.868-.165-.268-.343-.522-.508-.788a68.672 68.672 0 0 0-2.232-3.385l-.028-.037c-.43-.605-.89-1.18-1.337-1.764a65.242 65.242 0 0 0-2.24-2.791 79.673 79.673 0 0 0-1.423-1.6 63.797 63.797 0 0 0-2.64-2.715c-.707-.69-1.405-1.395-2.142-2.045-.153-.133-.313-.255-.465-.388a61.41 61.41 0 0 0-3.06-2.47 64.724 64.724 0 0 0-3.683-2.547c-.535-.341-1.07-.682-1.613-1a56.497 56.497 0 0 0-2.307-1.275 52.321 52.321 0 0 0-24.565-6.23 53.806 53.806 0 0 0-5.892.332l-.993.138c-.122.015-.245.035-.367.052q-1.305.184-2.59.433l-.183.038c-.837.165-1.667.347-2.49.552-.107.027-.215.061-.325.087-.772.2-1.54.408-2.3.64-.2.063-.4.136-.607.2-.66.21-1.32.427-1.973.662-.46.167-.915.355-1.372.535-.39.155-.783.3-1.168.46-13.437 5.687-24.585 16.868-31.365 31.159-.06.128-.117.26-.177.391-.365.783-.72 1.57-1.058 2.37-.132.313-.255.63-.382.945-.253.625-.5 1.253-.743 1.888-.152.4-.292.809-.437 1.217-.2.56-.395 1.12-.58 1.685-.15.457-.293.918-.433 1.38a67.35 67.35 0 0 0-.867 3.068 79.92 79.92 0 0 0-.735 3.105c-.115.533-.22 1.07-.323 1.606-.1.512-.2 1.021-.285 1.536-.092.558-.177 1.118-.26 1.677-.072.5-.15 1.006-.215 1.511-.075.6-.137 1.207-.2 1.812-.05.472-.1.943-.145 1.417-.06.695-.1 1.4-.14 2.1-.022.393-.055.785-.072 1.181-.045 1.1-.073 2.209-.073 3.324s.028 2.222.075 3.317c.018.395.05.785.073 1.18.04.7.08 1.4.14 2.1.04.475.1.944.145 1.418.062.6.122 1.212.2 1.811.065.509.14 1.009.215 1.511.082.563.165 1.122.26 1.678.09.512.187 1.025.285 1.534.1.538.207 1.075.322 1.608.107.51.223 1.015.343 1.518q.188.8.392 1.587c.128.49.258.98.395 1.467.153.539.31 1.071.473 1.6a54.899 54.899 0 0 0 1.017 3.066c.145.407.288.814.438 1.216.237.636.487 1.263.742 1.888.128.315.25.633.383.946.337.8.692 1.589 1.057 2.37.06.129.118.26.177.39a67.378 67.378 0 0 0 12.335 17.941h-6.682c-.432-.512-.873-1.013-1.292-1.539-.29-.363-.57-.735-.853-1.105h-8.58c.785.911 1.6 1.786 2.43 2.644h-6.706a70.44 70.44 0 0 1-2.661-3.336 2.447 2.447 0 0 1-.283-.37 74.645 74.645 0 0 1-8.665-15.34 2.109 2.109 0 0 1-.12-.3A80.4 80.4 0 0 1 645 880a81.652 81.652 0 0 1 2.553-20.278 2.479 2.479 0 0 1 .2-.777 78.114 78.114 0 0 1 4.4-12.237 2.669 2.669 0 0 1 .175-.388 73.693 73.693 0 0 1 9.48-15.305 2.445 2.445 0 0 1 .3-.357 66.776 66.776 0 0 1 13.315-12.425l.01-.008A57.809 57.809 0 0 1 708.75 807.5a55.969 55.969 0 0 1 7.463.525 56.066 56.066 0 0 1 7.537-.525 56.955 56.955 0 0 1 23.028 4.932A13.981 13.981 0 0 1 759.14 805h21.72A14.156 14.156 0 0 1 795 819.139v111.005h-5zm-25-105.4c.135.132.26.272.395.4.675.663 1.34 1.338 1.99 2.033.093.1.193.193.285.292.22.238.428.49.645.73.6.671 1.2 1.341 1.778 2.038.255.307.5.622.752.935q.292.368.58.74c.408.525.825 1.038 1.223 1.578.44.594.852 1.214 1.275 1.825.19.272.382.541.567.819.168.248.348.485.51.735v-15.88a1 1 0 0 0-1-.992h-8.012a1 1 0 0 0-.993.992v3.751zM663.183 922.5h8.965a76.403 76.403 0 0 1-1.37-2.213c-.208-.355-.4-.717-.608-1.078q-.832-1.465-1.6-2.979c-.185-.365-.375-.728-.555-1.1q-.633-1.3-1.22-2.631h-9.47a69.137 69.137 0 0 0 5.858 10.001zm-8.038-15h9.638c-.1-.274-.193-.548-.288-.823-.107-.308-.217-.613-.32-.921-.5-1.479-.96-2.979-1.373-4.5-.029-.108-.054-.217-.082-.325-.082-.307-.155-.617-.232-.925h-9.8a73.418 73.418 0 0 0 2.457 7.494zM651.52 895h9.86a82.113 82.113 0 0 1-.662-4.132c-.01-.078-.015-.156-.026-.23a82.902 82.902 0 0 1-.352-3.138h-9.94a76.682 76.682 0 0 0 1.12 7.5zM650 880c0 .842.07 1.665.1 2.5h9.957c-.025-.833-.055-1.662-.055-2.5 0-1.642.065-3.266.158-4.881V875h-9.96c-.11 1.655-.2 3.315-.2 5zm2.018-17.5a75.364 75.364 0 0 0-1.32 7.5h9.922c.028-.213.045-.425.072-.638.011-.077.016-.154.026-.23a80.208 80.208 0 0 1 .99-5.736c.063-.3.118-.6.183-.9h-9.872zm1.372-5h9.768q.476-1.647 1.012-3.257c.105-.308.213-.614.32-.921q.59-1.679 1.248-3.322h-9.568a73.165 73.165 0 0 0-2.78 7.5zm11.672-22.5a68.2 68.2 0 0 0-6.49 10h9.371l.067-.133c.18-.369.37-.732.555-1.1q.773-1.514 1.6-2.98c.2-.361.4-.724.608-1.079q1.023-1.736 2.135-3.4c.295-.445.6-.878.907-1.315h-8.758zm13.016-12.5a60.529 60.529 0 0 0-8.68 7.5h8.255c.385-.463.767-.928 1.165-1.378.452-.51.92-1 1.385-1.5s.96-1.008 1.45-1.5.987-.992 1.494-1.471c.6-.566 1.218-1.111 1.838-1.651h-6.907zm8.607-5h4.815c.67-.449 1.34-.894 2.025-1.316.465-.286.943-.553 1.415-.825q1.167-.675 2.357-1.3c.283-.147.553-.316.836-.459a52.667 52.667 0 0 0-11.448 3.9zm4.18 20.351a2.5 2.5 0 0 1 3.55 3.523 48.322 48.322 0 0 0-3.152 3.5 2.5 2.5 0 0 1-3.873-3.165 54.726 54.726 0 0 1 3.475-3.859zm-5.832 72.895a2.5 2.5 0 0 1 3.472.672 53.118 53.118 0 0 0 2.82 3.788 2.5 2.5 0 1 1-3.867 3.173 57.397 57.397 0 0 1-3.095-4.16 2.5 2.5 0 0 1 .67-3.474zm-5.7-55.8a2.5 2.5 0 0 1 4.58 2.009 53.965 53.965 0 0 0-1.715 4.42 2.5 2.5 0 1 1-4.736-1.607 61.386 61.386 0 0 1 1.871-4.82zm1.555 39.222c.382 1.53.832 3.06 1.34 4.547a2.5 2.5 0 0 1-1.558 3.176 2.56 2.56 0 0 1-.808.135 2.5 2.5 0 0 1-2.364-1.692 61.347 61.347 0 0 1-1.463-4.959 2.5 2.5 0 0 1 4.853-1.205zm-6.72-14.12V880c0-1.687.067-3.4.2-5.092a2.5 2.5 0 0 1 4.985.395 60.046 60.046 0 0 0-.185 4.7 2.52 2.52 0 0 1-2.5 2.523 2.476 2.476 0 0 1-2.5-2.476zm24.842 48.764a2.5 2.5 0 0 1 2.74-4.182 42.023 42.023 0 0 0 4.045 2.346 2.487 2.487 0 0 1 1.175 3.166h-5.8q-1.101-.635-2.16-1.328zm6.7-95.741a2.5 2.5 0 0 1-2.27-4.456 46.486 46.486 0 0 1 4.79-2.112 2.5 2.5 0 0 1 1.753 4.685 41.436 41.436 0 0 0-4.278 1.885zm22.882-4.1a2.26 2.26 0 0 1-.292-.017 39.794 39.794 0 0 0-4.545-.262 2.546 2.546 0 0 1-2.552-2.5 2.454 2.454 0 0 1 2.447-2.5v2.5l.03-2.5c1.763.048 3.508.1 5.2.3a2.5 2.5 0 0 1-.293 4.98zm9.028 99.806a41 41 0 0 0 4.265-1.893 2.491 2.491 0 0 1 3.407 3.259H736.2a2.477 2.477 0 0 1 1.415-1.365zm9.413-93.058a2.48 2.48 0 0 1-1.363-.408 42.453 42.453 0 0 0-4.05-2.332 2.5 2.5 0 0 1 2.25-4.466 47.025 47.025 0 0 1 4.53 2.611 2.5 2.5 0 0 1-1.372 4.596zm12.792 78.97a2.5 2.5 0 0 1 .362 3.518 55.185 55.185 0 0 1-3.464 3.864 2.5 2.5 0 1 1-3.56-3.51 48.18 48.18 0 0 0 3.147-3.51 2.5 2.5 0 0 1 3.51-.361zm2.59-65.527a2.5 2.5 0 0 1-3.473-.668c-.877-1.3-1.83-2.57-2.824-3.783a2.5 2.5 0 0 1 3.862-3.177 56.014 56.014 0 0 1 3.105 4.155 2.5 2.5 0 0 1-.675 3.474zm5.805 55.787a2.5 2.5 0 0 1-4.587-2 57.225 57.225 0 0 0 1.707-4.424 2.5 2.5 0 0 1 4.738 1.6 62.75 62.75 0 0 1-1.863 4.825zm.795-37.328a2.5 2.5 0 0 1-2.422-1.892 56.917 56.917 0 0 0-1.35-4.545 2.5 2.5 0 0 1 4.732-1.625 61.942 61.942 0 0 1 1.468 4.955 2.5 2.5 0 0 1-1.818 3.033 2.615 2.615 0 0 1-.615.075zm4.323 12.215V880c0 1.673-.063 3.351-.19 4.986a2.5 2.5 0 0 1-2.49 2.308c-.063 0-.131 0-.2-.009a2.5 2.5 0 0 1-2.3-2.684 59.68 59.68 0 0 0 .175-4.6 2.57 2.57 0 0 1 2.5-2.582 2.432 2.432 0 0 1 2.5 2.418z" transform="translate(-645 -805)" fill-rule="evenodd" opacity=".05"/></svg>