<svg xmlns="http://www.w3.org/2000/svg" width="131" height="122"><path id="diamond" d="M414.545 508.852L352.912 597h-6.823l-61.633-88.148a2.517 2.517 0 0 1 .1-3.018l24.06-29.908a2.5 2.5 0 0 1 1.954-.937h77.857a2.506 2.506 0 0 1 1.954.937l24.059 29.908a2.519 2.519 0 0 1 .105 3.018zM344.453 585.9l-16.247-75.973h-36.873zm5.047-.4l16.161-75.573h-32.322zm-39.132-103.738L291.756 504.9h33.822zm4.86-1.746l14.986 22.792 14.686-22.792h-29.672zM334.84 504.9h29.32l-14.66-22.761zm19.265-24.882l14.681 22.792 14.986-22.792h-29.667zm34.528 1.746L373.422 504.9h33.822zm-17.839 28.162L354.547 585.9l53.12-75.973h-36.873z" transform="translate(-284 -475)" fill-rule="evenodd" opacity=".1"/></svg>