<svg xmlns="http://www.w3.org/2000/svg" width="144" height="122"><path id="diamond-not-active" d="M1215.55 519.852L1162.02 597h-22.04l-44.81-64.587a29 29 0 1 1 28.53-46.424h65.93a2.468 2.468 0 0 1 1.94.937l23.88 29.908a2.549 2.549 0 0 1 .1 3.018zm-69.56 77.048l-16.12-75.974h-5.35a28.938 28.938 0 0 1-22.89 12.044zm5.01-.4l16.04-75.573h-32.08zM1101 480a24 24 0 1 0 24 24 24 24 0 0 0-24-24zm25.9 11.016a28.768 28.768 0 0 1 2.47 18.978l2.49 3.814 14.57-22.792h-19.53zm9.55 24.881h29.1L1151 493.139zm19.12-24.881l14.57 22.792 14.87-22.792h-29.44zm34.26 1.746l-15.09 23.138h33.56zm-17.7 28.162l-16.12 75.976 52.71-75.974h-36.59zM1114 514l-3 4-10.08-10.578-10.05 9.578-3.87-3.842 10.31-9.52-9.31-9.77 3.84-3.868 9.32 10.089L1111 491l4 3-10.35 9.868z" transform="translate(-1072 -475)" fill-rule="evenodd" opacity=".1"/></svg>