<svg xmlns="http://www.w3.org/2000/svg" width="132" height="122"><path id="diamond-active" d="M815.548 508.852L754.386 597h-6.771l-20.077-28.935A28.986 28.986 0 0 1 694.6 520.59l-8.144-11.738a2.53 2.53 0 0 1 .1-3.018l23.876-29.908a2.477 2.477 0 0 1 1.939-.937h77.262a2.481 2.481 0 0 1 1.94.937l23.875 29.908a2.532 2.532 0 0 1 .1 3.018zM742 543.07l9 42.427 16.038-75.573h-32.076l4.518 21.287A28.87 28.87 0 0 1 742 543v.07zm4 42.827l-6.574-30.979a29.062 29.062 0 0 1-7.783 10.288zM689 543a24 24 0 1 0 24-24 24 24 0 0 0-24 24zm9.724-25.225a28.878 28.878 0 0 1 33.581 3.627l-2.436-11.478h-36.592zm13.442-36.013L693.7 504.9h33.564zm4.824-1.746l14.871 22.792 14.569-22.792h-29.44zm19.462 24.884h29.1L751 482.139zm19.118-24.882l14.569 22.792 14.871-22.792h-29.44zm34.264 1.746L774.739 504.9H808.3zm-17.7 28.162L756.008 585.9l52.715-75.973h-36.592zM727 536.318L709.731 553.5l-3.841-3.818-5.89-5.875 3.842-3.818 5.9 5.867 13.416-13.356z" transform="translate(-684 -475)" fill-rule="evenodd" opacity=".1"/></svg>