<svg xmlns="http://www.w3.org/2000/svg" width="121.91" height="124.062"><path id="euro" d="M1116.63 777.558a47.96 47.96 0 0 1-6.45-.449 47.837 47.837 0 0 1-6.39.449 49.841 49.841 0 0 1-31.09-11.109 1.961 1.961 0 0 1-.38-.306 58.452 58.452 0 0 1-10.13-10.567 2.007 2.007 0 0 1-.24-.316 64.033 64.033 0 0 1-7.42-13.125 2.192 2.192 0 0 1-.1-.256 68.725 68.725 0 0 1-5.18-26.349 69.429 69.429 0 0 1 2.19-17.347 2.084 2.084 0 0 1 .16-.665 67.24 67.24 0 0 1 3.77-10.472 3.369 3.369 0 0 1 .14-.33 63.31 63.31 0 0 1 8.11-13.1 3.018 3.018 0 0 1 .26-.308 57.03 57.03 0 0 1 11.39-10.63.061.061 0 0 1 .01-.007 49.47 49.47 0 0 1 28.51-9.176 47.837 47.837 0 0 1 6.39.449 47.8 47.8 0 0 1 6.45-.449c30.07 0 54.54 27.825 54.54 62.03s-24.47 62.033-54.54 62.033zm-21.92-5.223c-.23-.116-.45-.256-.69-.374q-1.035-.546-2.07-1.139c-.39-.228-.79-.448-1.17-.686a52.836 52.836 0 0 1-2.56-1.677c-.46-.319-.9-.652-1.35-.984-.27-.205-.55-.4-.82-.611h-5.18a45.664 45.664 0 0 0 13.84 5.471zm-20.02-9.749h6.44c-.18-.171-.34-.356-.51-.529a42.22 42.22 0 0 1-1.25-1.291c-.4-.424-.8-.843-1.18-1.279a56.969 56.969 0 0 1-2-2.373c-.24-.312-.48-.628-.73-.945h-7.34a53.526 53.526 0 0 0 6.57 6.417zm-9.88-10.7h7.67c-.4-.624-.79-1.249-1.18-1.891-.18-.306-.34-.62-.52-.931-.47-.833-.93-1.68-1.37-2.54-.16-.315-.32-.626-.48-.946-.36-.74-.7-1.491-1.04-2.248h-8.1a59.3 59.3 0 0 0 5.02 8.561zm-6.88-12.834h8.24l-.24-.7c-.09-.263-.19-.526-.28-.794a69.445 69.445 0 0 1-1.17-3.85c-.02-.094-.05-.192-.07-.286-.07-.259-.13-.524-.2-.785h-8.38a61.7 61.7 0 0 0 2.1 6.42zm-3.1-10.694h8.43c-.21-1.168-.4-2.345-.56-3.536a1.342 1.342 0 0 1-.02-.2c-.12-.89-.22-1.782-.31-2.682h-8.5a63.964 63.964 0 0 0 .96 6.423zm-1.3-12.833c0 .72.06 1.424.08 2.138h8.52c-.02-.713-.05-1.422-.05-2.138 0-1.406.06-2.795.14-4.176v-.1h-8.53c-.08 1.418-.16 2.838-.16 4.281zm1.72-14.973c-.49 2.092-.84 4.239-1.13 6.416h8.49c.03-.179.04-.363.07-.543a1.355 1.355 0 0 1 .02-.2c.18-1.373.41-2.725.67-4.068.06-.282.12-.562.17-.843.06-.254.11-.511.16-.763h-8.45zm1.18-4.279h8.36c.27-.936.55-1.864.86-2.784.09-.266.19-.528.28-.794.33-.959.69-1.9 1.06-2.838h-8.18a61.861 61.861 0 0 0-2.38 6.421zm9.99-19.249a58.136 58.136 0 0 0-5.56 8.555h8.02l.06-.109c.15-.319.32-.631.48-.945.43-.86.89-1.707 1.36-2.541.18-.311.35-.626.53-.931.58-.988 1.19-1.955 1.82-2.9.25-.381.52-.753.78-1.127h-7.49zm11.13-10.7a51.93 51.93 0 0 0-7.43 6.417h7.07c.33-.4.66-.794 1-1.179.38-.437.78-.856 1.18-1.279.41-.439.83-.869 1.25-1.292s.84-.848 1.27-1.254c.51-.482 1.04-.95 1.57-1.413h-5.91zm7.37-4.278h4.11c.58-.387 1.16-.771 1.75-1.132.38-.238.78-.459 1.17-.687q1.035-.592 2.07-1.138c.24-.119.46-.26.69-.376a44.912 44.912 0 0 0-9.79 3.343zm31.71-4.278a43.977 43.977 0 0 0-5.03.29l-.86.121c-.1.012-.21.029-.31.045-.74.1-1.48.229-2.21.369l-.17.035c-.71.141-1.42.3-2.12.471-.1.023-.2.051-.3.076q-.975.251-1.95.544c-.18.058-.37.124-.56.183-.55.177-1.1.356-1.64.553-.43.155-.85.327-1.28.5-.3.121-.6.232-.9.355-11.5 4.869-21.04 14.436-26.84 26.671a3.094 3.094 0 0 0-.13.281q-.48 1.026-.93 2.078c-.11.257-.21.521-.32.779-.22.545-.44 1.091-.64 1.645-.13.338-.25.68-.37 1.02-.17.486-.34.971-.5 1.463-.13.385-.25.775-.36 1.163a64.763 64.763 0 0 0-.75 2.63 59.48 59.48 0 0 0-.63 2.656c-.1.457-.19.92-.28 1.381l-.24 1.308c-.08.479-.15.96-.22 1.441-.07.428-.13.856-.19 1.286-.06.515-.12 1.036-.17 1.555-.04.4-.09.8-.12 1.208-.06.6-.09 1.2-.12 1.8-.02.336-.05.67-.07 1.007-.03.944-.06 1.891-.06 2.846s.03 1.9.06 2.844c.01.337.04.672.06 1.007q.045.9.12 1.8l.12 1.209c.06.519.11 1.039.18 1.555.05.43.12.857.18 1.285.07.483.14.965.22 1.442.08.439.16.872.25 1.307.08.462.18.924.27 1.381.1.43.19.86.3 1.288.1.458.22.915.34 1.369.1.417.22.832.33 1.245.13.464.27.924.41 1.383a67.95 67.95 0 0 0 .87 2.627l.36 1.02c.21.554.43 1.1.65 1.646.11.258.21.521.32.778.29.7.6 1.395.92 2.079.05.092.09.188.13.28 5.81 12.232 15.35 21.8 26.85 26.671.3.126.6.237.9.354.42.17.85.341 1.27.5.55.2 1.1.376 1.65.552.19.06.37.126.56.184q.975.294 1.95.543c.1.023.2.053.3.077.7.173 1.4.329 2.12.471l.16.033q1.11.213 2.22.371c.1.012.21.03.31.045l.85.12a44.285 44.285 0 0 0 5.04.29c27.71 0 50.26-25.906 50.26-57.75s-22.55-57.756-50.26-57.756zm42.26 62.014a2.145 2.145 0 0 1-2.13 1.975c-.06 0-.12 0-.17-.007a2.139 2.139 0 0 1-1.97-2.3c.1-1.29.15-2.612.15-3.933a2.2 2.2 0 0 1 2.14-2.208 2.083 2.083 0 0 1 2.14 2.068v.137c0 1.444-.06 2.879-.16 4.278zm-3.02-14.917a2.134 2.134 0 0 1-2.59-1.555 48.042 48.042 0 0 0-1.16-3.888 2.141 2.141 0 0 1 4.05-1.391c.48 1.391.9 2.818 1.26 4.24a2.145 2.145 0 0 1-1.56 2.604zm-.95 25.162a2.134 2.134 0 0 1 1.34 2.708 54.123 54.123 0 0 1-1.59 4.129 2.146 2.146 0 0 1-1.97 1.285 2.11 2.11 0 0 1-.85-.178 2.143 2.143 0 0 1-1.11-2.814 50.23 50.23 0 0 0 1.47-3.786 2.139 2.139 0 0 1 2.71-1.334zm-5.22-40.89a2.1 2.1 0 0 1-1.19.369 2.137 2.137 0 0 1-1.78-.939c-.75-1.113-1.57-2.2-2.42-3.237a2.141 2.141 0 0 1 3.31-2.718 47.38 47.38 0 0 1 2.65 3.555 2.13 2.13 0 0 1-.57 2.98zm-2.22 56.064a2.143 2.143 0 0 1 .32 3.01 48.75 48.75 0 0 1-2.97 3.306 2.133 2.133 0 0 1-1.52.636 2.146 2.146 0 0 1-1.53-3.643c.94-.95 1.85-1.959 2.7-3a2.131 2.131 0 0 1 3-.299zm-39.2-11.937a19.387 19.387 0 0 0 12.73 4.3c6.24 0 11.33-2.017 15.13-5.99a2.109 2.109 0 0 1 1.5-.715 1.8 1.8 0 0 1 1.28.56 2.491 2.491 0 0 1 .87 1.656 2.031 2.031 0 0 1-.67 1.456 24.988 24.988 0 0 1-18.11 7.253 23.414 23.414 0 0 1-15.59-5.392 24.039 24.039 0 0 1-7.92-13.359h-5.66a2.11 2.11 0 1 1 0-4.22h4.97c-.09-.914-.14-1.926-.14-3.03 0-1.129.05-2.19.14-3.165h-3.58a2.11 2.11 0 1 1 0-4.22h4.28a25 25 0 0 1 7.57-13.268 21.225 21.225 0 0 1 14.68-5.482 23.56 23.56 0 0 1 15.11 5.615v-2.808a2.11 2.11 0 1 1 4.22 0v13.2a2.11 2.11 0 1 1-4.22 0v-4.456a24.993 24.993 0 0 0-3.93-3.5 20.073 20.073 0 0 0-11.77-3.825A16.431 16.431 0 0 0 1108 698.2a20.673 20.673 0 0 0-6.18 10.216h18.49a2.11 2.11 0 1 1 0 4.22h-19.26a30.771 30.771 0 0 0-.16 3.166 27.63 27.63 0 0 0 .15 3.028h17.88a2.111 2.111 0 0 1 0 4.221h-17.1a19.85 19.85 0 0 0 6.46 10.223zm28.26-55.63a2.1 2.1 0 0 1-1.16-.349 37.035 37.035 0 0 0-3.47-2 2.139 2.139 0 1 1 1.93-3.819 40.163 40.163 0 0 1 3.87 2.232 2.138 2.138 0 0 1-1.17 3.946zm-15.77-5.775a1.806 1.806 0 0 1-.25-.015 34.28 34.28 0 0 0-3.89-.225 2.176 2.176 0 0 1-2.19-2.139 2.1 2.1 0 0 1 2.09-2.138v2.138l.03-2.138a37.369 37.369 0 0 1 4.45.254 2.138 2.138 0 0 1-.24 4.273zm-15.93 1.9a35.039 35.039 0 0 0-3.65 1.611 2.142 2.142 0 0 1-2.88-.932 2.131 2.131 0 0 1 .94-2.877 38.768 38.768 0 0 1 4.09-1.807 2.138 2.138 0 1 1 1.5 4.012zm-16.01 11.709a2.138 2.138 0 1 1-3.31-2.706c.94-1.15 1.94-2.263 2.97-3.3a2.14 2.14 0 0 1 3.04 3.012 40.162 40.162 0 0 0-2.7 3.001zm-2.36 56.934a48.31 48.31 0 0 0 2.41 3.241 2.135 2.135 0 0 1-1.65 3.5 2.121 2.121 0 0 1-1.65-.783 49.425 49.425 0 0 1-2.65-3.559 2.137 2.137 0 1 1 3.54-2.392zm-5.39-42.813a2.143 2.143 0 0 1-4.06-1.375c.48-1.4 1.02-2.787 1.6-4.126a2.14 2.14 0 0 1 3.92 1.719 45.134 45.134 0 0 0-1.46 3.793zm-2.44 11.912a54.09 54.09 0 0 0-.16 4.022 2.151 2.151 0 0 1-2.14 2.157 2.113 2.113 0 0 1-2.13-2.115v-.045c0-1.444.05-2.911.17-4.357a2.137 2.137 0 1 1 4.26.345zm-1.28 14.586a2.131 2.131 0 0 1 2.59 1.559c.33 1.309.72 2.618 1.15 3.89a2.147 2.147 0 0 1-1.33 2.717 2.191 2.191 0 0 1-.69.116 2.152 2.152 0 0 1-2.03-1.449c-.47-1.39-.89-2.817-1.25-4.241a2.147 2.147 0 0 1 1.56-2.585zm20.44 27.622a36.979 36.979 0 0 0 3.46 2.006 2.137 2.137 0 1 1-1.93 3.814 41.56 41.56 0 0 1-3.87-2.242 2.138 2.138 0 1 1 2.34-3.571zm14.85 5.477a33.585 33.585 0 0 0 3.98.236 2.221 2.221 0 0 1 2.23 2.14 2.066 2.066 0 0 1-2.05 2.14h-.18a37.863 37.863 0 0 1-4.48-.266 2.14 2.14 0 0 1 .5-4.243zm15.84-1.931a35.327 35.327 0 0 0 3.65-1.62 2.141 2.141 0 0 1 1.96 3.806 40.057 40.057 0 0 1-4.1 1.816 2.169 2.169 0 0 1-.76.139 2.139 2.139 0 0 1-.75-4.134z" transform="translate(-1049.25 -653.5)" fill-rule="evenodd" opacity=".05"/></svg>