<svg id="important" xmlns="http://www.w3.org/2000/svg" width="90" height="90"><circle cx="45" cy="45" r="45" fill="#d22848"/><path d="M173.534 1269.01h-42.667c-3.475 0-1.867-3.01-1.867-3.01l20.063-36.21c3.263-4.08 6.024.06 6.024.06L174 1265c2.486 3.42-.466 4.01-.466 4.01zM155 1242.61a2.953 2.953 0 0 0-3.024-2.6 2.911 2.911 0 0 0-2.982 2.6v10.8a3.036 3.036 0 0 0 6.006 0v-10.8zm-3 15.35a3.02 3.02 0 1 0 2.99 3.02 3 3 0 0 0-2.99-3.02z" transform="translate(-107 -1204)" fill="#f3eaee" fill-rule="evenodd"/></svg>