<svg xmlns="http://www.w3.org/2000/svg" width="140" height="134"><path id="_list" data-name="list" d="M1181.51 684l3.49-6h-11l.5.71 3.02 5.29H1170v-4l-3-4.335V560h-23v7h18v117h-98V567h18v-7h-25v124h-5V555h47v-3c0-1.383 1.62-2 3-2h22.5a2.5 2.5 0 0 1 2.5 2.5v2.5h40.45a7.465 7.465 0 0 1 7.02-5h10.07a7.472 7.472 0 0 1 7.46 7.463v118.2l-4.76 8.337h-5.73zM1122 557.667V555h-18v8h18v-5.333zm17 9.333v-7h-12v8h-28v-8h-12v10h52v-3zm-54.5 8h-2.5v-3h-13v110h88V572h-13v3h-59.5zm102.5-17.537a2.462 2.462 0 0 0-2.46-2.463h-10.08a2.469 2.469 0 0 0-2.46 2.463V568h15v-10.537zm0 15.537h-15v5h15v-5zm0 10h-15v90h15v-90zm-37.99 20.5a2.5 2.5 0 0 1-2.5 2.5h-40.02a2.5 2.5 0 0 1 0-5h40.02a2.5 2.5 0 0 1 2.5 2.5zm-48.14 49.952l-12.44 10a2.486 2.486 0 0 1-3.32-.185l-4.98-5a2.511 2.511 0 0 1 0-3.535 2.48 2.48 0 0 1 3.52 0l3.41 3.418 10.7-8.6a2.5 2.5 0 0 1 3.11 3.902zm0-27.5l-12.44 10a2.488 2.488 0 0 1-3.32-.186l-4.98-5a2.512 2.512 0 0 1 0-3.536 2.48 2.48 0 0 1 3.52 0l3.41 3.418 10.7-8.6a2.5 2.5 0 0 1 3.11 3.905zm0-27.5l-12.44 10a2.488 2.488 0 0 1-3.32-.186l-4.98-5a2.511 2.511 0 0 1 0-3.535 2.478 2.478 0 0 1 3.52 0l3.41 3.417 10.7-8.6a2.5 2.5 0 0 1 3.11 3.905zm5.62 30.548h40.02a2.5 2.5 0 0 1 0 5h-40.02a2.5 2.5 0 0 1 0-5zm0 28h40.02a2.5 2.5 0 0 1 0 5h-40.02a2.5 2.5 0 0 1 0-5z" transform="translate(-1052 -550)" fill-rule="evenodd" opacity=".05"/></svg>