<svg xmlns="http://www.w3.org/2000/svg" width="150" height="131.5"><path id="money" d="M1184 879.149v16.341a5.51 5.51 0 0 1-.49 2.25c5.16 2.137 7.78 4.694 7.95 7.76h.04v17.49c-.02 6.576-11.72 11.179-26.9 14.01h-81.23c-15.16-2.831-26.85-7.431-26.87-14v-17.5h.04a5.6 5.6 0 0 1 .33-1.555c-4.88-2.338-7.86-5.142-7.87-8.449V878h.03c.24-4.207 5.15-7.5 14.97-10.033V850.5h.04a5.48 5.48 0 0 1 .22-1.268c-9.12-2.767-15.25-6.484-15.26-11.234V820.5h.04c.9-14.57 60.6-15 67.46-15s66.56.43 67.46 15h.04v17.49a5.489 5.489 0 0 1-.54 2.34c10.18 2.55 15.27 5.893 15.51 10.17h.03v17.49c-.01 4.71-6.02 8.4-15 11.159zm-5 48.9c4.86-1.825 7.5-3.655 7.5-5.062V912.64a37.361 37.361 0 0 1-7.5 3.44v11.967zm-12.5 3.488q4.155-.882 7.5-1.852v-12.08c-2.33.63-4.85 1.206-7.5 1.727v12.2zm-12.5 2.111c2.64-.349 5.15-.731 7.5-1.146v-12.277q-3.63.59-7.5 1.055v12.366zm-12.5 1.246q3.9-.272 7.5-.657V921.82q-3.69.357-7.5.6v12.467zm-15 .591q5.19-.049 10-.29V922.71c-2.5.115-5.02.193-7.54.24h-.4c-.68.013-1.37.022-2.06.03v12.5zm-15-.288c3.21.157 6.55.258 10 .29v-12.5c-.69-.008-1.37-.018-2.06-.031h-.4q-3.78-.067-7.54-.24V935.2zm-12.5-.958q3.6.38 7.5.658v-12.469c-2.53-.168-5.04-.37-7.5-.608v12.417zm-12.5-1.734c2.35.415 4.86.8 7.5 1.145v-12.367q-3.87-.465-7.5-1.055V932.5zm-12.5-2.82c2.23.643 4.74 1.264 7.5 1.852v-12.2c-2.65-.519-5.16-1.1-7.5-1.727v12.078zm38.7-11.936c.9.037 1.8.076 2.72.106.75.025 1.49.05 2.24.067 2.07.048 4.18.08 6.34.08s4.27-.032 6.34-.078a270.75 270.75 0 0 0 4.96-.173c17.54-.774 31.38-3.277 40.23-6.009 6.83-2.11 10.67-4.355 10.94-6.048-.16-.627-1.52-2.2-6.46-3.962-.22.157-.5.308-.74.462-.25.17-.52.338-.8.5-.22.133-.45.268-.69.4-4.38 2.432-10.77 4.394-18.16 5.91-.17.037-.35.073-.52.107a181.609 181.609 0 0 1-14.94 2.333c-.06 0-.1.032-.16.032a.309.309 0 0 0-.04-.007c-3.99.456-8.14.824-12.42 1.082-.02 0-.02.007-.04.007a.052.052 0 0 0-.02 0c-3.52.211-7.12.346-10.77.406-1.42.024-2.83.042-4.21.042-1.04 0-2.09-.01-3.16-.03-4-.047-7.96-.19-11.83-.42h-.02a182.387 182.387 0 0 1-33.28-4.728c-.41-.1-.82-.207-1.22-.314l-.81-.222q-1.05-.294-2.07-.6c-.08-.024-.16-.048-.24-.074q-1.185-.369-2.31-.758c.48 1.674 4.3 3.844 10.91 5.886 8.85 2.724 22.69 5.227 40.23 6.001zm67.71-42.757l1.09-.305v-12.079c-2.33.629-4.84 1.205-7.5 1.727v12.2c.2-.044.4-.081.6-.123.65-.14 1.28-.285 1.9-.43 1.35-.32 2.67-.644 3.91-.992zm-8.91 13.59V900.5a22.328 22.328 0 0 0 6.38-3.45l.85-.747a1.551 1.551 0 0 0 .27-.818V885.14a37.305 37.305 0 0 1-7.5 3.44zm-5 13.6v-12.077c-2.33.63-4.84 1.2-7.5 1.728v12.2c2.77-.585 5.27-1.208 7.5-1.851zM1154 905v-12.275q-3.63.588-7.5 1.055v12.365c2.64-.345 5.15-.73 7.5-1.145zm-12.5 1.735V894.32q-3.69.36-7.5.608V907.4c.56-.04 1.12-.082 1.67-.125.36-.028.72-.055 1.08-.088 1.63-.137 3.21-.287 4.75-.452zm-12.5.954v-12.481c-2.5.114-5.02.192-7.54.24l-.39.007q-1.035.018-2.07.03v12.487c.91-.007 1.82-.012 2.72-.03.36-.007.73-.011 1.1-.022a224.83 224.83 0 0 0 6.18-.231zm-15 .293v-12.5c-.69-.007-1.37-.017-2.06-.03l-.4-.007c-2.51-.045-5.03-.123-7.54-.24v12.479c1.35.066 2.7.124 4.06.168q.21.009.42.015 1.695.053 3.42.084c.21 0 .43.009.65.014.48.012.97.012 1.45.017zm-15-.6V894.93c-2.53-.168-5.04-.37-7.5-.608v12.413c.18.018.36.04.54.057.25.026.5.053.76.078 2.02.198 4.1.367 6.2.517zm-12.5-1.242v-12.36q-3.87-.462-7.5-1.055V905q3.54.623 7.5 1.145zm-12.5-2.108v-12.2c-2.65-.523-5.16-1.1-7.5-1.727v12.077c.08.022.16.045.24.07.3.088.62.17.92.257 1.93.528 4.04 1.041 6.34 1.528zm-12.5 18.953c.01 1.407 2.64 3.235 7.5 5.057v-11.97a37.362 37.362 0 0 1-7.5-3.439v10.357zm-7.5-27.5c.01 1.26 2.12 2.858 6.04 4.485l.03-.03 1.43.555v-11.917a37.361 37.361 0 0 1-7.5-3.44v10.352zm.03-17.335c.22 1.7 4.07 3.958 10.94 6.082 8.85 2.733 22.69 5.235 40.23 6.01.89.039 1.79.078 2.71.105.75.026 1.5.05 2.26.068 2.07.048 4.17.081 6.33.081 1.63 0 3.21-.024 4.78-.049.62-.012 1.25-.022 1.86-.037.57-.014 1.12-.036 1.69-.053 18.95-.61 33.86-3.237 43.2-6.122a45.256 45.256 0 0 0 7.39-2.89 193.227 193.227 0 0 1-28.86 3.695c-.02 0-.04.013-.06.013a.274.274 0 0 0-.04-.008c-3.17.185-6.39.32-9.66.388-1.8.042-3.57.062-5.3.062-1.5 0-3.04-.02-4.61-.053-3.53-.059-7-.2-10.38-.395h-.03a192.614 192.614 0 0 1-28.31-3.59c-.67-.137-1.32-.28-1.97-.424-.21-.048-.42-.093-.62-.141-8.83-2.024-15.92-4.739-19.34-8.2-.03-.039-.09-.074-.13-.115-9.28 2.285-11.8 4.638-12.08 5.578zm114.97-.65v-12.275q-3.63.588-7.5 1.055v12.353c.65-.083 1.3-.161 1.94-.25q1-.143 1.98-.291c1.14-.171 2.25-.36 3.35-.55.08-.012.15-.027.23-.042zm-12.5 1.722v-12.4q-3.69.358-7.5.607v12.446c.95-.068 1.91-.118 2.84-.2l.27-.026c1.49-.121 2.94-.274 4.39-.427zm-12.5.958v-12.47c-2.5.115-5.02.192-7.54.24l-.4.008c-.68.013-1.37.022-2.06.03v12.48c3.38-.035 6.72-.125 10-.288zm-15 .29v-12.482c-.69-.008-1.38-.017-2.06-.03l-.4-.008q-3.78-.068-7.54-.24v12.483c.1 0 .19.007.29.012 1.81.088 3.64.16 5.52.207.19.006.37.008.56.013 1.18.027 2.41.032 3.63.045zm-15-.582v-12.461c-2.53-.167-5.04-.37-7.5-.607v12.415c.07 0 .13.015.2.022.33.034.65.069.98.1 1.53.153 3.09.291 4.69.416l1.01.074c.2.015.42.026.62.041zm-12.5-1.241v-12.365q-3.87-.464-7.5-1.054v12.26c.94.165 1.87.334 2.86.493a188.326 188.326 0 0 0 4.64.666zm-12.5-2.132v-12.183c-2.65-.519-5.16-1.1-7.5-1.726v12.031c2.23.656 4.74 1.286 7.5 1.878zm-12.5-3.56v-11.878a37.307 37.307 0 0 1-7.5-3.439v10.352a1.97 1.97 0 0 0 .04.238l.17.28c.82 1.38 3.36 2.929 7.29 4.447zm-7.29-27.533c1.24.323 2.54.628 3.87.921l.92.194v-12.2a114.8 114.8 0 0 1-7.5-1.728v12.079c.87.244 1.76.492 2.71.734zM1054 837.99c.01 1.407 2.64 3.235 7.5 5.058v-11.971a37.25 37.25 0 0 1-7.5-3.44v10.353zm62.5-27.49c-41.22 0-62.07 6.49-62.46 10.215.3 1.69 4.14 3.922 10.93 6.022 8.85 2.734 22.69 5.235 40.23 6.01.89.038 1.79.078 2.71.106.75.024 1.5.049 2.26.067 2.07.047 4.17.081 6.33.081s4.27-.034 6.33-.081a277.235 277.235 0 0 0 4.97-.173c17.54-.775 31.38-3.276 40.23-6.01 6.79-2.1 10.63-4.332 10.93-6.022-.39-3.725-21.24-10.215-62.46-10.215zm-37.5 24.727V847.5c.27.048.54.1.82.145 1.38.233 2.8.455 4.24.663.32.045.62.092.94.138.49.067 1.01.119 1.5.184v-12.35a183.05 183.05 0 0 1-7.5-1.053zm12.5 1.593v12.4c2.45.257 4.96.466 7.5.647v-12.439c-2.53-.168-5.04-.37-7.5-.608zm12.5.892v12.474c3.29.164 6.64.251 10 .284v-12.482c-.69-.008-1.37-.018-2.06-.031h-.4q-3.78-.073-7.54-.245zm15 .276v12.487c.9-.01 1.81-.012 2.7-.03.27-.008.54-.01.81-.017 1.74-.041 3.45-.1 5.12-.17.04 0 .08 0 .11-.006.43-.02.84-.049 1.26-.07V837.71c-2.5.114-5.02.193-7.54.24l-.4.007c-.68.013-1.37.023-2.06.031zm15-.56v12.455q3.885-.278 7.5-.663v-12.4q-3.69.357-7.5.608zm12.5-1.148v12.349c2.64-.343 5.13-.729 7.5-1.149v-12.255q-3.63.588-7.5 1.055zm12.5-1.945v12.182c2.74-.585 5.26-1.207 7.5-1.86v-12.05c-2.33.631-4.84 1.205-7.5 1.728zm20-6.7a37.25 37.25 0 0 1-7.5 3.44v11.895a24.32 24.32 0 0 0 5.95-3.073l.91-.707.07.015a1.972 1.972 0 0 0 .57-1.222v-10.346zm.55 16.908c-.15.1-.34.2-.5.3-.28.177-.58.352-.88.525-.26.15-.5.3-.78.451-.62.331-1.29.651-1.98.964-.19.083-.38.162-.57.245-.65.282-1.33.56-2.03.828-.15.054-.29.11-.43.165a71.3 71.3 0 0 1-2.61.9c-.31.1-.63.192-.95.29q-.78.237-1.59.468c-11.71 3.347-28.55 5.507-46.71 5.788-1.36.024-2.71.039-4.02.039-1.84 0-3.73-.025-5.65-.073q-4.71-.105-9.3-.382c-.02 0-.03.01-.05.01s-.06-.017-.09-.017q-6.39-.378-12.4-1.065h-.01c-.01 0-.03-.01-.05-.01-5.87-.67-11.37-1.548-16.34-2.617q-1.53-.322-3-.673c-.17-.042-.36-.077-.53-.121a.5.5 0 0 0-.04.149c.28 1.689 4.12 3.929 10.93 6.034 8.85 2.733 22.69 5.236 40.23 6.011.89.037 1.79.077 2.7.1.76.024 1.51.05 2.27.067 2.07.047 4.16.08 6.33.08s4.27-.033 6.34-.077c.76-.02 1.51-.043 2.26-.068.91-.03 1.81-.067 2.7-.1 17.54-.776 31.38-3.278 40.23-6.011 6.87-2.122 10.71-4.38 10.94-6.078-.28-1.038-3.23-3.693-14.42-6.12zm14.45 13.1a37.305 37.305 0 0 1-7.5 3.44v11.968c4.86-1.825 7.5-3.655 7.5-5.063V857.64z" transform="translate(-1049 -805.5)" fill-rule="evenodd" opacity=".05"/></svg>