<svg xmlns="http://www.w3.org/2000/svg" width="54" height="16"><path id="paypal" d="M795.276 9713.41l.053.06-.841 3.76H791.5l2.43-12.22h3.084zm-5.181 3.82H787.1l.187-1.03c-1.589 1.69-5.7 1.6-5.047-2.17a3 3 0 0 1 .89-1.6 3.078 3.078 0 0 1 .295-.26l.125-.09a6.722 6.722 0 0 1 3.363-.96l.045.05c.431-.03.879-.05 1.357-.05.187-1.03-.467-1.22-1.589-1.22a12.456 12.456 0 0 0-2.9.65l.28-2.16a15.517 15.517 0 0 1 3.458-.56 4.112 4.112 0 0 1 3.4 1.16 2.256 2.256 0 0 1 .43 2.13zm-2.9-3.67a2.146 2.146 0 0 0-1.87.57c-.374.75.187 1.13.841 1.13a1.642 1.642 0 0 0 1.589-1.13 1.432 1.432 0 0 1 .01-.16v-.03c.007-.05.015-.11.026-.16a.477.477 0 0 1 .092-.22h-.683zm-8.693-.09h-2.336l-.842 3.76h-3.364l.215-.61 2.308-11.61H780c1.589 0 3.551 2.07 3.084 4.79a4.451 4.451 0 0 1-4.579 3.67zm.281-5.64H777.2l-.655 2.82h1.5a1.9 1.9 0 0 0 1.869-1.41 1.061 1.061 0 0 0-1.128-1.41zm-16.17 13.16l2.15-3.95-1.215-9.21h2.991l.467 5.26 2.991-5.26h3.084l-7.1 13.16h-3.365zm-1.589-3.76h-2.991l.153-.92a3.675 3.675 0 0 1-2.383.94 2.283 2.283 0 0 1-2.561-2c-.01-.06-.015-.12-.021-.18-.008-.11-.018-.21-.017-.32a4.4 4.4 0 0 1 .063-.81c.374-1.88 2.056-2.63 4.579-2.82l.048.05c.431-.03.878-.05 1.354-.05.183-1.01-.439-1.21-1.51-1.22a11.236 11.236 0 0 0-2.883.65l.1-.07c-.061.03-.153.05-.193.07l.281-2.16a13.739 13.739 0 0 1 3.364-.56 4.586 4.586 0 0 1 3.237.91 2.206 2.206 0 0 1 .689 2.38zm-2.9-3.67a2.046 2.046 0 0 0-1.776.57c-.467.75.094 1.13.748 1.13a1.643 1.643 0 0 0 1.589-1.13 1.811 1.811 0 0 1 .038-.35.488.488 0 0 1 .092-.22h-.685zm-8.693-.09H747.1l-.841 3.76h-3.272l2.431-12.22h5.607c1.589 0 3.552 2.07 2.991 4.79a4.451 4.451 0 0 1-4.579 3.67zm.374-5.64h-1.588l-.655 2.82h1.5a1.9 1.9 0 0 0 1.869-1.41 1.061 1.061 0 0 0-1.12-1.41z" transform="translate(-743 -9705)" fill="#c5c2c8" fill-rule="evenodd"/></svg>