<svg version="1.1" id="Layer_1" xmlns="http://www.w3.org/2000/svg" x="0" y="0" width="36" height="41.2" xml:space="preserve"><style type="text/css">.st0{fill:#fff}</style><path class="st0" d="M7.7 0C6.3 0 5.1 1.2 5.1 2.6v36c0 1.4 1.2 2.6 2.6 2.6h25.7c1.4 0 2.6-1.2 2.6-2.6V10.3L25.7 0h-18z"/><path d="M28.3 10.3H36L25.7 0v7.7c0 1.4 1.2 2.6 2.6 2.6z" opacity=".1"/><path d="M30.9 33.4c0 .7-.6 1.3-1.3 1.3H1.3c-.7 0-1.3-.6-1.3-1.3V20.6c0-.7.6-1.3 1.3-1.3h28.3c.7 0 1.3.6 1.3 1.3v12.8z" fill="#f15642"/><path class="st0" d="M5.6 24.4c0-.3.3-.7.7-.7h2.4c1.3 0 2.5.9 2.5 2.6 0 1.6-1.2 2.5-2.5 2.5H7v1.4c0 .5-.3.7-.7.7-.3 0-.7-.3-.7-.7v-5.8zm1.4.5v2.6h1.7c.7 0 1.2-.6 1.2-1.2 0-.7-.5-1.3-1.2-1.3H7zm6.2 6c-.3 0-.7-.2-.7-.6v-5.8c0-.4.4-.6.7-.6h2.4c4.7 0 4.6 7.1.1 7.1h-2.5zm.7-5.9v4.6h1.7c2.8 0 2.9-4.6 0-4.6h-1.7zm8 .1v1.6h2.6c.4 0 .7.4.7.7 0 .3-.4.6-.7.6h-2.6v2.2c0 .4-.3.6-.6.6-.5 0-.7-.3-.7-.6v-5.8c0-.4.3-.6.7-.6h3.6c.5 0 .7.3.7.6s-.3.7-.7.7h-3z"/></svg>