<svg xmlns="http://www.w3.org/2000/svg" width="157" height="115"><path id="playes" d="M507.484 183.766c5.343-2.664 15.359-2.695 15.783-2.695a2.295 2.295 0 1 1 0 4.589c-2.585 0-10.089.4-13.726 2.212a2.3 2.3 0 1 1-2.057-4.106zm-11.466 32.671l9.5-2.708a.962.962 0 0 0 .7-.921v-3.163a17.186 17.186 0 0 1-2.2-1.8 16.862 16.862 0 0 1-5.178-12.212v-4.365l-.919-1.832a14.626 14.626 0 0 1-1.54-6.513V171.1a2.3 2.3 0 0 1 2.3-2.3h22.131a14.6 14.6 0 0 1 14.6 14.562v.138a12.148 12.148 0 0 1-1.281 5.415l-1.178 2.351v3.748a17.892 17.892 0 0 1-7.377 14.476v3.315c0 .512 0 .723 1.9 1.265l4.635 1.321 13.406-4.864a2.289 2.289 0 0 1 .627-1.757l4.284-4.491v-7.539c-.453-.372-.9-.754-1.332-1.159a26.9 26.9 0 0 1-8.5-19.578v-6.021a26.473 26.473 0 0 1-2.459-11.154v-24.533a2.3 2.3 0 0 1 2.3-2.295h34.426a21.973 21.973 0 0 1 21.972 21.923v4.907a26.478 26.478 0 0 1-2.459 11.155v5.18a28.012 28.012 0 0 1-9.836 21.4v7.717l4.284 4.49a2.293 2.293 0 0 1 .627 1.757l14.149 5.134a12.074 12.074 0 0 1 2.844 1.486l2.222-1.108c-6.615-2.873-8.71-6.913-8.811-7.114a2.294 2.294 0 0 1 0-2.052c1.658-3.309 1.859-9.373 2.021-14.246.053-1.622.1-3.155.2-4.519.785-11.007 9.17-19.307 19.507-19.307s18.724 8.3 19.507 19.307c.1 1.365.148 2.9.2 4.52.161 4.872.362 10.936 2.02 14.245a2.287 2.287 0 0 1 0 2.052c-.1.2-2.191 4.233-8.819 7.109l6.172 3.078a9.606 9.606 0 0 1 5.337 8.637V244.7a2.3 2.3 0 0 1-4.6 0v-16.949a5.037 5.037 0 0 0-2.806-4.531l-7.685-3.834-2.674 2.535a9.688 9.688 0 0 1-13.332 0l-2.673-2.535-2.506 1.25a12.065 12.065 0 0 1 1.85 6.407v17.662a2.3 2.3 0 0 1-4.6 0v-17.662a7.544 7.544 0 0 0-4.96-7.067l-14.914-5.412-6.21 9.3a4.767 4.767 0 0 1-7.325.724l-3.789-3.781v23.9a2.3 2.3 0 0 1-4.6 0V220.8l-3.788 3.781a4.747 4.747 0 0 1-3.36 1.391c-.158 0-.316-.008-.474-.023a4.743 4.743 0 0 1-3.491-2.092l-6.211-9.3-14.918 5.413a7.545 7.545 0 0 0-4.961 7.067v17.661a2.3 2.3 0 0 1-4.6 0v-17.654a12.117 12.117 0 0 1 3.4-8.4l-.568-.162a12.6 12.6 0 0 1-2.14-.771l-5.872 5.859v21.131a2.3 2.3 0 0 1-4.6 0v-21.127l-5.831-5.818a5.47 5.47 0 0 1-.978.387l-9.5 2.708a5.089 5.089 0 0 0-3.682 4.871v18.983a2.3 2.3 0 0 1-4.6 0v-18.983a9.7 9.7 0 0 1 7.016-9.285zm135.228-4.053a16.533 16.533 0 0 0 7.381-4.728 25.26 25.26 0 0 1-1.311-5.5 17.111 17.111 0 0 1-6.07 7.473v2.75zm-13.175 6.21a5.083 5.083 0 0 0 7 0l2.138-2.028a4.735 4.735 0 0 1-.559-2.241v-2.446a17.123 17.123 0 0 1-10.154 0v2.444a4.742 4.742 0 0 1-.559 2.242zm3.5-10.534a12.453 12.453 0 0 0 12.454-12.426 2.3 2.3 0 0 1 2.3-2.295 2.242 2.242 0 0 1 .378.034l-.02-.591c-.052-1.578-.1-3.068-.192-4.346a17.018 17.018 0 0 0-4.65-10.7 14.311 14.311 0 0 0-20.539 0 17.018 17.018 0 0 0-4.65 10.7c-.09 1.278-.14 2.768-.192 4.345 0 .136-.009.273-.014.41a20.656 20.656 0 0 1 11.36-8.282 28.883 28.883 0 0 1 8.747-1.383 2.3 2.3 0 0 1 1.592.7l4.149 4.293a2.3 2.3 0 0 1-3.311 3.186l-3.453-3.573c-2.973.145-12.539 1.255-16.26 9.43a12.416 12.416 0 0 0 12.298 10.498zm-9.675 4.332v-2.737a16.979 16.979 0 0 1-6.071-7.481 25.235 25.235 0 0 1-1.31 5.483 16.622 16.622 0 0 0 7.378 4.735zm-22.132-37.228v-5.693a2.29 2.29 0 0 1 .229-1 21.965 21.965 0 0 0 2.23-9.643v-4.907a17.372 17.372 0 0 0-17.372-17.333h-32.129v22.241a21.968 21.968 0 0 0 2.23 9.643 2.3 2.3 0 0 1 .229 1v6.534a22 22 0 0 0 7.05 16.23 22.758 22.758 0 0 0 1.769 1.491l.04.029a22.149 22.149 0 0 0 14.923 4.442c11.661-.754 20.798-10.871 20.798-23.034zm-12.949 46.173a.144.144 0 0 0 .128.046.149.149 0 0 0 .117-.07l7.152-10.7-2.3-2.413-10.851 7.4zm-9.341-8.855l12.454-8.494V199.7a25.941 25.941 0 0 1-10.668 3.073q-.909.059-1.81.059a26.685 26.685 0 0 1-12.43-3.04v4.192zm-9.586 8.831a.16.16 0 0 0 .245.025l5.754-5.742-10.85-7.4-2.3 2.413zm-41.995-1.936l5.219-5.207a6.249 6.249 0 0 1-.142-1.363v-.969a16.127 16.127 0 0 1-4.554.8c-.177.006-.353.008-.53.008a17.116 17.116 0 0 1-5.07-.765v.924a5.448 5.448 0 0 1-.167 1.337zm-8.673-14.825a12.376 12.376 0 0 0 9.057 3.5c6.656-.2 12.07-6.048 12.07-13.038v-4.29a2.287 2.287 0 0 1 .243-1.026l1.421-2.835a7.55 7.55 0 0 0 .795-3.363v-.136a9.995 9.995 0 0 0-10-9.973h-19.83v9.53a10 10 0 0 0 1.056 4.461l1.161 2.316a2.3 2.3 0 0 1 .242 1.026v4.907a12.318 12.318 0 0 0 3.782 8.921zm-6.081 23.136a2.3 2.3 0 0 1 2.3 2.3V244.7a2.3 2.3 0 0 1-4.6 0v-14.717a2.3 2.3 0 0 1 2.297-2.295zm132.728 3.033a2.3 2.3 0 0 1 2.3 2.295V244.7a2.3 2.3 0 0 1-4.6 0v-11.684a2.3 2.3 0 0 1 2.297-2.295zm-85.232-71.059c8.7-8.679 26.9-7.02 34.318-5.9a4.714 4.714 0 0 1 4.034 4.693v5.286a2.3 2.3 0 0 1-4.6 0v-5.286a.151.151 0 0 0-.12-.155 72.755 72.755 0 0 0-14.941-.728c-7.172.476-12.366 2.272-15.439 5.339a2.3 2.3 0 0 1-3.255-3.249zM594.52 232.6a2.3 2.3 0 0 1 2.3 2.295v9.805a2.3 2.3 0 0 1-4.6 0v-9.81a2.3 2.3 0 0 1 2.3-2.29zm-54.1 0a2.3 2.3 0 0 1 2.3 2.295v9.805a2.3 2.3 0 0 1-4.6 0v-9.81a2.3 2.3 0 0 1 2.302-2.29z" transform="translate(-489 -132)" fill-rule="evenodd" opacity=".05"/></svg>