<svg xmlns="http://www.w3.org/2000/svg" width="107" height="132"><path id="races" d="M1212.72 171.214l-9.56-16.389a2.058 2.058 0 0 0-2.79-.747 2 2 0 0 0-.74 2.764l1.08 1.852a22.154 22.154 0 0 1-10.89 2.306l-5.09-8.714a24.9 24.9 0 0 0 10.6-2.8l1.53 2.616a2.056 2.056 0 0 0 2.79.746 2.011 2.011 0 0 0 .74-2.764l-9.94-17.048a2.073 2.073 0 0 0-1.25-.945 2.027 2.027 0 0 0-1.54.2c-5.88 3.355-9.75 3.3-13.86 3.249-4.47-.059-9.1-.12-15.94 3.787s-9.09 7.9-11.28 11.766c-2 3.544-3.9 6.892-9.77 10.247a27.71 27.71 0 0 1-4.1 1.948 2.007 2.007 0 0 0-1.19 2.6 2.039 2.039 0 0 0 1.38 1.247 2.072 2.072 0 0 0 1.25-.058 29.676 29.676 0 0 0 2.92-1.271l5.37 9.207a22.134 22.134 0 0 1-10.89 2.31l-5.09-8.72c.23-.01.46-.019.69-.035a2.018 2.018 0 0 0 1.89-2.157 2.044 2.044 0 0 0-2.18-1.882c-1.32.089-2.57.073-3.9.055-4.47-.059-9.1-.12-15.94 3.787a2.011 2.011 0 0 0-.74 2.764l53.58 91.832a2.021 2.021 0 0 0 1.24.945 2.053 2.053 0 0 0 1.55-.2l6.35-3.631a2 2 0 0 0 .74-2.763l-12.2-20.911a2.052 2.052 0 0 0-2.79-.746 2.018 2.018 0 0 0-.74 2.763l11.18 19.156-2.83 1.614-29.22-50.087a24.342 24.342 0 0 1 3.04-1.248l14.84 25.436a2.056 2.056 0 0 0 2.79.746 2.011 2.011 0 0 0 .74-2.764l-14.19-24.325a38.723 38.723 0 0 1 4.83-.141c4.48.059 9.1.121 15.94-3.787s9.1-7.9 11.29-11.766c2-3.544 3.9-6.892 9.77-10.247s9.75-3.3 13.85-3.249c4.47.059 9.1.121 15.94-3.787a2.011 2.011 0 0 0 .74-2.761zm-27.61-10.2a24.946 24.946 0 0 0-10.6 2.8l-5.37-9.208a22.111 22.111 0 0 1 10.89-2.309zm-26.97 3.793a21.742 21.742 0 0 1 7.47-8.181l5.37 9.208a24.71 24.71 0 0 0-7.76 7.687zm2.72 12.738a21.794 21.794 0 0 1-7.46 8.18l-5.38-9.209a24.706 24.706 0 0 0 7.76-7.685zm27.05-40.785l5.37 9.208a22.133 22.133 0 0 1-10.89 2.309l-5.08-8.714a24.946 24.946 0 0 0 10.6-2.803zm-15.3 2.813l5.08 8.714a24.972 24.972 0 0 0-10.61 2.8l-5.37-9.209a22.169 22.169 0 0 1 10.9-2.305zm-14.43 4.327l5.37 9.208a24.564 24.564 0 0 0-7.75 7.686l-5.09-8.713a21.826 21.826 0 0 1 7.47-8.181zm-17.58 19.89a24.552 24.552 0 0 0 7.75-7.685l5.09 8.713a21.824 21.824 0 0 1-7.47 8.18zm3.89 14.743l5.37 9.209a22.124 22.124 0 0 1-10.89 2.31l-5.08-8.714a24.937 24.937 0 0 0 10.6-2.805zm-33.62-7.6a22.106 22.106 0 0 1 10.89-2.307l5.08 8.713a24.949 24.949 0 0 0-10.6 2.8zm7.42 12.728a22.157 22.157 0 0 1 10.9-2.309l5.08 8.714a24.984 24.984 0 0 0-10.61 2.8zm12.8 21.934l-5.37-9.207a22.111 22.111 0 0 1 10.89-2.309l5.08 8.713a24.946 24.946 0 0 0-10.6 2.799zm15.31-2.813l-5.09-8.714a24.972 24.972 0 0 0 10.61-2.8l5.37 9.208a22.134 22.134 0 0 1-10.89 2.302zm14.42-4.328l-5.37-9.208a24.552 24.552 0 0 0 7.75-7.685l5.09 8.714a21.822 21.822 0 0 1-7.47 8.175zm9.83-12.2l-5.09-8.714a21.833 21.833 0 0 1 7.47-8.181l5.37 9.209a24.553 24.553 0 0 0-7.75 7.679zm11.28-9.7l-5.37-9.208a22.154 22.154 0 0 1 10.89-2.309l5.09 8.714a24.984 24.984 0 0 0-10.61 2.792zm15.31-2.814l-5.08-8.714a24.946 24.946 0 0 0 10.6-2.8l5.37 9.209a22.108 22.108 0 0 1-10.89 2.294z" transform="translate(-1106 -132)" fill-rule="evenodd" opacity=".05"/></svg>