<svg xmlns="http://www.w3.org/2000/svg" width="41.406" height="13.94"><path id="skrill" d="M676.043 9719.97v-12.59l3.357-.61v13.2h-3.357zm-5.37-12.59l3.356-.61v13.2h-3.356v-12.59zm-4.7 3.07h3.357v9.52h-3.357v-9.52zm1.679-1.02a1.705 1.705 0 1 1 1.678-1.7 1.675 1.675 0 0 1-1.678 1.7zm-5.035 6.26v4.28h-3.357v-5.44l.01-.01c.05-2.76 1.458-4.21 4.622-4.28a1.443 1.443 0 0 1 .739.07v2.86c-2.014.07-2.014.82-2.014 2.52zm-4.162 4.28h-4.3a7.839 7.839 0 0 0-1.611-3.67v3.67h-3.354v-12.45l3.357-.75v7.01a17.268 17.268 0 0 0 2.014-3.33h4.095a18.887 18.887 0 0 1-2.484 4.62 44.868 44.868 0 0 1 2.283 4.9zm-15.339-8.39c3.115.26 4.931 1.78 4.931 4.16 0 2.11-1.687 4.23-5.385 4.23h-.062a18.863 18.863 0 0 1-4.606-.53v-3.04c.022.01.043.01.065.02v-.02a14.834 14.834 0 0 0 3.869.73c.026 0 .054-.01.081-.01a4.646 4.646 0 0 0 .868-.07h.006a1.3 1.3 0 0 0 1.339-1.11 1.012 1.012 0 0 0-1.067-.98c-.15-.01-.282-.01-.36-.01-4.282-.33-4.736-2.91-4.736-4.04 0-1.91 1.362-4.16 5.125-4.29a12.646 12.646 0 0 1 4.412.73l.13.06v2.98h-.13c-.389-.14-.973-.33-.973-.33a11.1 11.1 0 0 0-2.985-.53c-.519 0-1.946 0-1.946 1.05a1.179 1.179 0 0 0 1.424 1z" transform="translate(-638 -9706.03)" fill="#c5c2c8" fill-rule="evenodd"/></svg>