<svg xmlns="http://www.w3.org/2000/svg" width="138.22" height="127.625"><path id="token" d="M1151.28 459h-11.56a65.715 65.715 0 0 0 18.29-11.922l-8.06-8.064a51.592 51.592 0 0 1-32.01 13.511V459h-5.4v-6.476a51.563 51.563 0 0 1-32.01-13.511l-8.06 8.064A65.7 65.7 0 0 0 1090.76 459h-11.58c-19.64-12.4-33.06-34.337-33.06-58.512 0-37.359 31.91-69.12 69.12-69.12 37.36 0 69.12 31.918 69.12 69.12 0 24.253-13.46 46.136-33.08 58.512zm10.55-15.741a64.094 64.094 0 0 0 17.06-40.1h-11.62a51.6 51.6 0 0 1-13.51 32.034zm-93.18 0l8.06-8.064a51.587 51.587 0 0 1-13.51-32.008h-11.62a64.091 64.091 0 0 0 17.07 40.072zm-17.07-45.471h11.62a51.587 51.587 0 0 1 13.51-32.008l-8.06-8.064a64.091 64.091 0 0 0-17.07 40.072zm60.96-60.954a64.033 64.033 0 0 0-40.07 17.064l8.06 8.063a51.567 51.567 0 0 1 32.01-13.51v-11.617zm-44.01 63.654c0 25.327 21.42 46.71 46.71 46.71 25.32 0 46.71-21.423 46.71-46.71 0-25.328-21.42-46.71-46.71-46.71-25.33 0-46.71 21.422-46.71 46.71zm49.41-63.654v11.617a51.586 51.586 0 0 1 32.01 13.511l8.06-8.064a64.056 64.056 0 0 0-40.07-17.064zm43.89 20.882l-8.07 8.064a51.531 51.531 0 0 1 13.51 32.008h11.62a64.024 64.024 0 0 0-17.06-40.072zm-34.67 29.784l3.84 3.818-20.27 21.182-3.84-3.818-7.89-7.875 3.84-3.818 7.9 7.868zm-11.92 53.488a40.5 40.5 0 0 1-35.53-59.933 2.7 2.7 0 1 1 4.73 2.6 35.11 35.11 0 1 0 13.96-13.96 2.7 2.7 0 1 1-2.59-4.734 40.5 40.5 0 1 1 19.43 76.027zm-27-64.8a2.7 2.7 0 1 1 2.7-2.7 2.7 2.7 0 0 1-2.7 2.7z" transform="translate(-1046.12 -331.375)" fill-rule="evenodd" opacity=".1"/></svg>