<svg xmlns="http://www.w3.org/2000/svg" width="44" height="14"><path id="visa" d="M729.524 9719.99l-.435-2.33h-4.638l-.725 2.33h-3.914l5.436-12.97a1.636 1.636 0 0 1 1.884-1.01h2.826l3.042 13.98h-3.478zm-1.689-8.69l-.21-1.24c-.209.51-.488 1.32-.488 1.32s-1.188 3.21-1.4 3.86v.08h2.933c-.137-.73-.835-4.02-.835-4.02zm-7.4-1.97a6.193 6.193 0 0 0-2.654-.51c-1.4 0-2.025.59-2.025 1.17 0 .66.769 1.02 2.025 1.68 2.1.95 3 2.11 3 3.65 0 2.77-2.444 4.6-6.145 4.6a10.992 10.992 0 0 1-3.98-.73l.489-3 .489.22a7.322 7.322 0 0 0 3.351.73c.978 0 2.1-.44 2.1-1.31 0-.59-.419-1.02-1.815-1.68s-3.143-1.68-3.143-3.65c0-2.63 2.514-4.45 6.006-4.45a8.569 8.569 0 0 1 3.212.58l-.559 2.85zm-15.327 10.58l2.385-13.9H711l-2.316 13.9h-3.582zm-8.569.08l-2.92-11.91c-.3-.2-.622-.39-.946-.58l-.225-.12c-.092-.05-.188-.1-.282-.14l-3.154-1.23h6.535a1.42 1.42 0 0 1 1.616 1.16l1.142 6.26.064.28-.024-.06.024.13.349 1.9 3.645-9.59h3.794l-5.825 13.9h-3.793z" transform="translate(-689 -9706)" fill="#c5c2c8" fill-rule="evenodd"/></svg>