<svg xmlns="http://www.w3.org/2000/svg" width="146.938" height="134.969"><path id="wishcoins" d="M396.249 629.167a2.121 2.121 0 0 1-.067.465 74.756 74.756 0 0 1-4.715 16.979 2.786 2.786 0 0 1-.125.288 80.431 80.431 0 0 1-17.479 26.072 83.658 83.658 0 0 1-5.54 5.054.041.041 0 0 0-.013.008 80.636 80.636 0 0 1-8.139 5.967h-10.243c.708-.345 1.42-.676 2.122-1.046l-6.9-6.91c-.921.511-1.85.993-2.784 1.463-.275.14-.547.285-.822.42q-1.741.849-3.506 1.606L342.5 684h-7.06l-2.5-2.507c-.422.148-.846.288-1.271.426q-1.577.513-3.159.95c-.4.112-.809.24-1.214.345a67.29 67.29 0 0 1-3.436.786h-28.179c-1-.219-2-.432-2.993-.7-.477-.131-.949-.273-1.424-.415-.607-.183-1.224-.33-1.828-.53.892.582 1.8 1.127 2.725 1.646H283.2a53.191 53.191 0 0 1-10.572-10.611 56.571 56.571 0 0 1-5.6-4.839c-24.829-24.862-22.057-68.093 6.179-96.366s71.413-31.05 96.242-6.189a56.355 56.355 0 0 1 4.952 5.7 55.619 55.619 0 0 1 5.644 4.909 58.3 58.3 0 0 1 16.5 34.892 2.33 2.33 0 0 1 .06.557 68.4 68.4 0 0 1-.356 17.113zm-10.124 17.18l-6.8-6.812c-.123.257-.25.515-.375.772-.142.3-.284.6-.432.893a79.035 79.035 0 0 1-2.208 4.144c-.059.1-.127.2-.187.31-.155.27-.319.535-.479.8l6.922 6.932a72.975 72.975 0 0 0 3.559-7.039zm-10.777 17.5a75.427 75.427 0 0 0 4.508-6.1l-6.965-6.975q-1.176 1.717-2.45 3.391c-.05.065-.1.125-.15.188a78.396 78.396 0 0 1-1.963 2.463zm-5.012 5.589c.6-.595 1.127-1.228 1.7-1.838L365 660.553c-.572.605-1.136 1.215-1.728 1.808a83.87 83.87 0 0 1-3.591 3.366c-.02.017-.038.037-.058.055l7.043 7.052c1.243-1.096 2.479-2.206 3.67-3.399zm-13.788 10.951a74.57 74.57 0 0 0 6.229-4.374l-7.015-7.025a.317.317 0 0 0-.033.026c-.312.242-.619.492-.934.732a78.003 78.003 0 0 1-3.933 2.818c-.1.068-.205.131-.308.2-.327.218-.659.42-.989.633zm24.827-74.043c-.02-.557-.05-1.113-.085-1.665-.083-1.353-.2-2.7-.377-4.034-.063-.49-.145-.972-.22-1.458-.22-1.4-.47-2.8-.792-4.175-.08-.343-.177-.678-.262-1.018a55.406 55.406 0 0 0-1.266-4.339c-.048-.14-.1-.278-.145-.418q-.839-2.389-1.9-4.7c-.032-.073-.062-.15-.1-.223a52.343 52.343 0 0 0-2.5-4.708l-.06-.105a51.914 51.914 0 0 0-3.047-4.521c-.049-.066-.1-.133-.147-.2l-.649-.86a51.718 51.718 0 0 0-3.911-4.394c-10.4-10.415-24.345-15.524-38.924-15.524-17.5 0-35.915 7.352-50.255 21.711-26.29 26.324-29.062 66.382-6.181 89.3a51.647 51.647 0 0 0 4.385 3.914l.884.665.172.13a52.021 52.021 0 0 0 4.526 3.056l.087.05a52.019 52.019 0 0 0 4.725 2.51c.058.028.118.05.178.078q2.337 1.083 4.767 1.933l.312.107c1.459.5 2.947.925 4.446 1.3.312.078.621.17.936.243 1.4.33 2.822.585 4.251.807.457.07.911.148 1.368.208 1.364.18 2.737.3 4.116.388.519.032 1.041.062 1.563.079q2.054.072 4.123.011c.515-.015 1.029-.043 1.546-.07a70.71 70.71 0 0 0 4.261-.368c.439-.052.881-.123 1.321-.185a67.527 67.527 0 0 0 4.528-.788c.292-.063.584-.142.876-.207 1.551-.353 3.1-.751 4.638-1.216.145-.042.29-.077.434-.122a72.262 72.262 0 0 0 5.01-1.768c.2-.075.395-.148.59-.225a73.616 73.616 0 0 0 4.847-2.171c.212-.1.422-.2.632-.308q2.382-1.2 4.7-2.583l.622-.375q2.316-1.414 4.561-3.01l.556-.408c1.509-1.1 3-2.253 4.441-3.479.132-.112.26-.23.389-.342 1.5-1.288 2.967-2.628 4.388-4.051s2.747-2.879 4.026-4.371c.122-.143.25-.281.37-.423a77.234 77.234 0 0 0 3.441-4.406c.147-.2.3-.4.442-.605q1.578-2.217 2.97-4.511c.139-.231.279-.461.417-.693q1.356-2.289 2.537-4.631c.122-.243.237-.488.357-.733q1.15-2.352 2.123-4.751c.1-.238.182-.478.275-.718.624-1.6 1.2-3.206 1.7-4.826.067-.22.127-.443.192-.663.44-1.465.817-2.936 1.154-4.411.077-.343.17-.685.242-1.031.312-1.465.555-2.933.764-4.4.068-.485.145-.97.2-1.455.167-1.388.279-2.776.357-4.159.03-.553.057-1.1.075-1.656.05-1.346.047-2.692 0-4.03zm1.051 25.517a78.14 78.14 0 0 1-.994 2.713l6.688 6.7a69.359 69.359 0 0 0 2.925-11.22l-6.334-6.342a68.862 68.862 0 0 1-.592 2.526c-.105.41-.227.817-.339 1.225q-.447 1.605-.962 3.2c-.13.399-.255.8-.392 1.197zm.809-43.429c.095.288.163.585.257.875q.417 1.317.772 2.654c.137.515.28 1.022.4 1.54q.411 1.732.726 3.5c.115.645.208 1.3.3 1.945.057.391.125.78.174 1.176l4.271 4.276a53.344 53.344 0 0 0-6.9-15.967zm8.476 24.6l-5.309-5.316c0 .29-.015.582-.015.873 0 .69-.013 1.38-.035 2.073s-.04 1.367-.082 2.055q-.109 1.792-.313 3.591c-.055.465-.117.928-.179 1.393l6.058 6.066a62.289 62.289 0 0 0-.125-10.732zm-23.932 9.933a2.39 2.39 0 0 1-.48-.048 2.5 2.5 0 0 1-1.973-2.933c.3-1.55.532-3.121.685-4.669a2.5 2.5 0 1 1 4.97.49c-.17 1.7-.423 3.431-.755 5.137a2.5 2.5 0 0 1-2.447 2.026zm.484-19.756a2.494 2.494 0 0 1-2.954-1.938 42.286 42.286 0 0 0-1.2-4.523 2.5 2.5 0 1 1 4.75-1.55 47.48 47.48 0 0 1 1.344 5.053 2.5 2.5 0 0 1-1.94 2.961zm-2.991 32.4a62.343 62.343 0 0 1-2.47 4.533 2.5 2.5 0 1 1-4.281-2.575 56.513 56.513 0 0 0 2.268-4.167 2.5 2.5 0 1 1 4.483 2.214zm-5.732-50.189a2.49 2.49 0 0 1-1.965-.955 39.319 39.319 0 0 0-3.09-3.483 2.57 2.57 0 0 1-.052-3.591 2.428 2.428 0 0 1 3.479-.053l-1.766 1.768 1.843-1.69a44.687 44.687 0 0 1 3.514 3.958 2.5 2.5 0 0 1-1.963 4.046zm-6.246 66.9l-.03.029a64.943 64.943 0 0 1-3.746 3.469 2.5 2.5 0 0 1-3.244-3.8 60.092 60.092 0 0 0 3.459-3.2 2.513 2.513 0 0 1 3.546-.015 2.484 2.484 0 0 1 .015 3.513zm-13.509-12.6c-8.3 9.817-19.239 10.619-29.273 2.146l-.011-.009-18.221-15.4c-9.634-8.143-10.348-18.966-1.908-28.953l14.916-17.652 5.289 4.469c3.091 2.613 4.663 5.165 4.8 7.8.159 2.972-1.57 5.384-2.884 6.939-2.863 3.394-1.833 4.266-.407 5.471l.024.019c.762.644 2.035 1.665 4.75-1.547l6.592-7.8 5.29 4.469c2.783 2.353 4.211 4.561 4.493 6.95.286 2.418-.661 4.878-2.9 7.522l-.212.251c-1.326 1.57-1.612 2.549-1.619 3.1 0 .251 0 .95 1.258 1.981 1.249 1.055 2.18 1.774 4.934-1.485l6.546-7.746 5.289 4.469c2.622 2.216 4.134 4.605 4.493 7.1a9.537 9.537 0 0 1-2.573 7.641zm6.309-17.218c-.18-1.247-1.11-2.589-2.767-3.989l-1.47-1.243-3.336 3.947c-3.979 4.708-8.018 5.388-12 2.022a7.413 7.413 0 0 1-2.99-5.825c.025-2 .936-4.044 2.789-6.236l.212-.252c1.3-1.538 1.875-2.759 1.76-3.735-.121-1.023-1.046-2.271-2.75-3.712l-1.471-1.243-3.382 4c-5.37 6.354-10.038 3.59-11.8 2.1-4.161-3.516-4.229-7.72-.2-12.494l.01-.012c1.216-1.442 1.76-2.541 1.711-3.459-.062-1.169-1.082-2.6-3.033-4.244l-1.471-1.243-11.7 13.852c-6.622 7.836-6.16 15.623 1.3 21.928l18.221 15.4.009.008c7.872 6.647 15.772 6.089 22.246-1.572l8.673-10.263a4.8 4.8 0 0 0 1.439-3.737zm-2.115-49.285a2.475 2.475 0 0 1-1.032-.226 40.933 40.933 0 0 0-4.35-1.682 2.5 2.5 0 0 1 1.533-4.759 45.692 45.692 0 0 1 4.88 1.888 2.5 2.5 0 0 1-1.031 4.772zm-19.225-4.017c-1.561.01-3.144.1-4.705.253a2.177 2.177 0 0 1-.255.012 2.5 2.5 0 0 1-.25-4.989 53.653 53.653 0 0 1 5.185-.277h.012a2.5 2.5 0 0 1 .013 5.001zm-18.433 3.611a56.3 56.3 0 0 0-4.331 1.923 2.467 2.467 0 0 1-1.106.26 2.5 2.5 0 0 1-1.114-4.741 61.235 61.235 0 0 1 4.725-2.1 2.5 2.5 0 0 1 1.826 4.659zm-19.575 12.926a2.578 2.578 0 0 1-1.828.755 2.481 2.481 0 0 1-1.788-4.206l1.766 1.768-1.719-1.816q1.836-1.838 3.727-3.455a2.5 2.5 0 0 1 3.246 3.8 60.184 60.184 0 0 0-3.404 3.155zm-4.69 71.359a2.506 2.506 0 0 1-1.808.777 2.423 2.423 0 0 1-1.666-.66 3.62 3.62 0 0 1-.229-.235 41.891 41.891 0 0 1-3.322-3.746 2.5 2.5 0 1 1 3.923-3.095 39.445 39.445 0 0 0 3.046 3.426 2.537 2.537 0 0 1 .056 3.537zm-6.4-55.9a2.5 2.5 0 1 1-4.485-2.2 60.145 60.145 0 0 1 2.464-4.539 2.5 2.5 0 1 1 4.284 2.573 58.102 58.102 0 0 0-2.261 4.17zm-4.515 13.429a51.336 51.336 0 0 0-.68 4.671 2.5 2.5 0 0 1-2.482 2.258c-.083 0-.162 0-.245-.012a2.5 2.5 0 0 1-2.243-2.731c.165-1.7.415-3.431.745-5.136a2.5 2.5 0 1 1 4.907.953zm-2.912 16.777a2.5 2.5 0 0 1 2.957 1.933 42.788 42.788 0 0 0 1.208 4.519 2.5 2.5 0 0 1-1.593 3.156 2.592 2.592 0 0 1-.779.125 2.5 2.5 0 0 1-2.373-1.721 48.429 48.429 0 0 1-1.351-5.051 2.5 2.5 0 0 1 1.933-2.958zm25.238 30.123a41.124 41.124 0 0 0 4.346 1.691 2.5 2.5 0 1 1-1.541 4.758 45.645 45.645 0 0 1-4.88-1.9 2.5 2.5 0 0 1 2.077-4.546zm18.186 3.814a49.095 49.095 0 0 0 4.705-.245 2.5 2.5 0 0 1 .5 4.978c-1.72.173-3.464.265-5.182.27h-.01a2.5 2.5 0 0 1-.011-5zm18.441-3.586a54.874 54.874 0 0 0 4.333-1.916 2.5 2.5 0 0 1 2.207 4.486 60.176 60.176 0 0 1-4.727 2.088 2.45 2.45 0 0 1-.907.173 2.5 2.5 0 0 1-.9-4.828zm60.871-94.195a2.5 2.5 0 0 1-2.5-2.5c0-5.517-3.362-10-7.492-10a2.5 2.5 0 0 1 0-5c6.885 0 12.487 6.729 12.487 15a2.5 2.5 0 0 1-2.493 2.503zM256.108 677.59a2.5 2.5 0 0 1 2.5 2.5 7.454 7.454 0 0 0 1.11 3.909h-5.471a12.453 12.453 0 0 1-.634-3.909 2.5 2.5 0 0 1 2.495-2.5zm132.362-15a2.5 2.5 0 1 1 4.995 0A27.47 27.47 0 0 1 383.2 684h-10.318a22.539 22.539 0 0 0 15.588-21.414zm4.995 20A2.491 2.491 0 0 1 395.7 684h-4.473a2.491 2.491 0 0 1 2.238-1.409z" transform="translate(-250.062 -549.031)" fill-rule="evenodd" opacity=".05"/></svg>