<svg version="1.1" id="Layer_1" xmlns="http://www.w3.org/2000/svg" x="0" y="0" width="36" height="41" xml:space="preserve"><style type="text/css">.st0{fill:#fff}</style><path class="st0" d="M7.7-.1C6.3-.1 5.1 1 5.1 2.5v36c0 1.4 1.2 2.6 2.6 2.6h25.7c1.4 0 2.6-1.2 2.6-2.6V10.2L25.7-.1h-18z"/><path d="M28.3 10.2H36L25.7-.1v7.7c0 1.4 1.2 2.6 2.6 2.6z" opacity=".1"/><path d="M30.9 33.3c0 .7-.6 1.3-1.3 1.3H1.3C.6 34.6 0 34 0 33.3V20.5c0-.7.6-1.3 1.3-1.3h28.3c.7 0 1.3.6 1.3 1.3v12.8z" fill="#84bd5a"/><path class="st0" d="M9 26.1l1.8-2.2c.5-.7 1.6.2 1 .9-.6.7-1.3 1.5-1.9 2.3l2.1 2.6c.6.8-.6 1.5-1.1.7L9 28l-1.9 2.5c-.5.7-1.7-.1-1.1-.8l2.1-2.6c-.6-.8-1.3-1.6-1.9-2.3-.6-.8.6-1.6 1-.8L9 26.1zm4.3-1.9c0-.3.3-.6.6-.6s.6.3.6.6v5.2h2.8c1 0 1 1.3 0 1.3h-3.4c-.4 0-.6-.3-.6-.6v-5.9zm6 1c.2-2 3.2-2.4 4.7-1.3.7.6 0 1.5-.7 1-.8-.5-2.5-.7-2.7.4-.3 1.7 4.2.7 4.1 3.5-.1 2.6-3.9 2.7-5.3 1.5-.3-.3-.3-.7-.1-1 .3-.3.6-.4.9-.1.8.6 3 1 3.2-.5-.2-1.5-4.4-.6-4.1-3.5z"/></svg>