<svg width="174" height="175" fill="none" xmlns="http://www.w3.org/2000/svg"><ellipse cx="87" cy="87.5" rx="87" ry="87.5" fill="#1B1D22"/><path d="M35.885 158.305a86.724 86.724 0 0037.507 15.618 86.519 86.519 0 0040.471-3.198 86.912 86.912 0 0034.621-21.319 87.582 87.582 0 0021.235-34.797 87.981 87.981 0 003.225-40.7 87.776 87.776 0 00-15.487-37.74A87.134 87.134 0 00126.63 9.605 86.6 86.6 0 0087.174 0L87 87.5l-51.115 70.805z" fill="#EC5C29"/><path d="M29.665 87.074a.403.403 0 01-.266-.095.403.403 0 01-.095-.266v-.703l7.201-9.025a.387.387 0 01.285-.114h.38c.101 0 .184.038.247.114a.306.306 0 01.114.247l.019 8.683h1.539c.101 0 .184.032.247.095a.306.306 0 01.114.247v.418c0 .101-.038.19-.114.266a.334.334 0 01-.247.095H37.55v2.603a.345.345 0 01-.114.247.345.345 0 01-.247.114h-.646a.345.345 0 01-.247-.114.345.345 0 01-.114-.247v-2.565h-6.517zm1.235-1.178h5.358v-6.612L30.9 85.896zm18.638 2.546c-.798 1.165-1.932 1.748-3.401 1.748-1.47 0-2.61-.583-3.42-1.748-.798-1.178-1.197-2.812-1.197-4.902 0-2.09.399-3.718 1.197-4.883.81-1.178 1.95-1.767 3.42-1.767s2.603.589 3.4 1.767c.812 1.165 1.217 2.793 1.217 4.883s-.405 3.724-1.216 4.902zm-5.833-.893c.57.937 1.38 1.406 2.432 1.406 1.051 0 1.855-.469 2.413-1.406.57-.937.855-2.274.855-4.009 0-1.723-.285-3.053-.855-3.99-.57-.95-1.374-1.425-2.413-1.425-1.039 0-1.843.475-2.413 1.425-.57.937-.855 2.267-.855 3.99 0 1.735.279 3.072.836 4.009zm13.468-6.669a2.456 2.456 0 01-1.805.741 2.52 2.52 0 01-1.824-.741 2.52 2.52 0 01-.741-1.824c0-.71.247-1.311.74-1.805a2.488 2.488 0 011.825-.76c.709 0 1.31.253 1.805.76.506.494.76 1.096.76 1.805a2.49 2.49 0 01-.76 1.824zm-2.603 8.607l6.517-12.597a.358.358 0 01.323-.19h.304c.139 0 .24.057.304.171.076.101.082.215.019.342L55.482 89.81c-.064.127-.171.19-.323.19h-.266a.38.38 0 01-.323-.152.367.367 0 010-.361zm.798-8.949c.392 0 .728-.14 1.007-.418.291-.291.437-.646.437-1.064 0-.393-.146-.728-.437-1.007a1.343 1.343 0 00-1.007-.437c-.418 0-.773.146-1.064.437a1.372 1.372 0 00-.418 1.007c0 .418.139.773.418 1.064a1.48 1.48 0 001.064.418zm4.18 8.93a2.52 2.52 0 01-.741-1.824c0-.71.247-1.311.74-1.805a2.488 2.488 0 011.825-.76c.709 0 1.31.253 1.805.76.506.494.76 1.096.76 1.805a2.49 2.49 0 01-.76 1.824 2.456 2.456 0 01-1.805.741 2.52 2.52 0 01-1.824-.741zm.342-1.824c0 .418.139.773.418 1.064a1.48 1.48 0 001.064.418c.392 0 .728-.14 1.007-.418.291-.291.437-.646.437-1.064 0-.393-.146-.728-.437-1.007a1.343 1.343 0 00-1.007-.437c-.418 0-.773.146-1.064.437a1.372 1.372 0 00-.418 1.007zm51.117-2.869c0-.963.158-1.868.475-2.717.317-.849.703-1.552 1.159-2.109.456-.57.988-1.09 1.596-1.558.621-.481 1.159-.842 1.615-1.083a14.1 14.1 0 011.406-.665c.19-.076.329-.013.418.19l.209.456c.114.266 0 .45-.342.551-.19.063-.45.184-.779.361-.317.165-.69.399-1.121.703-.431.291-.842.614-1.235.969a7.48 7.48 0 00-1.064 1.254 4.688 4.688 0 00-.684 1.444c.089-.063.215-.14.38-.228.177-.101.519-.228 1.026-.38a4.783 4.783 0 011.482-.247c1.115 0 2.071.38 2.869 1.14.811.76 1.216 1.754 1.216 2.983 0 1.19-.418 2.217-1.254 3.078-.823.849-1.805 1.273-2.945 1.273-1.469 0-2.578-.5-3.325-1.501-.735-1-1.102-2.305-1.102-3.914zm4.427 4.161c.798 0 1.469-.298 2.014-.893a3.008 3.008 0 00.836-2.128c0-.823-.279-1.52-.836-2.09a2.707 2.707 0 00-2.033-.874c-.519 0-1.032.108-1.539.323-.494.203-.861.405-1.102.608l-.361.304c-.114.481-.127 1-.038 1.558.101.545.253 1.058.456 1.539.203.469.532.861.988 1.178.456.317.994.475 1.615.475zm14.287-.494c-.798 1.165-1.931 1.748-3.401 1.748-1.469 0-2.609-.583-3.42-1.748-.798-1.178-1.197-2.812-1.197-4.902 0-2.09.399-3.718 1.197-4.883.811-1.178 1.951-1.767 3.42-1.767 1.47 0 2.603.589 3.401 1.767.811 1.165 1.216 2.793 1.216 4.883s-.405 3.724-1.216 4.902zm-5.833-.893c.57.937 1.381 1.406 2.432 1.406 1.052 0 1.856-.469 2.413-1.406.57-.937.855-2.274.855-4.009 0-1.723-.285-3.053-.855-3.99-.57-.95-1.374-1.425-2.413-1.425-1.038 0-1.843.475-2.413 1.425-.57.937-.855 2.267-.855 3.99 0 1.735.279 3.072.836 4.009zm13.468-6.669a2.455 2.455 0 01-1.805.741 2.52 2.52 0 01-1.824-.741 2.52 2.52 0 01-.741-1.824c0-.71.247-1.311.741-1.805a2.489 2.489 0 011.824-.76c.71 0 1.311.253 1.805.76.507.494.76 1.096.76 1.805 0 .71-.253 1.317-.76 1.824zm-2.603 8.607l6.517-12.597a.358.358 0 01.323-.19h.304c.14 0 .241.057.304.171.076.101.083.215.019.342l-6.555 12.597c-.063.127-.171.19-.323.19h-.266a.38.38 0 01-.323-.152.368.368 0 010-.361zm.798-8.949c.393 0 .729-.14 1.007-.418.292-.291.437-.646.437-1.064a1.34 1.34 0 00-.437-1.007 1.342 1.342 0 00-1.007-.437 1.45 1.45 0 00-1.064.437 1.375 1.375 0 00-.418 1.007c0 .418.14.773.418 1.064.292.279.646.418 1.064.418zm4.18 8.93a2.52 2.52 0 01-.741-1.824c0-.71.247-1.311.741-1.805a2.489 2.489 0 011.824-.76c.71 0 1.311.253 1.805.76.507.494.76 1.096.76 1.805 0 .71-.253 1.317-.76 1.824a2.455 2.455 0 01-1.805.741 2.52 2.52 0 01-1.824-.741zm.342-1.824c0 .418.14.773.418 1.064.292.279.646.418 1.064.418.393 0 .729-.14 1.007-.418.292-.291.437-.646.437-1.064a1.34 1.34 0 00-.437-1.007 1.342 1.342 0 00-1.007-.437 1.45 1.45 0 00-1.064.437 1.375 1.375 0 00-.418 1.007z" fill="#fff"/></svg>