<svg version="1.1" id="Object" xmlns="http://www.w3.org/2000/svg" x="0" y="0" width="174.8" height="174.8" xml:space="preserve"><path d="M87.4-.1C39.1-.1-.1 39.1-.1 87.4c0 29.6 14.7 55.7 37.1 71.5l50.4-71.5V-.1z" fill="#3f2a69"/><path d="M174.9 87.4c0-48.3-39.2-87.5-87.5-87.5v87.5L37 158.9c14.2 10 31.6 16 50.4 16 48.3 0 87.5-39.2 87.5-87.5z" fill="#f8ac34"/><path d="M36.3 90.2v-3.4h-5.8v-1.1l5.6-8h1.8v7.8h1.7v1.3h-1.7v3.4h-1.6zm0-4.7v-4.2c0-.7 0-1.3.1-2h-.1c-.4.7-.7 1.3-1 1.8l-3.1 4.2h4.1zm13.4-1.7c0 4.2-1.6 6.6-4.3 6.6-2.4 0-4.1-2.3-4.1-6.4 0-4.2 1.8-6.5 4.3-6.5 2.6 0 4.1 2.4 4.1 6.3zM43 84c0 3.2 1 5.1 2.5 5.1 1.7 0 2.6-2 2.6-5.2 0-3.1-.8-5.1-2.5-5.1-1.6 0-2.6 1.8-2.6 5.2zm14.4-2.8c0 2.6-1.4 3.9-3 3.9s-2.9-1.2-2.9-3.8c0-2.5 1.4-3.9 3-3.9 1.8.1 2.9 1.5 2.9 3.8zm-4.6.2c0 1.6.6 2.8 1.6 2.8 1.1 0 1.6-1.2 1.6-2.8 0-1.5-.4-2.8-1.6-2.8-1-.1-1.6 1.2-1.6 2.8zm1.5 9l7.3-12.9h1.1l-7.3 12.9h-1.1zm11.2-4c0 2.6-1.4 3.9-3 3.9s-2.9-1.2-2.9-3.7 1.4-3.9 3-3.9c1.8 0 2.9 1.3 2.9 3.7zm-4.5.1c0 1.6.6 2.8 1.6 2.8 1.1 0 1.6-1.2 1.6-2.8 0-1.5-.4-2.8-1.6-2.8-1.1 0-1.6 1.2-1.6 2.8zm54.9-7.6c-.3 0-.8 0-1.3.1-2.7.4-4.1 2.4-4.4 4.5h.1c.6-.8 1.6-1.5 3-1.5 2.2 0 3.8 1.6 3.8 4.1 0 2.3-1.6 4.4-4.2 4.4-2.7 0-4.5-2.1-4.5-5.4 0-2.5.9-4.4 2.1-5.7 1-1 2.4-1.7 4-1.9.5-.1.9-.1 1.2-.1v1.5zm-.5 7.2c0-1.8-1-2.9-2.6-2.9-1 0-2 .6-2.4 1.6-.1.2-.2.4-.2.8 0 2.1 1 3.6 2.8 3.6 1.4 0 2.4-1.3 2.4-3.1zm12.1-2.3c0 4.3-1.6 6.7-4.4 6.7-2.5 0-4.1-2.3-4.2-6.5 0-4.2 1.8-6.6 4.4-6.6 2.7 0 4.2 2.4 4.2 6.4zm-6.8.2c0 3.3 1 5.1 2.6 5.1 1.7 0 2.6-2 2.6-5.3 0-3.1-.8-5.1-2.6-5.1-1.5.1-2.6 1.9-2.6 5.3zm14.6-2.8c0 2.7-1.4 4-3 4s-2.9-1.3-3-3.8c0-2.5 1.4-3.9 3-3.9 1.8-.1 3 1.3 3 3.7zm-4.7.1c0 1.6.6 2.8 1.6 2.8 1.1 0 1.6-1.2 1.6-2.9 0-1.5-.4-2.8-1.6-2.8-1 .1-1.6 1.3-1.6 2.9zm1.5 9.2l7.4-13h1.1l-7.4 13h-1.1zm11.4-4.1c0 2.7-1.4 4-3 4s-2.9-1.3-3-3.8c0-2.5 1.4-4 3-4 1.8.1 3 1.4 3 3.8zm-4.6.1c0 1.6.6 2.8 1.7 2.8s1.6-1.2 1.6-2.9c0-1.5-.4-2.8-1.6-2.8-1.2.1-1.7 1.4-1.7 2.9z" fill="#fff"/></svg>