<svg width="209" height="163" fill="none" xmlns="http://www.w3.org/2000/svg"><path fill="#6D6D6D" d="M3 4h11v1H3zm0 31h11v1H3zm0 30h11v1H3zm0 31h11v1H3zm0 31h11v1H3zm-3 31h209v1H0z"/><path fill="#6D6D6D" d="M31.5 153v10h-1v-10zM9 5v153H8V5zm63.5 148v10h-1v-10zm41 0v10h-1v-10zm41 0v10h-1v-10zm41 0v10h-1v-10z"/><path fill="#1B1D22" d="M24 111h7v42h-7zm41-21h7v63h-7zm41-23h7v86h-7zm41-20h7v106h-7zm41-19h7v125h-7z"/><path fill="#EC5C29" d="M31 85h7v68h-7zm41-21h7v89h-7zm41-23h7v112h-7zm41-23h7v135h-7zm41-18h7v153h-7z"/></svg>