<svg version="1.1" id="Object" xmlns="http://www.w3.org/2000/svg" x="0" y="0" width="256" height="198.6" xml:space="preserve"><style type="text/css">.st0,.st1{opacity:.9;fill:#3f2a69}.st1{fill:#f8ac34}</style><path class="st0" d="M28.6 134.4h9V187h-9z"/><path class="st1" d="M37.6 103h9v84.4h-9z"/><path class="st0" d="M78.6 109.4h9v78h-9z"/><path class="st1" d="M87.6 77.5h9v109.9h-9z"/><path class="st0" d="M128.5 81.3h9v106.2h-9z"/><path class="st1" d="M137.5 49.4h9v138.1h-9z"/><path class="st0" d="M178.8 56.1h9v131.3h-9z"/><path class="st1" d="M187.9 24.2h9v163.2h-9z"/><path class="st0" d="M228.4 32.6h9v154.8h-9z"/><path class="st1" d="M237.4.7h9v186.7h-9z"/><path fill="#959595" d="M255.4 192.8H10.5V5.7h.8V192h244.1z"/><path d="M-.6 192h11.5v.9H-.6zm5.8-37.4h11.5v.9H5.2zm0-37.3h11.5v.9H5.2zm0-37.4h11.5v.9H5.2zm0-37.3h11.5v.9H5.2zm0-37.4h11.5v.9H5.2zm32 181.5h.9v11.5h-.9zm50 0h.9v11.5h-.9zm49.9 0h.9v11.5h-.9zm50.3 0h.9v11.5h-.9zm49.6 0h.9v11.5h-.9z" fill="#666"/></svg>