<svg version="1.1" id="Layer_1" xmlns="http://www.w3.org/2000/svg" x="0" y="0" viewBox="0 0 30 30" xml:space="preserve"><path d="M24.5 18.4h-.4c-.3 0-.5-.2-.5-.5v-.4c0-.2-.2-.5-.4-.5-.3 0-.6.2-.6.5v.4c0 .3-.3.6-.6.6h-.3c-.2 0-.5.2-.5.4 0 .3.2.6.5.6h.4c.3 0 .5.2.5.5v.4c0 .2.2.5.4.5.3 0 .6-.2.6-.5V20c0-.3.2-.5.5-.5h.4c.3 0 .5-.3.5-.6s-.3-.5-.5-.5z" fill="#dad0e6"/><path d="M9.6 12.6V14c0 .2-.2.4-.4.4H6.4c-.2 0-.4-.2-.4-.4V6.3c0-.3.2-.5.5-.5h2.3c.3 0 .6.3.6.6v.8s2.1-2.8 5.9-1.4c3.5 1.3 4.6 1.5 5.1.7.1-.2.3-.2.5-.2H23c.1 0 .2.1.2.2 0 .9-.4 4.2-3.6 7.7-1.3 1.5-1.6 6.5-1.6 8.6 0 .5-.4.9-.9.9H11c-.5 0-.9-.4-.9-.9.1-1.8.6-6 3.9-8.4 4-3 3.6-3.6 3.6-3.6s-3.6 0-5.6-.3c-2.5-.6-2.4 2.1-2.4 2.1z" fill="none" stroke="#dad0e6" stroke-width="1.641" stroke-linecap="round" stroke-linejoin="round" stroke-miterlimit="10"/></svg>