<svg version="1.1" id="Layer_1" xmlns="http://www.w3.org/2000/svg" x="0" y="0" width="160" height="160" xml:space="preserve"><path fill="#52489C" d="M152 80c0 39.7-32.3 71.9-71.9 71.9C40.3 152 8 119.7 8 80S40.3 8 80 8s72 32.3 72 72z"/><path fill="#CDC6FB" d="M80 0C35.9 0 0 35.9 0 80s35.9 80 80 80 80-35.9 80-80S124.1 0 80 0zm0 152c-39.7 0-72-32.3-72-72S40.3 8 80 8s72 32.3 72 72-32.3 72-72 72z"/><path fill="#F3D833" d="M103 57.5c0-12.7-10.3-23-23-23s-23 10.3-23 23c0 11.4 8.3 20.8 19.1 22.7v40.6c0 2.6 2.1 4.7 4.7 4.7s4.7-2.1 4.7-4.7H93c1.1 0 2.1-.9 2.1-2.1v-6.9c0-1.2-.9-2.1-2.1-2.1h-1.2v-5.3c0-1.2-.9-2.1-2.1-2.1h-4.2V79.9c10-2.4 17.5-11.5 17.5-22.4zM80 71.2c-1.4 0-2.7-.2-3.9-.6-5.7-1.7-9.8-6.9-9.8-13.1 0-7.5 6.1-13.7 13.7-13.7 7.5 0 13.7 6.1 13.7 13.7 0 5.6-3.4 10.4-8.2 12.5-1.7.8-3.6 1.2-5.5 1.2z"/><path fill="#E8B341" d="M93.7 57.5c0 5.6-3.4 10.4-8.2 12.5-1.7.7-3.5 1.1-5.4 1.1-1.4 0-2.7-.2-3.9-.6-5.7-1.7-9.8-6.9-9.8-13.1 0-7.5 6.1-13.7 13.7-13.7 7.4.2 13.6 6.3 13.6 13.8z"/></svg>