<svg version="1.1" id="Layer_1" xmlns="http://www.w3.org/2000/svg" x="0" y="0" width="160" height="160" xml:space="preserve"><path fill="#CDC6FB" d="M80 0C35.9 0 0 35.9 0 80s35.9 80 80 80 80-35.9 80-80S124.1 0 80 0zm0 152c-39.7 0-72-32.3-72-72S40.3 8 80 8s72 32.3 72 71.9S119.7 152 80 152z"/><path fill="#52489C" d="M80 8C40.3 8 8 40.3 8 80s32.3 72 71.9 72 72-32.3 72-72S119.7 8 80 8zm9.2 67.9c-4.3-1.1-6.9-5.6-5.7-9.9 1.1-4.3 5.6-6.8 9.9-5.7 4.3 1.2 6.9 5.6 5.7 9.9-1.1 4.3-5.6 6.8-9.9 5.7z"/><path fill="#AAD7D1" d="M113.1 49.2c-.2-1.6-1.7-2.9-3.3-3-3.5-.2-9.8 0-17.3 2.6-3.7 1.3-7.6 3.2-11.6 5.9C77 57.4 73 61 69.3 65.8c0 0-1.9 2.5-4 6.2-4.4-.3-12.2.8-18.7 10.3-.6.8.2 1.9 1.2 1.6 2.9-.9 7.6-1.7 12.3.1-.2.6-.3 1.2-.4 1.8 0 0 1.4.6 3.4 2L61.9 90c-.2.3-.1.7.1.9l6.1 6c.2.2.6.3.9.1l2.1-1.4c.8 1.1 1.6 2.3 2.3 3.7 0 0 .7 0 2-.3 2 4.7 1.2 9.4.3 12.4-.3 1 .8 1.8 1.6 1.2 9.3-6.5 10.4-14.1 10.2-18.6 2.2-1.3 4.5-2.9 6.9-5 6.7-5.7 13.1-13.4 16.6-22.1 2.1-5.6 3.1-11.6 2.1-17.7zm-14 21c-1.2 4.3-5.6 6.8-9.9 5.7-4.3-1.1-6.9-5.6-5.7-9.9 1.1-4.3 5.6-6.8 9.9-5.7 4.3 1.2 6.9 5.6 5.7 9.9z"/><path fill="#E8B341" d="M66.1 96.6c-.1.2-.1.4-.3.5 0 0-3.5 4.1-8.1 3.6-.6-4.6 3.5-8.1 3.5-8.1.1-.1.3-.1.4-.2-1.4-.4-2.8-.3-3.7.6 0 0-6.8 5.9-5.8 13.5 7.7.9 13.5-5.9 13.5-5.9.9-1 1.1-2.5.5-4z"/><path fill="#52489C" d="M99.1 70.2c-1.2 4.3-5.6 6.8-9.9 5.7-4.3-1.1-6.9-5.6-5.7-9.9 1.1-4.3 5.6-6.8 9.9-5.7 4.3 1.2 6.9 5.6 5.7 9.9z"/></svg>