<svg version="1.1" id="Layer_1" xmlns="http://www.w3.org/2000/svg" x="0" y="0" width="160" height="160" xml:space="preserve"><path fill="#5FA871" d="M79.9 97.7l.1.1v-.1h-.1zm0 0l.1.1v-.1h-.1zm0 0l.1.1v-.1h-.1zm0 0l.1.1v-.1h-.1zm0 0l.1.1v-.1h-.1zm0 0l.1.1v-.1h-.1zm0 0l.1.1v-.1h-.1zm0 0l.1.1v-.1h-.1zm0 0l.1.1v-.1h-.1z"/><path fill="#9FCBAA" d="M80 0C35.9 0 0 35.9 0 80s35.9 80 80 80 80-35.9 80-80S124.1 0 80 0zm0 151.9c-39.7 0-72-32.2-72-71.9S40.3 8.1 80 8.1s72 32.3 72 71.9-32.3 71.9-72 71.9z"/><path fill="#5FA871" d="M80 8.1C40.3 8.1 8 40.3 8 80s32.3 71.9 71.9 71.9c39.7 0 72-32.3 72-71.9S119.7 8.1 80 8.1zm25.1 75.1c-1.2 2.1-4.9 2.3-6.6 4-.5.5-.9 1.2-1.2 1.9l10.7 23.1-11.3-1.2-6.3 9.4-10.5-22.6-10.5 22.5-6.3-9.4-11.3 1.2 10.8-23.2c-.3-.7-.7-1.3-1.1-1.7-1.7-1.7-5.4-1.9-6.6-4-1.2-2.1.5-5.4-.2-7.7-.6-2.3-3.7-4.3-3.7-6.8s3.1-4.5 3.7-6.8c.6-2.4-1-5.7.2-7.7 1.2-2.1 4.9-2.3 6.6-4 1.7-1.7 1.9-5.4 4-6.6 2.1-1.2 5.4.5 7.7-.2 2.3-.6 4.3-3.7 6.8-3.7s4.5 3.1 6.8 3.7c2.4.6 5.7-1 7.7.2 2.1 1.2 2.3 4.9 4 6.6 1.7 1.7 5.4 1.9 6.6 4 1.2 2.1-.5 5.4.2 7.7.6 2.3 3.7 4.3 3.7 6.8s-3.1 4.5-3.7 6.8c-.6 2.3 1 5.6-.2 7.7z"/><path fill="#F2D733" d="M80 97.7v.1l-.1-.1h.1z"/><path fill="#F2D733" d="M80 97.7v.1l-.1-.1h.1z"/><path fill="#F2D733" d="M98.5 87.2c1.7-1.7 5.4-1.9 6.6-4 1.2-2.1-.5-5.4.2-7.7.6-2.3 3.7-4.3 3.7-6.8s-3.1-4.5-3.7-6.8c-.6-2.4 1-5.7-.2-7.7-1.2-2.1-4.9-2.3-6.6-4-1.7-1.7-1.9-5.4-4-6.6-2.1-1.2-5.4.5-7.7-.2-2.3-.6-4.3-3.7-6.8-3.7s-4.5 3.1-6.8 3.7c-2.4.6-5.7-1-7.7.2-2.1 1.2-2.3 4.9-4 6.6-1.7 1.7-5.4 1.9-6.6 4-1.2 2.1.5 5.4-.2 7.7-.6 2.3-3.7 4.3-3.7 6.8s3.1 4.5 3.7 6.8c.6 2.4-1 5.7.2 7.7 1.2 2.1 4.9 2.3 6.6 4 .5.5.8 1.1 1.1 1.7l-10.8 23.2 11.3-1.2 6.3 9.4 10.5-22.5-.1-.1h.1v.1l10.5 22.5 6.3-9.4 11.3 1.2-10.7-23c.4-.8.7-1.4 1.2-1.9zm-4.4-5.1c-2.5 2.6-5.8 4.6-9.4 5.5-1.5.4-3.1.6-4.7.6-1.7 0-3.3-.2-4.8-.6-3.6-.9-6.9-2.9-9.4-5.5-3.3-3.5-5.3-8.2-5.3-13.4 0-10.8 8.7-19.5 19.5-19.5s19.5 8.7 19.5 19.5c0 5.2-2 10-5.4 13.4z"/><path fill="#E8B341" d="M80 49.1c-10.8 0-19.5 8.7-19.5 19.5 0 5.2 2 9.9 5.3 13.4 2.5 2.7 5.7 4.6 9.4 5.5 1.6.4 3.2.6 4.8.6 1.6 0 3.2-.2 4.7-.6 3.7-.9 6.9-2.8 9.4-5.5 3.4-3.5 5.4-8.2 5.4-13.5 0-10.6-8.7-19.4-19.5-19.4zM90.6 70c0 1.2-.2 2.3-.7 3.2-.8 1.6-2.2 2.6-4.2 3-.5.1-1 .1-1.6.1h-8.4c-.6 0-1.1 0-1.6-.1-2-.4-3.4-1.5-4.1-3.3-.3-.9-.5-1.9-.5-3v-7.3h1.6c1.2 0 2 .3 2.4.7.4.5.6 1.1.6 1.9 0 1.7.6 2.4 2 2.4 1.2 0 1.8-.8 1.8-2.4v-2.7h1.6c2 0 2.8.8 2.8 2.7v.1c0 1.6.6 2.3 1.9 2.3 1.3 0 1.9-.7 1.9-2.4v-2.7h1.6c2 0 3 .9 3 2.7V70z"/><path fill="#F2D733" d="M90.6 65.2V70c0 1.2-.2 2.3-.7 3.2-.8 1.6-2.2 2.6-4.2 3-.5.1-1 .1-1.6.1h-8.4c-.6 0-1.1 0-1.6-.1-2-.4-3.4-1.5-4.1-3.3-.3-.9-.5-1.9-.5-3v-7.3h1.6c1.2 0 2 .3 2.4.7.4.5.6 1.1.6 1.9 0 1.7.6 2.4 2 2.4 1.2 0 1.8-.8 1.8-2.4v-2.7h1.6c2 0 2.8.8 2.8 2.7v.1c0 1.6.6 2.3 1.9 2.3 1.3 0 1.9-.7 1.9-2.4v-2.7h1.6c1.9.1 2.9 1 2.9 2.7z"/></svg>