<svg version="1.1" id="Layer_1" xmlns="http://www.w3.org/2000/svg" x="0" y="0" width="160" height="160" xml:space="preserve"><path fill="#52489C" d="M80 8.1C40.3 8.1 8 40.3 8 80s32.3 71.9 71.9 71.9 72-32.3 72-71.9S119.7 8.1 80 8.1zm7.8 54c-1.1 4.3-5.6 6.8-9.9 5.7-4.3-1.1-6.9-5.6-5.7-9.9s5.6-6.8 9.9-5.7c4.3 1.2 6.9 5.6 5.7 9.9z"/><path fill="#CDC6FB" d="M80 0C35.9 0 0 35.9 0 80s35.9 80 80 80 80-35.9 80-80S124.1 0 80 0zm0 151.9c-39.7 0-72-32.2-72-71.9S40.3 8.1 80 8.1s72 32.3 72 71.9-32.3 71.9-72 71.9z"/><path fill="#AAD7D1" d="M95.6 81c.6-2.5 1.1-5.2 1.3-8.4.7-8.8-.2-18.8-3.9-27.3-2.4-5.5-5.9-10.4-10.8-14.1-1.3-.9-3.3-.9-4.5.2-2.6 2.3-7 7-10.4 14-2.7 5.6-4.8 12.8-4.8 21.6 0 2.2.1 4.5.4 6.9 0 0 .4 3.1 1.5 7.2-3.3 2.9-8.1 9.2-5.9 20.5.2 1 1.5 1.2 2 .3 1.4-2.7 4.1-6.6 8.8-8.6.3.6.6 1.1 1 1.6 0 0 1.5-.6 3.9-1l.6 2.4c.1.3.4.6.7.6H84c.3 0 .6-.2.7-.6l.5-2.5c1.4.2 2.8.5 4.2 1 0 0 .5-.6 1.2-1.6 4.7 1.9 7.5 5.8 8.9 8.5.5.9 1.8.7 2-.3 2-11.1-2.6-17.4-5.9-20.4zm-7.8-18.9c-1.1 4.3-5.6 6.8-9.9 5.7-4.3-1.1-6.9-5.6-5.7-9.9s5.6-6.8 9.9-5.7c4.3 1.2 6.9 5.6 5.7 9.9z"/><path fill="#52489C" d="M87.8 62.1c-1.1 4.3-5.6 6.8-9.9 5.7-4.3-1.1-6.9-5.6-5.7-9.9s5.6-6.8 9.9-5.7c4.3 1.2 6.9 5.6 5.7 9.9z"/><path fill="#CDC6FB" d="M111.7 117.1H48.3c-2.3 0-4.2-1.9-4.2-4.2 0-2.3 1.9-4.2 4.2-4.2h63.4c2.3 0 4.2 1.9 4.2 4.2s-1.9 4.2-4.2 4.2z"/></svg>