<svg xmlns="http://www.w3.org/2000/svg" width="26" height="17" viewBox="0 0 26 17">
  <metadata><?xpacket begin="﻿" id="W5M0MpCehiHzreSzNTczkc9d"?>
<x:xmpmeta xmlns:x="adobe:ns:meta/" x:xmptk="Adobe XMP Core 5.6-c140 79.160451, 2017/05/06-01:08:21        ">
   <rdf:RDF xmlns:rdf="http://www.w3.org/1999/02/22-rdf-syntax-ns#">
      <rdf:Description rdf:about=""/>
   </rdf:RDF>
</x:xmpmeta>
                                                                                                    
                                                                                                    
                                                                                                    
                                                                                                    
                                                                                                    
                                                                                                    
                                                                                                    
                                                                                                    
                                                                                                    
                                                                                                    
                                                                                                    
                                                                                                    
                                                                                                    
                                                                                                    
                                                                                                    
                                                                                                    
                                                                                                    
                                                                                                    
                                                                                                    
                                                                                                    
                           
<?xpacket end="w"?></metadata>
<defs>
    <style>
      .cls-1 {
        fill-rule: evenodd;
      }
    </style>
  </defs>
  <path id="_13" data-name="13" class="cls-1" d="M851.133,116l-3.126-1.92h-4l-3.13,1.92L833,103.861l6.164-3.789L842,104V99h8v5l2.822-3.928L859,103.861Zm-8.864-7.742-2.667-2.193-0.868.541,1.186,5.335,0.919-.566-0.375-1.591,1.224-.756,0.581,0.5v-1.275Zm5.516-2.688a15.618,15.618,0,0,0-1.791-1.738,15.549,15.549,0,0,0-1.8,1.738,1.521,1.521,0,0,0-.233.853,1.1,1.1,0,0,0,1.137,1.162,0.936,0.936,0,0,0,.759-0.3l-0.213.8h0.686l-0.219-.823a0.931,0.931,0,0,0,.774.329,1.1,1.1,0,0,0,1.134-1.166A1.54,1.54,0,0,0,847.785,105.57Zm4.6,0.494-2.868,2.335v1.28l0.782-.651,1.246,0.756-0.371,1.591,0.917,0.566,1.183-5.335Zm-0.611,2.85-0.787-.483,0.927-.757c0.057-.05.11-0.091,0.169-0.145-0.02.077-.031,0.142-0.05,0.224Zm-11.789-1.161c-0.019-.082-0.03-0.147-0.05-0.224,0.06,0.054.112,0.095,0.169,0.144l0.927,0.758-0.787.483Z" transform="translate(-833 -99)"/>
</svg>
