<svg xmlns="http://www.w3.org/2000/svg" width="17" height="20" viewBox="0 0 17 20">
  <metadata><?xpacket begin="﻿" id="W5M0MpCehiHzreSzNTczkc9d"?>
<x:xmpmeta xmlns:x="adobe:ns:meta/" x:xmptk="Adobe XMP Core 5.6-c140 79.160451, 2017/05/06-01:08:21        ">
   <rdf:RDF xmlns:rdf="http://www.w3.org/1999/02/22-rdf-syntax-ns#">
      <rdf:Description rdf:about=""/>
   </rdf:RDF>
</x:xmpmeta>
                                                                                                    
                                                                                                    
                                                                                                    
                                                                                                    
                                                                                                    
                                                                                                    
                                                                                                    
                                                                                                    
                                                                                                    
                                                                                                    
                                                                                                    
                                                                                                    
                                                                                                    
                                                                                                    
                                                                                                    
                                                                                                    
                                                                                                    
                                                                                                    
                                                                                                    
                                                                                                    
                           
<?xpacket end="w"?></metadata>
<defs>
    <style>
      .cls-1 {
        fill-rule: evenodd;
      }
    </style>
  </defs>
  <path id="_14" data-name="14" class="cls-1" d="M851.253,156.987a3.621,3.621,0,0,0-.583.047l-2.533-5.795a5.219,5.219,0,0,0,2.991-.979c0.921-.953.976-3.5,0.979-3.79l0-.462-0.446,0c-0.278,0-2.741.06-3.662,1.014a0.833,0.833,0,1,1-1.323,0c-0.922-.954-3.385-1.01-3.663-1.014l-0.446,0,0,0.462c0,0.287.058,2.837,0.979,3.79a5.123,5.123,0,0,0,2.923.973l-3.979,7.1a3.6,3.6,0,0,0-.753-0.079,3.873,3.873,0,1,0,3.741,3.871,3.915,3.915,0,0,0-1.405-3.02l3.134-5.588,1.841,4.213a3.91,3.91,0,0,0-1.546,3.132A3.743,3.743,0,1,0,851.253,156.987Z" transform="translate(-838 -146)"/>
</svg>
