<svg xmlns="http://www.w3.org/2000/svg" width="20" height="20" viewBox="0 0 20 20">
  <metadata><?xpacket begin="﻿" id="W5M0MpCehiHzreSzNTczkc9d"?>
<x:xmpmeta xmlns:x="adobe:ns:meta/" x:xmptk="Adobe XMP Core 5.6-c140 79.160451, 2017/05/06-01:08:21        ">
   <rdf:RDF xmlns:rdf="http://www.w3.org/1999/02/22-rdf-syntax-ns#">
      <rdf:Description rdf:about=""/>
   </rdf:RDF>
</x:xmpmeta>
                                                                                                    
                                                                                                    
                                                                                                    
                                                                                                    
                                                                                                    
                                                                                                    
                                                                                                    
                                                                                                    
                                                                                                    
                                                                                                    
                                                                                                    
                                                                                                    
                                                                                                    
                                                                                                    
                                                                                                    
                                                                                                    
                                                                                                    
                                                                                                    
                                                                                                    
                                                                                                    
                           
<?xpacket end="w"?></metadata>
<defs>
    <style>
      .cls-1 {
        fill-rule: evenodd;
      }
    </style>
  </defs>
  <path id="_15" data-name="15" class="cls-1" d="M844.676,196.98l0.315,0.31,0.315-.309a43.213,43.213,0,0,0,3.8-4.106,3.62,3.62,0,0,0,.549-2.007,2.741,2.741,0,0,0-2.8-2.86,2.426,2.426,0,0,0-1.852.755,2.4,2.4,0,0,0-1.848-.755,2.707,2.707,0,0,0-2.8,2.86,3.619,3.619,0,0,0,.552,2.007A43.676,43.676,0,0,0,844.676,196.98Zm0.648,2.04-0.315-.31-0.315.309a43.213,43.213,0,0,0-3.8,4.106,3.62,3.62,0,0,0-.549,2.007,2.741,2.741,0,0,0,2.8,2.86,2.426,2.426,0,0,0,1.852-.755,2.4,2.4,0,0,0,1.848.755,2.707,2.707,0,0,0,2.8-2.86,3.619,3.619,0,0,0-.552-2.007A43.676,43.676,0,0,0,845.324,199.02ZM854.237,198a2.4,2.4,0,0,0,.755-1.848,2.707,2.707,0,0,0-2.859-2.8,3.62,3.62,0,0,0-2.008.552,43.676,43.676,0,0,0-4.105,3.775l-0.31.315,0.309,0.315a43.34,43.34,0,0,0,4.106,3.8,3.626,3.626,0,0,0,2.008.548,2.74,2.74,0,0,0,2.859-2.8A2.426,2.426,0,0,0,854.237,198Zm-10.257.329,0.31-.315-0.309-.315a43.213,43.213,0,0,0-4.106-3.8,3.617,3.617,0,0,0-2.007-.549,2.741,2.741,0,0,0-2.86,2.8,2.423,2.423,0,0,0,.756,1.852,2.392,2.392,0,0,0-.756,1.848,2.707,2.707,0,0,0,2.86,2.8,3.619,3.619,0,0,0,2.007-.552A43.55,43.55,0,0,0,843.98,198.324Z" transform="translate(-835 -188)"/>
</svg>
