<svg xmlns="http://www.w3.org/2000/svg" width="20" height="20" viewBox="0 0 20 20">
  <metadata><?xpacket begin="﻿" id="W5M0MpCehiHzreSzNTczkc9d"?>
<x:xmpmeta xmlns:x="adobe:ns:meta/" x:xmptk="Adobe XMP Core 5.6-c140 79.160451, 2017/05/06-01:08:21        ">
   <rdf:RDF xmlns:rdf="http://www.w3.org/1999/02/22-rdf-syntax-ns#">
      <rdf:Description rdf:about=""/>
   </rdf:RDF>
</x:xmpmeta>
                                                                                                    
                                                                                                    
                                                                                                    
                                                                                                    
                                                                                                    
                                                                                                    
                                                                                                    
                                                                                                    
                                                                                                    
                                                                                                    
                                                                                                    
                                                                                                    
                                                                                                    
                                                                                                    
                                                                                                    
                                                                                                    
                                                                                                    
                                                                                                    
                                                                                                    
                                                                                                    
                           
<?xpacket end="w"?></metadata>
<defs>
    <style>
      .cls-1 {
        fill-rule: evenodd;
      }
    </style>
  </defs>
  <path id="_16" data-name="16" class="cls-1" d="M845.188,234.2a9.988,9.988,0,1,0,9.988,9.988A10,10,0,0,0,845.188,234.2Zm-0.8.778h1.549v1.549h-1.549v-1.549Zm7.779,9.21a6.976,6.976,0,1,1-6.976-6.975A6.984,6.984,0,0,1,852.164,244.188Zm-12.941-7.06,1.1,1.1-1.1,1.1-1.095-1.1Zm-1.725,7.835h-1.549v-1.55H837.5v1.55Zm1.725,6.286-1.095-1.1,1.095-1.095,1.1,1.095Zm6.711,2.15h-1.549v-1.55h1.549v1.55Zm5.219-2.15-1.1-1.1,1.1-1.095,1.1,1.095Zm0-11.93-1.1-1.1,1.1-1.1,1.1,1.1Zm1.668,5.644v-1.55h1.549v1.55h-1.549Zm-13.317-.775a5.685,5.685,0,1,0,5.684-5.684A5.691,5.691,0,0,0,839.5,244.188Zm6.915-2.529a1.561,1.561,0,0,1,1.613,1.654,2.247,2.247,0,0,1-.332,1.216,9.994,9.994,0,0,1-2.544,2.188,10.086,10.086,0,0,1-2.539-2.188,2.247,2.247,0,0,1-.332-1.216,1.559,1.559,0,0,1,1.611-1.654A1.436,1.436,0,0,0,846.419,241.659Z" transform="translate(-835.188 -234.188)"/>
</svg>
