<svg xmlns="http://www.w3.org/2000/svg" width="24" height="19" viewBox="0 0 24 19">
  <metadata><?xpacket begin="﻿" id="W5M0MpCehiHzreSzNTczkc9d"?>
<x:xmpmeta xmlns:x="adobe:ns:meta/" x:xmptk="Adobe XMP Core 5.6-c140 79.160451, 2017/05/06-01:08:21        ">
   <rdf:RDF xmlns:rdf="http://www.w3.org/1999/02/22-rdf-syntax-ns#">
      <rdf:Description rdf:about=""/>
   </rdf:RDF>
</x:xmpmeta>
                                                                                                    
                                                                                                    
                                                                                                    
                                                                                                    
                                                                                                    
                                                                                                    
                                                                                                    
                                                                                                    
                                                                                                    
                                                                                                    
                                                                                                    
                                                                                                    
                                                                                                    
                                                                                                    
                                                                                                    
                                                                                                    
                                                                                                    
                                                                                                    
                                                                                                    
                                                                                                    
                           
<?xpacket end="w"?></metadata>
<defs>
    <style>
      .cls-1 {
        fill-rule: evenodd;
      }
    </style>
  </defs>
  <path id="_17" data-name="17" class="cls-1" d="M1132,294a1.171,1.171,0,0,1,1,1v12a1.171,1.171,0,0,1-1,1h-20a1.171,1.171,0,0,1-1-1V295a1.171,1.171,0,0,1,1-1h20Zm-20.37-1a1.623,1.623,0,0,0-1.63,1.616v12.538a2.188,2.188,0,0,0,2,1.846h20a2.188,2.188,0,0,0,2-1.846V294.616a1.623,1.623,0,0,0-1.63-1.616h-20.74Zm6.31,19h8.12l-0.81-1.616A2.176,2.176,0,0,0,1124,310h-4a2.2,2.2,0,0,0-1.25.384Z" transform="translate(-1110 -293)"/>
</svg>
