<svg xmlns="http://www.w3.org/2000/svg" width="16" height="20" viewBox="0 0 16 20">
  <metadata><?xpacket begin="﻿" id="W5M0MpCehiHzreSzNTczkc9d"?>
<x:xmpmeta xmlns:x="adobe:ns:meta/" x:xmptk="Adobe XMP Core 5.6-c140 79.160451, 2017/05/06-01:08:21        ">
   <rdf:RDF xmlns:rdf="http://www.w3.org/1999/02/22-rdf-syntax-ns#">
      <rdf:Description rdf:about=""/>
   </rdf:RDF>
</x:xmpmeta>
                                                                                                    
                                                                                                    
                                                                                                    
                                                                                                    
                                                                                                    
                                                                                                    
                                                                                                    
                                                                                                    
                                                                                                    
                                                                                                    
                                                                                                    
                                                                                                    
                                                                                                    
                                                                                                    
                                                                                                    
                                                                                                    
                                                                                                    
                                                                                                    
                                                                                                    
                                                                                                    
                           
<?xpacket end="w"?></metadata>
<defs>
    <style>
      .cls-1 {
        fill-rule: evenodd;
      }
    </style>
  </defs>
  <path id="_20" data-name="20" class="cls-1" d="M465.3,421H450.7a0.693,0.693,0,0,1-.7-0.69v-9.655a0.692,0.692,0,0,1,.7-0.689h1.391v-3.449h0.018a5.908,5.908,0,0,1,11.79,0h0.018v3.449H465.3a0.692,0.692,0,0,1,.7.689v9.655A0.693,0.693,0,0,1,465.3,421Zm-8.347-5.137v2.378h2.086v-2.378a1.745,1.745,0,0,0,.73-1.415,1.773,1.773,0,0,0-3.546,0A1.745,1.745,0,0,0,456.957,415.863Zm3.478-9a2.435,2.435,0,0,0-4.87,0v3.1h4.87v-3.1Z" transform="translate(-450 -401)"/>
</svg>
