<svg xmlns="http://www.w3.org/2000/svg" width="13.032" height="10.657" viewBox="0 0 13.032 10.657">
  <metadata><?xpacket begin="﻿" id="W5M0MpCehiHzreSzNTczkc9d"?>
<x:xmpmeta xmlns:x="adobe:ns:meta/" x:xmptk="Adobe XMP Core 5.6-c140 79.160451, 2017/05/06-01:08:21        ">
   <rdf:RDF xmlns:rdf="http://www.w3.org/1999/02/22-rdf-syntax-ns#">
      <rdf:Description rdf:about=""/>
   </rdf:RDF>
</x:xmpmeta>
                                                                                                    
                                                                                                    
                                                                                                    
                                                                                                    
                                                                                                    
                                                                                                    
                                                                                                    
                                                                                                    
                                                                                                    
                                                                                                    
                                                                                                    
                                                                                                    
                                                                                                    
                                                                                                    
                                                                                                    
                                                                                                    
                                                                                                    
                                                                                                    
                                                                                                    
                                                                                                    
                           
<?xpacket end="w"?></metadata>
<defs>
    <style>
      .cls-1 {
        fill-rule: evenodd;
      }
    </style>
  </defs>
  <path id="_21" data-name="21" class="cls-1" d="M463.434,466.121l2.387,2.4,1.069,1.075a0.973,0.973,0,0,0,1.382,0l1.036-1.043a0.987,0.987,0,0,0,0-1.391l-1.693-1.706-1.762-1.771a0.973,0.973,0,0,0-1.382,0l-1.037,1.043A0.989,0.989,0,0,0,463.434,466.121Zm10.051-6.57-5.87,5.907,1.693,1.706a0.987,0.987,0,0,1,0,1.391l-1.036,1.043a0.973,0.973,0,0,1-1.382,0l-1.069-1.075,0.062,0.068,1.037,1.043a0.973,0.973,0,0,0,1.382,0l7.6-7.649a0.986,0.986,0,0,0,0-1.39l-1.036-1.044A0.973,0.973,0,0,0,473.485,459.551Z" transform="translate(-463.156 -459.281)"/>
</svg>
