<svg xmlns="http://www.w3.org/2000/svg" width="5" height="9" viewBox="0 0 5 9">
  <metadata><?xpacket begin="﻿" id="W5M0MpCehiHzreSzNTczkc9d"?>
<x:xmpmeta xmlns:x="adobe:ns:meta/" x:xmptk="Adobe XMP Core 5.6-c140 79.160451, 2017/05/06-01:08:21        ">
   <rdf:RDF xmlns:rdf="http://www.w3.org/1999/02/22-rdf-syntax-ns#">
      <rdf:Description rdf:about=""/>
   </rdf:RDF>
</x:xmpmeta>
                                                                                                    
                                                                                                    
                                                                                                    
                                                                                                    
                                                                                                    
                                                                                                    
                                                                                                    
                                                                                                    
                                                                                                    
                                                                                                    
                                                                                                    
                                                                                                    
                                                                                                    
                                                                                                    
                                                                                                    
                                                                                                    
                                                                                                    
                                                                                                    
                                                                                                    
                                                                                                    
                           
<?xpacket end="w"?></metadata>
<defs>
    <style>
      .cls-1 {
        fill-rule: evenodd;
      }
    </style>
  </defs>
  <path id="_29" data-name="29" class="cls-1" d="M588.27,287h1.441a0.274,0.274,0,0,0,.256-0.29c0-1.651,2.022-1.509,2.022-3.322a2.449,2.449,0,0,0-2.469-2.4,3.265,3.265,0,0,0-2.457,1.208,0.268,0.268,0,0,0,0,.357l0.738,0.824c0.3,0.3.533-.563,1.38-0.563a0.866,0.866,0,0,1,.908.811c0,0.879-2.075,1.162-2.075,2.446v0.642A0.274,0.274,0,0,0,588.27,287ZM588,289.011a1.006,1.006,0,0,0,1,.99,1.018,1.018,0,0,0,1.019-.99A1.03,1.03,0,0,0,588.994,288,1.018,1.018,0,0,0,588,289.011Z" transform="translate(-587 -281)"/>
</svg>
