<svg xmlns="http://www.w3.org/2000/svg" width="15" height="13" viewBox="0 0 15 13">
  <metadata><?xpacket begin="﻿" id="W5M0MpCehiHzreSzNTczkc9d"?>
<x:xmpmeta xmlns:x="adobe:ns:meta/" x:xmptk="Adobe XMP Core 5.6-c140 79.160451, 2017/05/06-01:08:21        ">
   <rdf:RDF xmlns:rdf="http://www.w3.org/1999/02/22-rdf-syntax-ns#">
      <rdf:Description rdf:about=""/>
   </rdf:RDF>
</x:xmpmeta>
                                                                                                    
                                                                                                    
                                                                                                    
                                                                                                    
                                                                                                    
                                                                                                    
                                                                                                    
                                                                                                    
                                                                                                    
                                                                                                    
                                                                                                    
                                                                                                    
                                                                                                    
                                                                                                    
                                                                                                    
                                                                                                    
                                                                                                    
                                                                                                    
                                                                                                    
                                                                                                    
                           
<?xpacket end="w"?></metadata>
<defs>
    <style>
      .cls-1 {
        fill-rule: evenodd;
      }
    </style>
  </defs>
  <path id="_6" data-name="6" class="cls-1" d="M2180.92,461a0.959,0.959,0,0,0-.92,1v1a0.959,0.959,0,0,0,.92,1h9.16a0.959,0.959,0,0,0,.92-1v-1a0.959,0.959,0,0,0-.92-1h-9.16Zm-3.92,0a1,1,0,0,0-1,1v1a1,1,0,0,0,1,1h1a1,1,0,0,0,1-1v-1a1,1,0,0,0-1-1h-1Zm3.92,5a0.959,0.959,0,0,0-.92,1v1a0.959,0.959,0,0,0,.92,1h9.16a0.959,0.959,0,0,0,.92-1v-1a0.959,0.959,0,0,0-.92-1h-9.16Zm-3.92,0a1,1,0,0,0-1,1v1a1,1,0,0,0,1,1h1a1,1,0,0,0,1-1v-1a1,1,0,0,0-1-1h-1Zm3.92,5a0.959,0.959,0,0,0-.92,1v1a0.959,0.959,0,0,0,.92,1h9.16a0.959,0.959,0,0,0,.92-1v-1a0.959,0.959,0,0,0-.92-1h-9.16Zm-3.92,0a1,1,0,0,0-1,1v1a1,1,0,0,0,1,1h1a1,1,0,0,0,1-1v-1a1,1,0,0,0-1-1h-1Z" transform="translate(-2176 -461)"/>
</svg>
