<svg xmlns="http://www.w3.org/2000/svg" width="20" height="20" viewBox="0 0 20 20">
  <metadata><?xpacket begin="﻿" id="W5M0MpCehiHzreSzNTczkc9d"?>
<x:xmpmeta xmlns:x="adobe:ns:meta/" x:xmptk="Adobe XMP Core 5.6-c140 79.160451, 2017/05/06-01:08:21        ">
   <rdf:RDF xmlns:rdf="http://www.w3.org/1999/02/22-rdf-syntax-ns#">
      <rdf:Description rdf:about=""/>
   </rdf:RDF>
</x:xmpmeta>
                                                                                                    
                                                                                                    
                                                                                                    
                                                                                                    
                                                                                                    
                                                                                                    
                                                                                                    
                                                                                                    
                                                                                                    
                                                                                                    
                                                                                                    
                                                                                                    
                                                                                                    
                                                                                                    
                                                                                                    
                                                                                                    
                                                                                                    
                                                                                                    
                                                                                                    
                                                                                                    
                           
<?xpacket end="w"?></metadata>
<defs>
    <style>
      .cls-1 {
        fill-rule: evenodd;
      }
    </style>
  </defs>
  <path id="_7" data-name="7" class="cls-1" d="M2192.31,513.384a9.989,9.989,0,0,0-7.64-6.226,10.157,10.157,0,0,0-1.67-.15,10.01,10.01,0,0,0-9.31,6.375,10.007,10.007,0,0,0,1.52,9.869,10.151,10.151,0,0,0,7.79,3.74,10.157,10.157,0,0,0,1.67-.15,9.978,9.978,0,0,0,6.12-3.589,10.118,10.118,0,0,0,1.62-2.911A9.937,9.937,0,0,0,2192.31,513.384Zm-1.18.676-1.74,1.009a6.664,6.664,0,0,0-1.74-2.845l1.77-1.018A8.619,8.619,0,0,1,2191.13,514.06Zm-2.79,2.94a5.34,5.34,0,1,1-5.34-5.343A5.344,5.344,0,0,1,2188.34,517Zm-5.34-8.66a8.676,8.676,0,0,1,1.67.165v2.039a6.684,6.684,0,0,0-1.67-.219,6.545,6.545,0,0,0-1.66.219v-2.039A8.5,8.5,0,0,1,2183,508.34Zm-6.42,2.866,1.77,1.018a6.66,6.66,0,0,0-1.74,2.844l-1.74-1.008A8.609,8.609,0,0,1,2176.58,511.206Zm-1.82,8.459,1.78-1.023a6.651,6.651,0,0,0,1.6,2.92l-1.76,1.014A8.746,8.746,0,0,1,2174.76,519.665Zm8.24,6a8.5,8.5,0,0,1-1.66-.165v-2.039a6.545,6.545,0,0,0,1.66.219,6.684,6.684,0,0,0,1.67-.219V525.5A8.676,8.676,0,0,1,2183,525.66Zm6.62-3.084-1.76-1.014a6.645,6.645,0,0,0,1.6-2.92l1.78,1.023A8.746,8.746,0,0,1,2189.62,522.576Zm-6.88-3.674a3.392,3.392,0,0,1-1.13-.2,0.544,0.544,0,0,0-.43.031,0.536,0.536,0,0,0-.26.335v0.017a0.655,0.655,0,0,0,.44.79,4.712,4.712,0,0,0,1.12.187v0.446a0.49,0.49,0,0,0,.49.489h0a0.481,0.481,0,0,0,.48-0.489v-0.516a1.915,1.915,0,0,0,1.78-1.849c0-.9-0.48-1.448-1.67-1.868-0.84-.32-1.19-0.529-1.19-0.859,0-.28.21-0.56,0.85-0.56a3.149,3.149,0,0,1,.93.138,0.522,0.522,0,0,0,.66-0.372l0.01-.034a0.6,0.6,0,0,0-.43-0.726,4.233,4.233,0,0,0-.89-0.125v-0.375a0.492,0.492,0,0,0-.44-0.5,0.485,0.485,0,0,0-.53.488v0.459a1.847,1.847,0,0,0-1.69,1.779c0,0.969.73,1.468,1.8,1.828" transform="translate(-2173 -507)"/>
</svg>
