<svg xmlns="http://www.w3.org/2000/svg" width="13" height="15" viewBox="0 0 13 15">
  <metadata><?xpacket begin="﻿" id="W5M0MpCehiHzreSzNTczkc9d"?>
<x:xmpmeta xmlns:x="adobe:ns:meta/" x:xmptk="Adobe XMP Core 5.6-c140 79.160451, 2017/05/06-01:08:21        ">
   <rdf:RDF xmlns:rdf="http://www.w3.org/1999/02/22-rdf-syntax-ns#">
      <rdf:Description rdf:about=""/>
   </rdf:RDF>
</x:xmpmeta>
                                                                                                    
                                                                                                    
                                                                                                    
                                                                                                    
                                                                                                    
                                                                                                    
                                                                                                    
                                                                                                    
                                                                                                    
                                                                                                    
                                                                                                    
                                                                                                    
                                                                                                    
                                                                                                    
                                                                                                    
                                                                                                    
                                                                                                    
                                                                                                    
                                                                                                    
                                                                                                    
                           
<?xpacket end="w"?></metadata>
<defs>
    <style>
      .cls-1 {
        fill-rule: evenodd;
      }
    </style>
  </defs>
  <path id="_8" data-name="8" class="cls-1" d="M2183.5,566a3.493,3.493,0,1,0-2.49-1.026A3.41,3.41,0,0,0,2183.5,566Zm6.47,4.515c-0.02-.324-0.07-0.673-0.13-1.048a9.252,9.252,0,0,0-.24-1.044,5.64,5.64,0,0,0-.4-0.937,3.343,3.343,0,0,0-.58-0.779,2.3,2.3,0,0,0-.78-0.515,2.735,2.735,0,0,0-1.03-.192,1.05,1.05,0,0,0-.39.207c-0.2.138-.43,0.291-0.69,0.461a4.385,4.385,0,0,1-1,.462,3.758,3.758,0,0,1-2.46,0,4.191,4.191,0,0,1-1-.462c-0.26-.17-0.49-0.323-0.69-0.461a1.05,1.05,0,0,0-.39-0.207,2.7,2.7,0,0,0-1.03.192,2.451,2.451,0,0,0-.79.515,3.621,3.621,0,0,0-.57.779,5.64,5.64,0,0,0-.4.937,9.252,9.252,0,0,0-.24,1.044c-0.06.375-.11,0.724-0.13,1.048s-0.03.656-.03,1a2.307,2.307,0,0,0,2.46,2.491h8.08a2.307,2.307,0,0,0,2.46-2.491Q2190,571,2189.97,570.515Z" transform="translate(-2177 -559)"/>
</svg>
