<svg xmlns="http://www.w3.org/2000/svg" width="18" height="18" viewBox="0 0 18 18">
  <metadata><?xpacket begin="﻿" id="W5M0MpCehiHzreSzNTczkc9d"?>
<x:xmpmeta xmlns:x="adobe:ns:meta/" x:xmptk="Adobe XMP Core 5.6-c140 79.160451, 2017/05/06-01:08:21        ">
   <rdf:RDF xmlns:rdf="http://www.w3.org/1999/02/22-rdf-syntax-ns#">
      <rdf:Description rdf:about=""/>
   </rdf:RDF>
</x:xmpmeta>
                                                                                                    
                                                                                                    
                                                                                                    
                                                                                                    
                                                                                                    
                                                                                                    
                                                                                                    
                                                                                                    
                                                                                                    
                                                                                                    
                                                                                                    
                                                                                                    
                                                                                                    
                                                                                                    
                                                                                                    
                                                                                                    
                                                                                                    
                                                                                                    
                                                                                                    
                                                                                                    
                           
<?xpacket end="w"?></metadata>
<defs>
    <style>
      .cls-1 {
        fill-rule: evenodd;
      }
    </style>
  </defs>
  <path id="_9" data-name="9" class="cls-1" d="M2179.06,619a3.94,3.94,0,1,1,3.94,3.938A3.943,3.943,0,0,1,2179.06,619Zm-3.94-1.687a1.121,1.121,0,0,0-1.12,1.124v1.126a1.122,1.122,0,0,0,1.12,1.125h1.6a6.517,6.517,0,0,0,.65,1.559l-1.13,1.128a1.124,1.124,0,0,0,0,1.591l0.79,0.8a1.124,1.124,0,0,0,1.59,0l1.13-1.13a6.591,6.591,0,0,0,1.56.648v1.6a1.13,1.13,0,0,0,1.13,1.125h1.12a1.13,1.13,0,0,0,1.13-1.125v-1.6a6.3,6.3,0,0,0,1.55-.645l1.14,1.13a1.124,1.124,0,0,0,1.59,0l0.79-.8a1.124,1.124,0,0,0,0-1.591l-1.13-1.13a6.519,6.519,0,0,0,.65-1.557h1.59a1.124,1.124,0,0,0,1.13-1.125v-1.126a1.123,1.123,0,0,0-1.13-1.124h-1.59a6.524,6.524,0,0,0-.65-1.56l1.13-1.128a1.124,1.124,0,0,0,0-1.591l-0.79-.8a1.137,1.137,0,0,0-1.6,0l-1.12,1.13a6.591,6.591,0,0,0-1.56-.648v-1.6a1.13,1.13,0,0,0-1.13-1.125h-1.12a1.13,1.13,0,0,0-1.13,1.125v1.6a6.3,6.3,0,0,0-1.55.645l-1.14-1.13a1.124,1.124,0,0,0-1.59,0l-0.79.8a1.124,1.124,0,0,0,0,1.591l1.13,1.13a6.51,6.51,0,0,0-.65,1.558h-1.6Zm6.19,1.687a1.69,1.69,0,1,0,1.69-1.687A1.691,1.691,0,0,0,2181.31,619Z" transform="translate(-2174 -610)"/>
</svg>
