<svg xmlns="http://www.w3.org/2000/svg" width="52" height="18" viewBox="0 0 52 18">
  <metadata><?xpacket begin="﻿" id="W5M0MpCehiHzreSzNTczkc9d"?>
<x:xmpmeta xmlns:x="adobe:ns:meta/" x:xmptk="Adobe XMP Core 5.6-c140 79.160451, 2017/05/06-01:08:21        ">
   <rdf:RDF xmlns:rdf="http://www.w3.org/1999/02/22-rdf-syntax-ns#">
      <rdf:Description rdf:about=""/>
   </rdf:RDF>
</x:xmpmeta>
                                                                                                    
                                                                                                    
                                                                                                    
                                                                                                    
                                                                                                    
                                                                                                    
                                                                                                    
                                                                                                    
                                                                                                    
                                                                                                    
                                                                                                    
                                                                                                    
                                                                                                    
                                                                                                    
                                                                                                    
                                                                                                    
                                                                                                    
                                                                                                    
                                                                                                    
                                                                                                    
                           
<?xpacket end="w"?></metadata>
<defs>
    <style>
      .cls-1 {
        fill: #c5c2c8;
        fill-rule: evenodd;
      }
    </style>
  </defs>
  <path id="american-express" class="cls-1" d="M860.013,9719.29c-0.007.07-.033,0.14-0.045,0.21a2.731,2.731,0,0,1-1.276,2.09,3.714,3.714,0,0,1-1.982.41h-3.551v-0.49a3.241,3.241,0,0,1-1.9.49H840.028v-1.89c0-.25,0-0.25-0.247-0.25h-0.166V9722H835.9v-2.22a4.979,4.979,0,0,1-1.9.25h-0.413v1.07l-0.082-.09v0.91h-4.542l-1.036-1.19-1.194,1.19h-7.267v-8.06h6.772l-0.248-.24H826.9l1.074,1.23,1.156-1.23h4.955a3.149,3.149,0,0,1,1.9.49v-0.49h4.459a3.206,3.206,0,0,1,1.817.49v-0.49h6.772v0.49a2.618,2.618,0,0,1,1.651-.49h3.8v0.49a1.184,1.184,0,0,0,.33-0.16l0.122,0.12a3.3,3.3,0,0,1,1.2-.21H859.6v3.7a3.14,3.14,0,0,1,.413,1.56c0,0.05-.015.1-0.018,0.15Zm-23.671-3.13a2.1,2.1,0,0,0-2.177-1.15h-4.377l-1.734,1.89-0.042-.04-0.04.04-1.735-1.89H820.87v5.76h5.285l1.817-1.89,0.077,0.09,0-.01,1.58,1.81h2.714v-2.14H834c1.239,0,2.395-.33,2.395-1.97A2.276,2.276,0,0,0,836.342,9716.16Zm6.164,3.46a1.836,1.836,0,0,0-.248-1.07,1.357,1.357,0,0,0-.743-0.49,1.649,1.649,0,0,0,.991-1.57,1.447,1.447,0,0,0-.743-1.31,3.3,3.3,0,0,0-1.652-.25h-3.138v5.84h1.4v-2.14h1.486a1.1,1.1,0,0,1,.991.25,1.813,1.813,0,0,1,.248,1.15v0.74h1.4v-1.15Zm5.45-.09h-3.221v-1.15h3.139v-1.15h-3.139v-1.07h3.221v-1.23h-4.624v5.84h4.624v-1.24Zm2.23-3.2a1.259,1.259,0,0,1,.578-0.08h2.56v-1.4H850.6a1.715,1.715,0,0,0-1.982,1.73c0,1.8,1.569,1.72,2.89,1.8a0.711,0.711,0,0,1,.5.17,0.61,0.61,0,0,1,.165.41,0.631,0.631,0,0,1-.165.41,0.715,0.715,0,0,1-.579.16h-2.642v1.24h2.642c1.4,0,2.148-.58,2.148-1.81a1.673,1.673,0,0,0-.413-1.23,2.105,2.105,0,0,0-1.569-.5h-0.744a1.076,1.076,0,0,1-.5-0.08,0.436,0.436,0,0,1-.33-0.41A0.39,0.39,0,0,1,850.186,9716.33Zm8.783,2.18c-0.027-.11-0.062-0.21-0.1-0.32a1.414,1.414,0,0,0-.181-0.38,0.079,0.079,0,0,0-.083-0.08,1.634,1.634,0,0,0-.612-0.37l0.116,0.12a2.455,2.455,0,0,0-1.156-.25h-0.743a1.076,1.076,0,0,1-.5-0.08,0.365,0.365,0,0,1-.331-0.41,0.627,0.627,0,0,1,.166-0.41,1.259,1.259,0,0,1,.578-0.08h2.56v-1.4h-2.726a2.576,2.576,0,0,0-.4.03,1.692,1.692,0,0,0-1.577,1.7c0,1.8,1.57,1.72,2.891,1.8a0.706,0.706,0,0,1,.5.17,0.605,0.605,0,0,1,.165.41,0.626,0.626,0,0,1-.165.41,0.712,0.712,0,0,1-.578.16H854.15v1.24h2.642a2.408,2.408,0,0,0,1.734-.58,1.667,1.667,0,0,0,.5-1.23A2.655,2.655,0,0,0,858.969,9718.51Zm-18.2-1.03a1.659,1.659,0,0,1-.661.08h-1.652v-1.31h1.652a1.659,1.659,0,0,1,.661.08,0.453,0.453,0,0,1,.247.57A0.641,0.641,0,0,1,840.772,9717.48Zm-6.607.16h-1.817v-1.48h1.735a0.834,0.834,0,0,1,.908.74A0.715,0.715,0,0,1,834.165,9717.64Zm-3.22-2.05v4.68l-2.148-2.38Zm-8.837,4.03v-1.24h3.056v-1.15h-3.056v-1.07h3.469l1.486,1.73-1.569,1.73h-3.386Zm30.555-7.57H852.5l-0.743-1.23v1.23h-4.79l-0.5-1.31h-1.156l-0.5,1.31h-2.477a4.928,4.928,0,0,1-2.23-.49v0.49h-5.946v-1.8c0-.25,0-0.25-0.165-0.25h-0.165v2.14H822.356v-0.99l-0.413.99h-2.395l-0.412-.99v0.99h-4.79l-0.5-1.32h-1.073l-0.5,1.23h-0.052l-0.03.09h-4.212l0.036-.09h-0.036l1.9-4.19,1.651-3.86h3.634l0.413,0.99V9704H819.8l0.908,2.06,0.909-2.06h13.295a2.378,2.378,0,0,1,1.569.49V9704h3.717v0.49a5.027,5.027,0,0,1,2.312-.49h5.285l0.495,0.99V9704h3.882l0.5,0.99V9704h3.716v8.05h-3.716Zm-15.03-1.15h1.4v-5.75h-1.4v5.75Zm-6.358,0h1.4v-2.05h1.486a1.646,1.646,0,0,1,.748.08,0.79,0.79,0,0,1,.243.17,1.931,1.931,0,0,1,.248,1.15v0.65h1.239v-1.15a2.067,2.067,0,0,0-.248-1.07,0.831,0.831,0,0,0-.147-0.18,1.38,1.38,0,0,0-.514-0.23,0.438,0.438,0,0,0,.087-0.05l-0.087-.03a1.635,1.635,0,0,0,.986-1.53,1.384,1.384,0,0,0-.655-1.26,3.142,3.142,0,0,0-1.652-.25h-3.138v5.75Zm-5.533.09h4.624v-1.24h-3.22v-1.15h3.138v-1.15h-3.138v-1.07h3.22v-1.23h-4.624v5.84Zm-11.314-5.84h-2.064l-2.443,5.75h1.452l0.578-1.23h2.808l0.578,1.23h2.807v-4.52l1.982,4.52h1.157l0.808-1.69,1.173-2.74v0.1l0.083-.19v4.52h1.321v-5.75h-2.229l-1.652,3.95-0.306-.66-0.006-.01-1.5-3.2h-1.651l-0.082-.08h-0.5v5.51Zm40.713,5.75v-5.67h-1.4v4.03l-2.395-4.03h-2.065v3.37l0.083,0.08v1.98l-0.083-.2v0.28l-2.312-5.51H844.9l-1.9,4.52h-0.578a1.308,1.308,0,0,1-.991-0.33,1.764,1.764,0,0,1-.413-1.39,1.94,1.94,0,0,1,.413-1.32,1.562,1.562,0,0,1,1.074-.33h1.321v-1.23h-1.321a2.623,2.623,0,0,0-2.065.66,3.362,3.362,0,0,0-.743,2.3,2.877,2.877,0,0,0,.743,2.22,2.912,2.912,0,0,0,1.982.66h1.569l0.5-1.32h2.89l0.5,1.23H850.6v-0.82l0.082,0.08v-3.61l2.643,4.35h1.817Zm-9.167-4.76,0.908,2.3h-1.9Zm-32.619,0,0.908,2.3h-1.816Zm21.884,0.9a0.653,0.653,0,0,1-.248.58,1.659,1.659,0,0,1-.661.08h-1.651v-1.32h1.651a1.488,1.488,0,0,1,.661.09A0.449,0.449,0,0,1,835.239,9707.04Z" transform="translate(-808 -9704)"/>
</svg>
