<svg xmlns="http://www.w3.org/2000/svg" width="49" height="17" viewBox="0 0 49 17">
  <metadata><?xpacket begin="﻿" id="W5M0MpCehiHzreSzNTczkc9d"?>
<x:xmpmeta xmlns:x="adobe:ns:meta/" x:xmptk="Adobe XMP Core 5.6-c140 79.160451, 2017/05/06-01:08:21        ">
   <rdf:RDF xmlns:rdf="http://www.w3.org/1999/02/22-rdf-syntax-ns#">
      <rdf:Description rdf:about=""/>
   </rdf:RDF>
</x:xmpmeta>
                                                                                                    
                                                                                                    
                                                                                                    
                                                                                                    
                                                                                                    
                                                                                                    
                                                                                                    
                                                                                                    
                                                                                                    
                                                                                                    
                                                                                                    
                                                                                                    
                                                                                                    
                                                                                                    
                                                                                                    
                                                                                                    
                                                                                                    
                                                                                                    
                                                                                                    
                                                                                                    
                           
<?xpacket end="w"?></metadata>
<defs>
    <style>
      .cls-1 {
        fill: #c5c2c8;
        fill-rule: evenodd;
      }
    </style>
  </defs>
  <path id="bank-wire" class="cls-1" d="M688,9766.91l-2.353.02-2.214-3.87-0.031,3.87h-2.089v-7.82H683.4v3.52l2.276-3.52h2.152l-2.539,3.58Zm-9.1,5.5,2.679,3.54h-2.6v0.03h0l-2.388-3.49-0.03,3.49h-2.343v-7.56a6.959,6.959,0,0,1,1.348-.35,12.422,12.422,0,0,1,1.683-.12,5.439,5.439,0,0,1,2.986.65,2.053,2.053,0,0,1,1,1.82,1.65,1.65,0,0,1-.658,1.32A3.031,3.031,0,0,1,678.9,9772.41Zm-0.383-3.03a1.75,1.75,0,0,0-1.271-.36,2.2,2.2,0,0,0-.688.1v2.9a2.175,2.175,0,0,0,.5.05,2.013,2.013,0,0,0,1.362-.41,1.426,1.426,0,0,0,.459-1.14A1.523,1.523,0,0,0,678.514,9769.38Zm-3.533-6.84a4.234,4.234,0,0,1-.294-0.49c-0.077-.16-0.139-0.27-0.17-0.33a2.9,2.9,0,0,1,.015.38v4.83h-1.764v-7.82h1.857l2.74,4.01c0.14,0.21.248,0.37,0.31,0.49a2.076,2.076,0,0,1,.139.27,2.361,2.361,0,0,1-.015-0.34v-4.43h1.78v7.82h-1.61Zm-5.07,5.53h2.372v7.91h-2.372v-7.91Zm-0.75-2.81h-2.694l-0.573,1.67h-1.888l2.926-7.82h2.059l2.894,7.82H669.7Zm-1.084-3.59c-0.077-.26-0.124-0.45-0.155-0.58-0.015-.14-0.046-0.26-0.062-0.38-0.015.11-.046,0.21-0.061,0.3s-0.093.31-.2,0.64l-0.82,2.56h2.09Zm-2.866,11.57c0.031,0.17.046,0.29,0.061,0.35,0.016-.12.046-0.24,0.061-0.38,0.031-.13.062-0.3,0.108-0.53l1.087-4.61h2.143l-2.281,7.91h-2.082l-1.3-4.15a2.531,2.531,0,0,1-.123-0.48c-0.03-.14-0.046-0.26-0.061-0.36-0.015.06-.015,0.12-0.031,0.21s-0.076.3-.168,0.63l-1.271,4.16h-2.1l-2.265-7.9h2.342l1.056,4.61c0.046,0.18.061,0.34,0.092,0.53a2.09,2.09,0,0,0,.061.36c0.031-.12.061-0.24,0.092-0.39a3.513,3.513,0,0,1,.138-0.5l1.331-4.61h1.7l1.3,4.61A4.105,4.105,0,0,1,665.211,9773.24Zm-2.335-9.75a1.653,1.653,0,0,1,.573,1.27,1.869,1.869,0,0,1-.945,1.71,5.078,5.078,0,0,1-2.647.58,7.063,7.063,0,0,1-2.863-.46v-7.14a4.948,4.948,0,0,1,1.176-.34,9.628,9.628,0,0,1,1.579-.12,4.655,4.655,0,0,1,2.57.58,1.745,1.745,0,0,1,.882,1.5,1.476,1.476,0,0,1-.5,1.14,2.358,2.358,0,0,1-1.115.59A3,3,0,0,1,662.876,9763.49Zm-3.112-3.46h-0.325a1.322,1.322,0,0,0-.433.09v2.3h0.418a2.476,2.476,0,0,0,1.378-.28,1.073,1.073,0,0,0,.387-0.94A1.174,1.174,0,0,0,659.764,9760.03Zm1.161,3.61a2.621,2.621,0,0,0-1.5-.32h-0.418v2.51a1.713,1.713,0,0,0,.356.07,2.041,2.041,0,0,0,.449.03,1.913,1.913,0,0,0,1.161-.28,1.093,1.093,0,0,0,.387-0.95A1.239,1.239,0,0,0,660.925,9763.64Zm-7.453,12.37h-13.94a0.493,0.493,0,0,1-.532-0.46v-1.09a0.493,0.493,0,0,1,.532-0.46h13.94a0.493,0.493,0,0,1,.532.46v1.09A0.493,0.493,0,0,1,653.472,9776.01Zm-2.169-9.02a0.624,0.624,0,0,1,.7.53v4.96a0.624,0.624,0,0,1-.7.52h-0.591a0.624,0.624,0,0,1-.7-0.52v-4.96a0.623,0.623,0,0,1,.7-0.53H651.3Zm-3,0a0.624,0.624,0,0,1,.7.53v4.96a0.624,0.624,0,0,1-.7.52h-0.591a0.624,0.624,0,0,1-.7-0.52v-4.96a0.623,0.623,0,0,1,.7-0.53H648.3Zm-3,0a0.623,0.623,0,0,1,.7.53v4.96a0.624,0.624,0,0,1-.7.52h-0.591a0.624,0.624,0,0,1-.7-0.52v-4.96a0.623,0.623,0,0,1,.7-0.53H645.3Zm-3,0a0.624,0.624,0,0,1,.7.53v4.96a0.625,0.625,0,0,1-.7.52h-0.59a0.624,0.624,0,0,1-.7-0.52v-4.96a0.623,0.623,0,0,1,.7-0.53h0.59Zm11.176-1H639.516a0.625,0.625,0,0,1-.524-0.7v-0.59a0.619,0.619,0,0,1,.524-0.7h13.962a0.619,0.619,0,0,1,.524.7v0.59A0.625,0.625,0,0,1,653.478,9765.99ZM646.49,9759l7.51,4H640Zm41.5,10.32h-2.755v2.01h2.418v1.22h-2.418v2.16h2.755v1.25l-5.144.02v-7.91h5.144v1.25Z" transform="translate(-639 -9759)"/>
</svg>
