<svg xmlns="http://www.w3.org/2000/svg" width="150" height="110" viewBox="0 0 150 110">
  <metadata><?xpacket begin="﻿" id="W5M0MpCehiHzreSzNTczkc9d"?>
<x:xmpmeta xmlns:x="adobe:ns:meta/" x:xmptk="Adobe XMP Core 5.6-c140 79.160451, 2017/05/06-01:08:21        ">
   <rdf:RDF xmlns:rdf="http://www.w3.org/1999/02/22-rdf-syntax-ns#">
      <rdf:Description rdf:about=""/>
   </rdf:RDF>
</x:xmpmeta>
                                                                                                    
                                                                                                    
                                                                                                    
                                                                                                    
                                                                                                    
                                                                                                    
                                                                                                    
                                                                                                    
                                                                                                    
                                                                                                    
                                                                                                    
                                                                                                    
                                                                                                    
                                                                                                    
                                                                                                    
                                                                                                    
                                                                                                    
                                                                                                    
                                                                                                    
                                                                                                    
                           
<?xpacket end="w"?></metadata>
<defs>
    <style>
      .cls-1 {
        fill-rule: evenodd;
        opacity: 0.05;
      }
    </style>
  </defs>
  <path id="Depositors" class="cls-1" d="M784.457,659H655.543A10.555,10.555,0,0,0,645,669.542v88.915A10.555,10.555,0,0,0,655.543,769H784.457A10.555,10.555,0,0,0,795,758.457V669.542A10.555,10.555,0,0,0,784.457,659ZM652.5,678.5A2.5,2.5,0,0,0,655,676h10a2.5,2.5,0,0,0,5,0h10a2.5,2.5,0,0,0,5,0h10a2.5,2.5,0,0,0,5,0h10a2.5,2.5,0,0,0,5,0h10a2.5,2.5,0,0,0,5,0h10a2.5,2.5,0,0,0,5,0h10a2.5,2.5,0,0,0,5,0h10a2.5,2.5,0,0,0,5,0h10a2.5,2.5,0,0,0,5,0v15a2.5,2.5,0,1,0-5,0H775a2.5,2.5,0,1,0-5,0H760a2.5,2.5,0,1,0-5,0H745a2.5,2.5,0,1,0-5,0H730a2.5,2.5,0,1,0-5,0H715a2.5,2.5,0,1,0-5,0H700a2.5,2.5,0,1,0-5,0H685a2.5,2.5,0,1,0-5,0H670a2.5,2.5,0,1,0-5,0H655a2.5,2.5,0,1,0-5,0V676A2.5,2.5,0,0,0,652.5,678.5ZM790,758.457A5.549,5.549,0,0,1,784.457,764H655.543A5.549,5.549,0,0,1,650,758.457V696H790v62.457ZM650,672v-2.088A5.743,5.743,0,0,1,655.543,664H784.457A5.743,5.743,0,0,1,790,669.912V672H650Zm12.5,40.014H685A2.508,2.508,0,0,0,685,707H662.5A2.508,2.508,0,0,0,662.5,712.014Zm32.5,0h22.5a2.508,2.508,0,0,0,0-5.015H695A2.508,2.508,0,0,0,695,712.014ZM662.5,724H665a2.507,2.507,0,0,0,0-5.014h-2.5A2.507,2.507,0,0,0,662.5,724Zm17.5-5.014h-5A2.507,2.507,0,0,0,675,724h5A2.507,2.507,0,0,0,680,718.986ZM690,724h2.5a2.507,2.507,0,0,0,0-5.014H690A2.507,2.507,0,0,0,690,724Zm17.5-5.014h-5a2.507,2.507,0,0,0,0,5.014h5A2.507,2.507,0,0,0,707.5,718.986Zm8.225,0.728a2.546,2.546,0,0,0,0,3.559A2.572,2.572,0,0,0,717.5,724,2.511,2.511,0,1,0,715.725,719.714ZM705,681a2.5,2.5,0,1,1-2.5,2.5A2.5,2.5,0,0,1,705,681Zm15,0a2.5,2.5,0,1,1-2.5,2.5A2.5,2.5,0,0,1,720,681Zm-30,0a2.5,2.5,0,1,1-2.5,2.5A2.5,2.5,0,0,1,690,681Zm-30,0a2.5,2.5,0,1,1-2.5,2.5A2.5,2.5,0,0,1,660,681Zm15,0a2.5,2.5,0,1,1-2.5,2.5A2.5,2.5,0,0,1,675,681Zm105,0a2.5,2.5,0,1,1-2.5,2.5A2.5,2.5,0,0,1,780,681Zm-15,0a2.5,2.5,0,1,1-2.5,2.5A2.5,2.5,0,0,1,765,681Zm-30,0a2.5,2.5,0,1,1-2.5,2.5A2.5,2.5,0,0,1,735,681Zm15,0a2.5,2.5,0,1,1-2.5,2.5A2.5,2.5,0,0,1,750,681Zm30,43H735v30h45V724Zm-5,25H740V729h35v20Z" transform="translate(-645 -659)"/>
</svg>
