<svg xmlns="http://www.w3.org/2000/svg" width="150" height="125.156" viewBox="0 0 150 125.156">
  <metadata><?xpacket begin="﻿" id="W5M0MpCehiHzreSzNTczkc9d"?>
<x:xmpmeta xmlns:x="adobe:ns:meta/" x:xmptk="Adobe XMP Core 5.6-c140 79.160451, 2017/05/06-01:08:21        ">
   <rdf:RDF xmlns:rdf="http://www.w3.org/1999/02/22-rdf-syntax-ns#">
      <rdf:Description rdf:about=""/>
   </rdf:RDF>
</x:xmpmeta>
                                                                                                    
                                                                                                    
                                                                                                    
                                                                                                    
                                                                                                    
                                                                                                    
                                                                                                    
                                                                                                    
                                                                                                    
                                                                                                    
                                                                                                    
                                                                                                    
                                                                                                    
                                                                                                    
                                                                                                    
                                                                                                    
                                                                                                    
                                                                                                    
                                                                                                    
                                                                                                    
                           
<?xpacket end="w"?></metadata>
<defs>
    <style>
      .cls-1 {
        fill-rule: evenodd;
        opacity: 0.05;
      }
    </style>
  </defs>
  <path id="coin" class="cls-1" d="M790,930.144v-111A9.151,9.151,0,0,0,780.86,810H759.14a9.029,9.029,0,0,0-7.872,4.588c0.23,0.124.445,0.277,0.672,0.4,0.91,0.513,1.8,1.06,2.69,1.62,0.437,0.279.885,0.536,1.315,0.823,1.4,0.935,2.778,1.922,4.115,2.977A5.98,5.98,0,0,1,766,815h8.013A6,6,0,0,1,780,820.992V930.144h-5v-7.016c-0.165.25-.345,0.487-0.51,0.734-0.185.278-.377,0.548-0.567,0.821-0.423.61-.835,1.23-1.275,1.825-0.395.54-.813,1.052-1.223,1.577-0.192.247-.385,0.5-0.58,0.74-0.25.313-.5,0.628-0.752,0.935-0.109.132-.225,0.254-0.335,0.384h-6.823c0.43-.443.874-0.871,1.29-1.327,0.48-.524.958-1.052,1.423-1.594,0.775-.9,1.512-1.84,2.24-2.79,0.447-.588.907-1.161,1.337-1.765l0.028-.038c0.782-1.1,1.515-2.235,2.232-3.384,0.168-.266.345-0.521,0.508-0.788,0.175-.291.357-0.573,0.53-0.869q1.32-2.252,2.482-4.634V847.037q-1.166-2.38-2.482-4.634c-0.173-.3-0.355-0.579-0.53-0.868-0.165-.268-0.343-0.522-0.508-0.788-0.72-1.149-1.452-2.29-2.232-3.385-0.01-.012-0.018-0.024-0.028-0.037-0.43-.605-0.89-1.18-1.337-1.764-0.728-.948-1.465-1.889-2.24-2.791-0.465-.542-0.943-1.07-1.423-1.6-0.855-.93-1.732-1.838-2.64-2.715-0.707-.69-1.405-1.395-2.142-2.045-0.153-.133-0.313-0.255-0.465-0.388-1-.862-2.018-1.682-3.06-2.47-0.42-.314-0.845-0.619-1.273-0.922-0.79-.564-1.6-1.1-2.41-1.625-0.535-.341-1.07-0.682-1.613-1-0.759-.45-1.532-0.863-2.307-1.275a52.321,52.321,0,0,0-24.565-6.23,53.806,53.806,0,0,0-5.892.332l-0.993.138c-0.122.015-.245,0.035-0.367,0.052q-1.305.184-2.59,0.433l-0.183.038c-0.837.165-1.667,0.347-2.49,0.552-0.107.027-.215,0.061-0.325,0.087-0.772.2-1.54,0.408-2.3,0.64-0.2.063-.4,0.136-0.607,0.2-0.66.21-1.32,0.427-1.973,0.662-0.46.167-.915,0.355-1.372,0.535-0.39.155-.783,0.3-1.168,0.46-13.437,5.687-24.585,16.868-31.365,31.159-0.06.128-.117,0.26-0.177,0.391-0.365.783-.72,1.57-1.058,2.37-0.132.313-.255,0.63-0.382,0.945-0.253.625-.5,1.253-0.743,1.888-0.152.4-.292,0.809-0.437,1.217-0.2.56-.395,1.12-0.58,1.685-0.15.457-.293,0.918-0.433,1.38-0.162.53-.322,1.062-0.472,1.6-0.138.487-.268,0.975-0.395,1.468-0.135.527-.268,1.054-0.393,1.587-0.117.5-.233,1.011-0.342,1.518-0.115.533-.22,1.07-0.323,1.606-0.1.512-.2,1.021-0.285,1.536-0.092.558-.177,1.118-0.26,1.677-0.072.5-.15,1.006-0.215,1.511-0.075.6-.137,1.207-0.2,1.812-0.05.472-.1,0.943-0.145,1.417-0.06.695-.1,1.4-0.14,2.1-0.022.393-.055,0.785-0.072,1.181-0.045,1.1-.073,2.209-0.073,3.324s0.028,2.222.075,3.317c0.018,0.395.05,0.785,0.073,1.18,0.04,0.7.08,1.4,0.14,2.1,0.04,0.475.1,0.944,0.145,1.418,0.062,0.6.122,1.212,0.2,1.811,0.065,0.509.14,1.009,0.215,1.511,0.082,0.563.165,1.122,0.26,1.678,0.09,0.512.187,1.025,0.285,1.534,0.1,0.538.207,1.075,0.322,1.608,0.107,0.51.223,1.015,0.343,1.518q0.188,0.8.392,1.587c0.128,0.49.258,0.98,0.395,1.467,0.153,0.539.31,1.071,0.473,1.6,0.14,0.463.282,0.923,0.432,1.38,0.185,0.568.383,1.128,0.585,1.686,0.145,0.407.288,0.814,0.438,1.216,0.237,0.636.487,1.263,0.742,1.888,0.128,0.315.25,0.633,0.383,0.946,0.337,0.8.692,1.589,1.057,2.37,0.06,0.129.118,0.26,0.177,0.39a67.378,67.378,0,0,0,12.335,17.941h-6.682c-0.432-.512-0.873-1.013-1.292-1.539-0.29-.363-0.57-0.735-0.853-1.105h-8.58c0.785,0.911,1.6,1.786,2.43,2.644h-6.706c-0.914-1.083-1.807-2.19-2.661-3.336a2.447,2.447,0,0,1-.283-0.37,74.645,74.645,0,0,1-8.665-15.34,2.109,2.109,0,0,1-.12-0.3A80.4,80.4,0,0,1,645,880a81.652,81.652,0,0,1,2.553-20.278,2.479,2.479,0,0,1,.2-0.777,78.114,78.114,0,0,1,4.4-12.237,2.669,2.669,0,0,1,.175-0.388,73.693,73.693,0,0,1,9.48-15.305,2.445,2.445,0,0,1,.3-0.357,66.776,66.776,0,0,1,13.315-12.425l0.01-.008A57.809,57.809,0,0,1,708.75,807.5a55.969,55.969,0,0,1,7.463.525,56.066,56.066,0,0,1,7.537-.525,56.955,56.955,0,0,1,23.028,4.932A13.981,13.981,0,0,1,759.14,805h21.72A14.156,14.156,0,0,1,795,819.139V930.144h-5Zm-25-105.4c0.135,0.132.26,0.272,0.395,0.4,0.675,0.663,1.34,1.338,1.99,2.033,0.093,0.1.193,0.193,0.285,0.292,0.22,0.238.428,0.49,0.645,0.73,0.6,0.671,1.2,1.341,1.778,2.038,0.255,0.307.5,0.622,0.752,0.935q0.292,0.368.58,0.74c0.408,0.525.825,1.038,1.223,1.578,0.44,0.594.852,1.214,1.275,1.825,0.19,0.272.382,0.541,0.567,0.819,0.168,0.248.348,0.485,0.51,0.735v-15.88a1,1,0,0,0-1-.992h-8.012a1,1,0,0,0-.993.992v3.751ZM663.183,922.5h8.965c-0.465-.731-0.928-1.463-1.37-2.213-0.208-.355-0.4-0.717-0.608-1.078q-0.832-1.465-1.6-2.979c-0.185-.365-0.375-0.728-0.555-1.1q-0.633-1.3-1.22-2.631h-9.47A69.137,69.137,0,0,0,663.183,922.5Zm-8.038-15h9.638c-0.1-.274-0.193-0.548-0.288-0.823-0.107-.308-0.217-0.613-0.32-0.921-0.5-1.479-.96-2.979-1.373-4.5-0.029-.108-0.054-0.217-0.082-0.325-0.082-.307-0.155-0.617-0.232-0.925v0h-9.8A73.418,73.418,0,0,0,655.145,907.5ZM651.52,895h9.86c-0.252-1.365-.478-2.742-0.662-4.132-0.01-.078-0.015-0.156-0.026-0.23-0.134-1.04-.257-2.086-0.352-3.138H650.4C650.648,890.048,651.033,892.545,651.52,895ZM650,880c0,0.842.07,1.665,0.1,2.5h9.957c-0.025-.833-0.055-1.662-0.055-2.5,0-1.642.065-3.266,0.158-4.881,0-.039,0-0.079,0-0.119H650.2C650.09,876.655,650,878.315,650,880Zm2.018-17.5a75.364,75.364,0,0,0-1.32,7.5h9.922c0.028-.213.045-0.425,0.072-0.638,0.011-.077.016-0.154,0.026-0.23,0.212-1.6.485-3.187,0.79-4.757,0.065-.327.132-0.653,0.2-0.979,0.063-.3.118-0.6,0.183-0.9h-9.872Zm1.372-5h9.768q0.476-1.647,1.012-3.257c0.105-.308.213-0.614,0.32-0.921q0.59-1.679,1.248-3.322H656.17A73.165,73.165,0,0,0,653.39,857.5ZM665.062,835a68.2,68.2,0,0,0-6.49,10h9.371c0.022-.045.045-0.088,0.067-0.133,0.18-.369.37-0.732,0.555-1.1q0.773-1.514,1.6-2.98c0.2-.361.4-0.724,0.608-1.079q1.023-1.736,2.135-3.4c0.295-.445.6-0.878,0.907-1.315h-8.758Zm13.016-12.5a60.529,60.529,0,0,0-8.68,7.5h8.255c0.385-.463.767-0.928,1.165-1.378,0.452-.51.92-1,1.385-1.5s0.96-1.008,1.45-1.5,0.987-.992,1.494-1.471c0.6-.566,1.218-1.111,1.838-1.651h-6.907Zm8.607-5H691.5c0.67-.449,1.34-0.894,2.025-1.316,0.465-.286.943-0.553,1.415-0.825q1.167-.675,2.357-1.3c0.283-.147.553-0.316,0.836-0.459A52.667,52.667,0,0,0,686.685,817.5Zm4.18,20.351a2.5,2.5,0,0,1,3.55,3.523c-1.095,1.1-2.155,2.28-3.152,3.5a2.5,2.5,0,0,1-3.873-3.165C688.49,840.365,689.66,839.065,690.865,837.85Zm-5.832,72.895a2.5,2.5,0,0,1,3.472.672c0.895,1.32,1.845,2.595,2.82,3.788a2.5,2.5,0,1,1-3.867,3.173c-1.075-1.313-2.115-2.713-3.095-4.16A2.5,2.5,0,0,1,685.033,910.745Zm-5.7-55.8a2.5,2.5,0,0,1,4.58,2.009c-0.63,1.432-1.208,2.921-1.715,4.42a2.5,2.5,0,1,1-4.736-1.607C678.018,858.135,678.648,856.512,679.333,854.948Zm1.555,39.222c0.382,1.53.832,3.06,1.34,4.547a2.5,2.5,0,0,1-1.558,3.176,2.56,2.56,0,0,1-.808.135,2.5,2.5,0,0,1-2.364-1.692c-0.555-1.626-1.048-3.294-1.463-4.959A2.5,2.5,0,0,1,680.888,894.17Zm-6.72-14.12V880c0-1.687.067-3.4,0.2-5.092a2.5,2.5,0,0,1,4.985.395c-0.123,1.559-.185,3.142-0.185,4.7a2.52,2.52,0,0,1-2.5,2.523A2.476,2.476,0,0,1,674.168,880.05Zm24.842,48.764a2.5,2.5,0,0,1,2.74-4.182,42.023,42.023,0,0,0,4.045,2.346,2.487,2.487,0,0,1,1.175,3.166h-5.8Q700.069,929.507,699.01,928.814Zm6.7-95.741a2.5,2.5,0,0,1-2.27-4.456,46.486,46.486,0,0,1,4.79-2.112,2.5,2.5,0,0,1,1.753,4.685A41.436,41.436,0,0,0,705.705,833.073Zm22.882-4.1a2.26,2.26,0,0,1-.292-0.017,39.794,39.794,0,0,0-4.545-.262,2.546,2.546,0,0,1-2.552-2.5,2.454,2.454,0,0,1,2.447-2.5v2.5l0.03-2.5c1.763,0.048,3.508.1,5.2,0.3A2.5,2.5,0,0,1,728.587,828.972Zm9.028,99.806a41,41,0,0,0,4.265-1.893,2.491,2.491,0,0,1,3.407,3.259H736.2A2.477,2.477,0,0,1,737.615,928.778Zm9.413-93.058a2.48,2.48,0,0,1-1.363-.408,42.453,42.453,0,0,0-4.05-2.332,2.5,2.5,0,0,1,2.25-4.466,47.025,47.025,0,0,1,4.53,2.611A2.5,2.5,0,0,1,747.028,835.72Zm12.792,78.97a2.5,2.5,0,0,1,.362,3.518c-1.094,1.342-2.259,2.642-3.464,3.864a2.5,2.5,0,1,1-3.56-3.51c1.1-1.11,2.155-2.29,3.147-3.51A2.5,2.5,0,0,1,759.82,914.69Zm2.59-65.527a2.5,2.5,0,0,1-3.473-.668c-0.877-1.3-1.83-2.57-2.824-3.783a2.5,2.5,0,0,1,3.862-3.177c1.093,1.329,2.138,2.727,3.105,4.155A2.5,2.5,0,0,1,762.41,849.163Zm5.805,55.787a2.5,2.5,0,0,1-4.587-2c0.627-1.442,1.2-2.929,1.707-4.424a2.5,2.5,0,0,1,4.738,1.6C769.523,901.755,768.9,903.378,768.215,904.95Zm0.795-37.328a2.5,2.5,0,0,1-2.422-1.892c-0.385-1.525-.838-3.055-1.35-4.545a2.5,2.5,0,0,1,4.732-1.625c0.557,1.625,1.05,3.293,1.468,4.955a2.5,2.5,0,0,1-1.818,3.033A2.615,2.615,0,0,1,769.01,867.622Zm4.323,12.215V880c0,1.673-.063,3.351-0.19,4.986a2.5,2.5,0,0,1-2.49,2.308c-0.063,0-.131,0-0.2-0.009a2.5,2.5,0,0,1-2.3-2.684c0.117-1.508.175-3.053,0.175-4.6a2.57,2.57,0,0,1,2.5-2.582A2.432,2.432,0,0,1,773.333,879.837Z" transform="translate(-645 -805)"/>
</svg>
