<svg xmlns="http://www.w3.org/2000/svg" width="131" height="122" viewBox="0 0 131 122">
  <metadata><?xpacket begin="﻿" id="W5M0MpCehiHzreSzNTczkc9d"?>
<x:xmpmeta xmlns:x="adobe:ns:meta/" x:xmptk="Adobe XMP Core 5.6-c140 79.160451, 2017/05/06-01:08:21        ">
   <rdf:RDF xmlns:rdf="http://www.w3.org/1999/02/22-rdf-syntax-ns#">
      <rdf:Description rdf:about=""/>
   </rdf:RDF>
</x:xmpmeta>
                                                                                                    
                                                                                                    
                                                                                                    
                                                                                                    
                                                                                                    
                                                                                                    
                                                                                                    
                                                                                                    
                                                                                                    
                                                                                                    
                                                                                                    
                                                                                                    
                                                                                                    
                                                                                                    
                                                                                                    
                                                                                                    
                                                                                                    
                                                                                                    
                                                                                                    
                                                                                                    
                           
<?xpacket end="w"?></metadata>
<defs>
    <style>
      .cls-1 {
        fill-rule: evenodd;
        opacity: 0.1;
      }
    </style>
  </defs>
  <path id="diamond" class="cls-1" d="M414.545,508.852L352.912,597h-6.823l-61.633-88.148a2.517,2.517,0,0,1,.1-3.018l24.06-29.908a2.5,2.5,0,0,1,1.954-.937h77.857a2.506,2.506,0,0,1,1.954.937l24.059,29.908A2.519,2.519,0,0,1,414.545,508.852ZM344.453,585.9l-16.247-75.973H291.333Zm5.047-.4,16.161-75.573H333.339ZM310.368,481.762L291.756,504.9h33.822Zm4.86-1.746,14.986,22.792L344.9,480.016H315.228ZM334.84,504.9h29.32L349.5,482.139Zm19.265-24.882,14.681,22.792,14.986-22.792H354.105Zm34.528,1.746L373.422,504.9h33.822Zm-17.839,28.162L354.547,585.9l53.12-75.973H370.794Z" transform="translate(-284 -475)"/>
</svg>
