<svg xmlns="http://www.w3.org/2000/svg" width="144" height="122" viewBox="0 0 144 122">
  <metadata><?xpacket begin="﻿" id="W5M0MpCehiHzreSzNTczkc9d"?>
<x:xmpmeta xmlns:x="adobe:ns:meta/" x:xmptk="Adobe XMP Core 5.6-c140 79.160451, 2017/05/06-01:08:21        ">
   <rdf:RDF xmlns:rdf="http://www.w3.org/1999/02/22-rdf-syntax-ns#">
      <rdf:Description rdf:about=""/>
   </rdf:RDF>
</x:xmpmeta>
                                                                                                    
                                                                                                    
                                                                                                    
                                                                                                    
                                                                                                    
                                                                                                    
                                                                                                    
                                                                                                    
                                                                                                    
                                                                                                    
                                                                                                    
                                                                                                    
                                                                                                    
                                                                                                    
                                                                                                    
                                                                                                    
                                                                                                    
                                                                                                    
                                                                                                    
                                                                                                    
                           
<?xpacket end="w"?></metadata>
<defs>
    <style>
      .cls-1 {
        fill-rule: evenodd;
        opacity: 0.1;
      }
    </style>
  </defs>
  <path id="diamond-not-active" class="cls-1" d="M1215.55,519.852L1162.02,597h-22.04l-44.81-64.587a29,29,0,1,1,28.53-46.424h65.93a2.468,2.468,0,0,1,1.94.937l23.88,29.908A2.549,2.549,0,0,1,1215.55,519.852ZM1145.99,596.9l-16.12-75.974h-5.35a28.938,28.938,0,0,1-22.89,12.044Zm5.01-.4,16.04-75.573h-32.08ZM1101,480a24,24,0,1,0,24,24A24,24,0,0,0,1101,480Zm25.9,11.016a28.768,28.768,0,0,1,2.47,18.978l2.49,3.814,14.57-22.792H1126.9Zm9.55,24.881h29.1L1151,493.139Zm19.12-24.881,14.57,22.792,14.87-22.792h-29.44Zm34.26,1.746L1174.74,515.9h33.56Zm-17.7,28.162L1156.01,596.9l52.71-75.974h-36.59ZM1114,514l-3,4-10.08-10.578L1090.87,517l-3.87-3.842,10.31-9.52-9.31-9.77,3.84-3.868,9.32,10.089L1111,491l4,3-10.35,9.868Z" transform="translate(-1072 -475)"/>
</svg>
