<svg xmlns="http://www.w3.org/2000/svg" width="132" height="122" viewBox="0 0 132 122">
  <metadata><?xpacket begin="﻿" id="W5M0MpCehiHzreSzNTczkc9d"?>
<x:xmpmeta xmlns:x="adobe:ns:meta/" x:xmptk="Adobe XMP Core 5.6-c140 79.160451, 2017/05/06-01:08:21        ">
   <rdf:RDF xmlns:rdf="http://www.w3.org/1999/02/22-rdf-syntax-ns#">
      <rdf:Description rdf:about=""/>
   </rdf:RDF>
</x:xmpmeta>
                                                                                                    
                                                                                                    
                                                                                                    
                                                                                                    
                                                                                                    
                                                                                                    
                                                                                                    
                                                                                                    
                                                                                                    
                                                                                                    
                                                                                                    
                                                                                                    
                                                                                                    
                                                                                                    
                                                                                                    
                                                                                                    
                                                                                                    
                                                                                                    
                                                                                                    
                                                                                                    
                           
<?xpacket end="w"?></metadata>
<defs>
    <style>
      .cls-1 {
        fill-rule: evenodd;
        opacity: 0.1;
      }
    </style>
  </defs>
  <path id="diamond-active" class="cls-1" d="M815.548,508.852L754.386,597h-6.771l-20.077-28.935A28.986,28.986,0,0,1,694.6,520.59l-8.144-11.738a2.53,2.53,0,0,1,.1-3.018l23.876-29.908a2.477,2.477,0,0,1,1.939-.937h77.262a2.481,2.481,0,0,1,1.94.937l23.875,29.908A2.532,2.532,0,0,1,815.548,508.852ZM742,543.07l9,42.427,16.038-75.573H734.962l4.518,21.287A28.87,28.87,0,0,1,742,543C742,543.024,742,543.047,742,543.07Zm4,42.827-6.574-30.979a29.062,29.062,0,0,1-7.783,10.288ZM689,543a24,24,0,1,0,24-24A24,24,0,0,0,689,543Zm9.724-25.225a28.878,28.878,0,0,1,33.581,3.627l-2.436-11.478H693.277Zm13.442-36.013L693.7,504.9h33.564Zm4.824-1.746,14.871,22.792,14.569-22.792H716.99ZM736.452,504.9h29.1L751,482.139Zm19.118-24.882,14.569,22.792,14.871-22.792H755.57Zm34.264,1.746L774.739,504.9H808.3Zm-17.7,28.162L756.008,585.9l52.715-75.973H772.131ZM727,536.318L709.731,553.5l-3.841-3.818L700,543.807l3.842-3.818,5.9,5.867L723.158,532.5Z" transform="translate(-684 -475)"/>
</svg>
