<svg xmlns="http://www.w3.org/2000/svg" width="121.91" height="124.062" viewBox="0 0 121.91 124.062">
  <metadata><?xpacket begin="﻿" id="W5M0MpCehiHzreSzNTczkc9d"?>
<x:xmpmeta xmlns:x="adobe:ns:meta/" x:xmptk="Adobe XMP Core 5.6-c140 79.160451, 2017/05/06-01:08:21        ">
   <rdf:RDF xmlns:rdf="http://www.w3.org/1999/02/22-rdf-syntax-ns#">
      <rdf:Description rdf:about=""/>
   </rdf:RDF>
</x:xmpmeta>
                                                                                                    
                                                                                                    
                                                                                                    
                                                                                                    
                                                                                                    
                                                                                                    
                                                                                                    
                                                                                                    
                                                                                                    
                                                                                                    
                                                                                                    
                                                                                                    
                                                                                                    
                                                                                                    
                                                                                                    
                                                                                                    
                                                                                                    
                                                                                                    
                                                                                                    
                                                                                                    
                           
<?xpacket end="w"?></metadata>
<defs>
    <style>
      .cls-1 {
        fill-rule: evenodd;
        opacity: 0.05;
      }
    </style>
  </defs>
  <path id="euro" class="cls-1" d="M1116.63,777.558a47.96,47.96,0,0,1-6.45-.449,47.837,47.837,0,0,1-6.39.449,49.841,49.841,0,0,1-31.09-11.109,1.961,1.961,0,0,1-.38-0.306,58.452,58.452,0,0,1-10.13-10.567,2.007,2.007,0,0,1-.24-0.316,64.033,64.033,0,0,1-7.42-13.125,2.192,2.192,0,0,1-.1-0.256,68.725,68.725,0,0,1-5.18-26.349,69.429,69.429,0,0,1,2.19-17.347,2.084,2.084,0,0,1,.16-0.665,67.24,67.24,0,0,1,3.77-10.472,3.369,3.369,0,0,1,.14-0.33,63.31,63.31,0,0,1,8.11-13.1,3.018,3.018,0,0,1,.26-0.308,57.03,57.03,0,0,1,11.39-10.63,0.061,0.061,0,0,1,.01-0.007,49.47,49.47,0,0,1,28.51-9.176,47.837,47.837,0,0,1,6.39.449,47.8,47.8,0,0,1,6.45-.449c30.07,0,54.54,27.825,54.54,62.03S1146.7,777.558,1116.63,777.558Zm-21.92-5.223c-0.23-.116-0.45-0.256-0.69-0.374q-1.035-.546-2.07-1.139c-0.39-.228-0.79-0.448-1.17-0.686-0.87-.533-1.72-1.093-2.56-1.677-0.46-.319-0.9-0.652-1.35-0.984-0.27-.205-0.55-0.4-0.82-0.611h-5.18A45.664,45.664,0,0,0,1094.71,772.335Zm-20.02-9.749h6.44c-0.18-.171-0.34-0.356-0.51-0.529-0.43-.423-0.84-0.852-1.25-1.291-0.4-.424-0.8-0.843-1.18-1.279-0.69-.771-1.35-1.562-2-2.373-0.24-.312-0.48-0.628-0.73-0.945h-7.34A53.526,53.526,0,0,0,1074.69,762.586Zm-9.88-10.7h7.67c-0.4-.624-0.79-1.249-1.18-1.891-0.18-.306-0.34-0.62-0.52-0.931-0.47-.833-0.93-1.68-1.37-2.54-0.16-.315-0.32-0.626-0.48-0.946-0.36-.74-0.7-1.491-1.04-2.248h-8.1A59.3,59.3,0,0,0,1064.81,751.891Zm-6.88-12.834h8.24c-0.08-.231-0.16-0.466-0.24-0.7-0.09-.263-0.19-0.526-0.28-0.794-0.42-1.266-.82-2.547-1.17-3.85-0.02-.094-0.05-0.192-0.07-0.286-0.07-.259-0.13-0.524-0.2-0.785h-8.38A61.7,61.7,0,0,0,1057.93,739.057Zm-3.1-10.694h8.43c-0.21-1.168-.4-2.345-0.56-3.536a1.342,1.342,0,0,1-.02-0.2c-0.12-.89-0.22-1.782-0.31-2.682h-8.5A63.964,63.964,0,0,0,1054.83,728.363Zm-1.3-12.833c0,0.72.06,1.424,0.08,2.138h8.52c-0.02-.713-0.05-1.422-0.05-2.138,0-1.406.06-2.795,0.14-4.176v-0.1h-8.53C1053.61,712.667,1053.53,714.087,1053.53,715.53Zm1.72-14.973c-0.49,2.092-.84,4.239-1.13,6.416h8.49c0.03-.179.04-0.363,0.07-0.543a1.355,1.355,0,0,1,.02-0.2c0.18-1.373.41-2.725,0.67-4.068,0.06-.282.12-0.562,0.17-0.843,0.06-.254.11-0.511,0.16-0.763h-8.45Zm1.18-4.279h8.36c0.27-.936.55-1.864,0.86-2.784,0.09-.266.19-0.528,0.28-0.794,0.33-.959.69-1.9,1.06-2.838h-8.18A61.861,61.861,0,0,0,1056.43,696.278Zm9.99-19.249a58.136,58.136,0,0,0-5.56,8.555h8.02l0.06-.109c0.15-.319.32-0.631,0.48-0.945,0.43-.86.89-1.707,1.36-2.541,0.18-.311.35-0.626,0.53-0.931,0.58-.988,1.19-1.955,1.82-2.9,0.25-.381.52-0.753,0.78-1.127h-7.49Zm11.13-10.7a51.93,51.93,0,0,0-7.43,6.417h7.07c0.33-.4.66-0.794,1-1.179,0.38-.437.78-0.856,1.18-1.279,0.41-.439.83-0.869,1.25-1.292s0.84-.848,1.27-1.254c0.51-.482,1.04-0.95,1.57-1.413h-5.91Zm7.37-4.278h4.11c0.58-.387,1.16-0.771,1.75-1.132,0.38-.238.78-0.459,1.17-0.687q1.035-.592,2.07-1.138c0.24-.119.46-0.26,0.69-0.376A44.912,44.912,0,0,0,1084.92,662.056Zm31.71-4.278a43.977,43.977,0,0,0-5.03.29l-0.86.121c-0.1.012-.21,0.029-0.31,0.045-0.74.1-1.48,0.229-2.21,0.369l-0.17.035c-0.71.141-1.42,0.3-2.12,0.471-0.1.023-.2,0.051-0.3,0.076q-0.975.251-1.95,0.544c-0.18.058-.37,0.124-0.56,0.183-0.55.177-1.1,0.356-1.64,0.553-0.43.155-.85,0.327-1.28,0.5-0.3.121-.6,0.232-0.9,0.355-11.5,4.869-21.04,14.436-26.84,26.671a3.094,3.094,0,0,0-.13.281q-0.48,1.026-.93,2.078c-0.11.257-.21,0.521-0.32,0.779-0.22.545-.44,1.091-0.64,1.645-0.13.338-.25,0.68-0.37,1.02-0.17.486-.34,0.971-0.5,1.463-0.13.385-.25,0.775-0.36,1.163-0.14.46-.28,0.92-0.41,1.384-0.12.413-.23,0.828-0.34,1.246-0.12.453-.23,0.91-0.34,1.369-0.1.427-.2,0.855-0.29,1.287-0.1.457-.19,0.92-0.28,1.381-0.08.435-.16,0.869-0.24,1.308-0.08.479-.15,0.96-0.22,1.441-0.07.428-.13,0.856-0.19,1.286-0.06.515-.12,1.036-0.17,1.555-0.04.4-.09,0.8-0.12,1.208-0.06.6-.09,1.2-0.12,1.8-0.02.336-.05,0.67-0.07,1.007-0.03.944-.06,1.891-0.06,2.846s0.03,1.9.06,2.844c0.01,0.337.04,0.672,0.06,1.007q0.045,0.9.12,1.8l0.12,1.209c0.06,0.519.11,1.039,0.18,1.555,0.05,0.43.12,0.857,0.18,1.285,0.07,0.483.14,0.965,0.22,1.442,0.08,0.439.16,0.872,0.25,1.307,0.08,0.462.18,0.924,0.27,1.381,0.1,0.43.19,0.86,0.3,1.288,0.1,0.458.22,0.915,0.34,1.369,0.1,0.417.22,0.832,0.33,1.245,0.13,0.464.27,0.924,0.41,1.383,0.12,0.39.24,0.78,0.37,1.164,0.16,0.492.33,0.978,0.5,1.463,0.12,0.341.24,0.682,0.36,1.02,0.21,0.554.43,1.1,0.65,1.646,0.11,0.258.21,0.521,0.32,0.778,0.29,0.7.6,1.395,0.92,2.079,0.05,0.092.09,0.188,0.13,0.28,5.81,12.232,15.35,21.8,26.85,26.671,0.3,0.126.6,0.237,0.9,0.354,0.42,0.17.85,0.341,1.27,0.5,0.55,0.2,1.1.376,1.65,0.552,0.19,0.06.37,0.126,0.56,0.184q0.975,0.294,1.95.543c0.1,0.023.2,0.053,0.3,0.077,0.7,0.173,1.4.329,2.12,0.471l0.16,0.033q1.11,0.213,2.22.371c0.1,0.012.21,0.03,0.31,0.045l0.85,0.12a44.285,44.285,0,0,0,5.04.29c27.71,0,50.26-25.906,50.26-57.75S1144.34,657.778,1116.63,657.778Zm42.26,62.014a2.145,2.145,0,0,1-2.13,1.975c-0.06,0-.12,0-0.17-0.007a2.139,2.139,0,0,1-1.97-2.3c0.1-1.29.15-2.612,0.15-3.933a2.2,2.2,0,0,1,2.14-2.208,2.083,2.083,0,0,1,2.14,2.068v0.137C1159.05,716.958,1158.99,718.393,1158.89,719.792Zm-3.02-14.917a2.134,2.134,0,0,1-2.59-1.555c-0.33-1.305-.72-2.614-1.16-3.888a2.141,2.141,0,0,1,4.05-1.391c0.48,1.391.9,2.818,1.26,4.24A2.145,2.145,0,0,1,1155.87,704.875Zm-0.95,25.162a2.134,2.134,0,0,1,1.34,2.708c-0.47,1.395-1.01,2.784-1.59,4.129a2.146,2.146,0,0,1-1.97,1.285,2.11,2.11,0,0,1-.85-0.178,2.143,2.143,0,0,1-1.11-2.814c0.54-1.234,1.03-2.507,1.47-3.786A2.139,2.139,0,0,1,1154.92,730.037Zm-5.22-40.89a2.1,2.1,0,0,1-1.19.369,2.137,2.137,0,0,1-1.78-.939c-0.75-1.113-1.57-2.2-2.42-3.237a2.141,2.141,0,0,1,3.31-2.718c0.93,1.138,1.83,2.333,2.65,3.555A2.13,2.13,0,0,1,1149.7,689.147Zm-2.22,56.064a2.143,2.143,0,0,1,.32,3.01c-0.94,1.148-1.94,2.26-2.97,3.306a2.133,2.133,0,0,1-1.52.636,2.146,2.146,0,0,1-1.53-3.643c0.94-.95,1.85-1.959,2.7-3A2.131,2.131,0,0,1,1147.48,745.211Zm-39.2-11.937a19.387,19.387,0,0,0,12.73,4.3c6.24,0,11.33-2.017,15.13-5.99a2.109,2.109,0,0,1,1.5-.715,1.8,1.8,0,0,1,1.28.56,2.491,2.491,0,0,1,.87,1.656,2.031,2.031,0,0,1-.67,1.456,24.988,24.988,0,0,1-18.11,7.253,23.414,23.414,0,0,1-15.59-5.392,24.039,24.039,0,0,1-7.92-13.359h-5.66a2.11,2.11,0,1,1,0-4.22h4.97c-0.09-.914-0.14-1.926-0.14-3.03,0-1.129.05-2.19,0.14-3.165h-3.58a2.11,2.11,0,1,1,0-4.22h4.28a25,25,0,0,1,7.57-13.268,21.225,21.225,0,0,1,14.68-5.482,23.56,23.56,0,0,1,15.11,5.615v-2.808a2.11,2.11,0,1,1,4.22,0v13.2a2.11,2.11,0,1,1-4.22,0v-4.456a24.993,24.993,0,0,0-3.93-3.5,20.073,20.073,0,0,0-11.77-3.825A16.431,16.431,0,0,0,1108,698.2a20.673,20.673,0,0,0-6.18,10.216h18.49a2.11,2.11,0,1,1,0,4.22h-19.26a30.771,30.771,0,0,0-.16,3.166,27.63,27.63,0,0,0,.15,3.028h17.88a2.111,2.111,0,0,1,0,4.221h-17.1A19.85,19.85,0,0,0,1108.28,733.274Zm28.26-55.63a2.1,2.1,0,0,1-1.16-.349,37.035,37.035,0,0,0-3.47-2,2.139,2.139,0,1,1,1.93-3.819,40.163,40.163,0,0,1,3.87,2.232A2.138,2.138,0,0,1,1136.54,677.644Zm-15.77-5.775a1.806,1.806,0,0,1-.25-0.015,34.28,34.28,0,0,0-3.89-.225,2.176,2.176,0,0,1-2.19-2.139,2.1,2.1,0,0,1,2.09-2.138v2.138l0.03-2.138a37.369,37.369,0,0,1,4.45.254A2.138,2.138,0,0,1,1120.77,671.869Zm-15.93,1.9a35.039,35.039,0,0,0-3.65,1.611,2.142,2.142,0,0,1-2.88-.932,2.131,2.131,0,0,1,.94-2.877,38.768,38.768,0,0,1,4.09-1.807A2.138,2.138,0,1,1,1104.84,673.766Zm-16.01,11.709a2.138,2.138,0,1,1-3.31-2.706c0.94-1.15,1.94-2.263,2.97-3.3a2.14,2.14,0,0,1,3.04,3.012A40.162,40.162,0,0,0,1088.83,685.475Zm-2.36,56.934c0.77,1.129,1.58,2.22,2.41,3.241a2.135,2.135,0,0,1-1.65,3.5,2.121,2.121,0,0,1-1.65-.783c-0.92-1.123-1.81-2.321-2.65-3.559A2.137,2.137,0,1,1,1086.47,742.409Zm-5.39-42.813a2.143,2.143,0,0,1-4.06-1.375c0.48-1.4,1.02-2.787,1.6-4.126a2.14,2.14,0,0,1,3.92,1.719C1082,697.04,1081.51,698.313,1081.08,699.6Zm-2.44,11.912c-0.1,1.335-.16,2.688-0.16,4.022a2.151,2.151,0,0,1-2.14,2.157,2.113,2.113,0,0,1-2.13-2.115v-0.045c0-1.444.05-2.911,0.17-4.357A2.137,2.137,0,1,1,1078.64,711.508Zm-1.28,14.586a2.131,2.131,0,0,1,2.59,1.559c0.33,1.309.72,2.618,1.15,3.89a2.147,2.147,0,0,1-1.33,2.717,2.191,2.191,0,0,1-.69.116,2.152,2.152,0,0,1-2.03-1.449c-0.47-1.39-.89-2.817-1.25-4.241A2.147,2.147,0,0,1,1077.36,726.094Zm20.44,27.622a36.979,36.979,0,0,0,3.46,2.006,2.137,2.137,0,1,1-1.93,3.814,41.56,41.56,0,0,1-3.87-2.242A2.138,2.138,0,1,1,1097.8,753.716Zm14.85,5.477a33.585,33.585,0,0,0,3.98.236,2.221,2.221,0,0,1,2.23,2.14,2.066,2.066,0,0,1-2.05,2.14h-0.18a37.863,37.863,0,0,1-4.48-.266A2.14,2.14,0,0,1,1112.65,759.193Zm15.84-1.931a35.327,35.327,0,0,0,3.65-1.62,2.141,2.141,0,0,1,1.96,3.806,40.057,40.057,0,0,1-4.1,1.816,2.169,2.169,0,0,1-.76.139A2.139,2.139,0,0,1,1128.49,757.262Z" transform="translate(-1049.25 -653.5)"/>
</svg>
