<svg xmlns="http://www.w3.org/2000/svg" width="130" height="130" viewBox="0 0 130 130">
  <metadata><?xpacket begin="﻿" id="W5M0MpCehiHzreSzNTczkc9d"?>
<x:xmpmeta xmlns:x="adobe:ns:meta/" x:xmptk="Adobe XMP Core 5.6-c140 79.160451, 2017/05/06-01:08:21        ">
   <rdf:RDF xmlns:rdf="http://www.w3.org/1999/02/22-rdf-syntax-ns#">
      <rdf:Description rdf:about=""/>
   </rdf:RDF>
</x:xmpmeta>
                                                                                                    
                                                                                                    
                                                                                                    
                                                                                                    
                                                                                                    
                                                                                                    
                                                                                                    
                                                                                                    
                                                                                                    
                                                                                                    
                                                                                                    
                                                                                                    
                                                                                                    
                                                                                                    
                                                                                                    
                                                                                                    
                                                                                                    
                                                                                                    
                                                                                                    
                                                                                                    
                           
<?xpacket end="w"?></metadata>
<defs>
    <style>
      .cls-1 {
        fill-rule: evenodd;
        opacity: 0.05;
      }
    </style>
  </defs>
  <path id="games" class="cls-1" d="M909.961,153.038A65,65,0,1,0,929,199,64.572,64.572,0,0,0,909.961,153.038Zm14.72,43.823h-7.023a53.5,53.5,0,0,0-14.221-34.275l4.962-4.962A60.5,60.5,0,0,1,924.681,196.861ZM864,235.191A36.191,36.191,0,1,1,900.191,199,36.232,36.232,0,0,1,864,235.191Zm18.931,9.464a49.042,49.042,0,0,1-12.5,3.353l-0.782-8.936a40.12,40.12,0,0,0,9.486-2.544Zm-49-72.7a40.658,40.658,0,0,0-5.639,8.033l-8.13-3.791a49.655,49.655,0,0,1,7.43-10.583Zm-3.314-9.366a49.691,49.691,0,0,1,10.583-7.43l3.792,8.13a40.658,40.658,0,0,0-8.036,5.641Zm-4.14,21.274a40.123,40.123,0,0,0-2.544,9.488l-8.939-.784a49.017,49.017,0,0,1,3.354-12.5Zm-2.914,13.749c-0.016.463-.027,0.926-0.027,1.392a40.452,40.452,0,0,0,.878,8.393l-8.666,2.321A49.46,49.46,0,0,1,814.57,199c0-.729.019-1.454,0.051-2.175Zm1.959,13.916a40.318,40.318,0,0,0,4.162,8.894l-7.347,5.145a49.22,49.22,0,0,1-5.482-11.717Zm6.619,12.4a40.788,40.788,0,0,0,6.942,6.942l-5.142,7.343a49.872,49.872,0,0,1-9.143-9.143Zm10.444,9.4a40.252,40.252,0,0,0,8.894,4.163l-2.321,8.665a49.22,49.22,0,0,1-11.717-5.482Zm2.489-79.977a49.038,49.038,0,0,1,12.5-3.353l0.783,8.939a40.093,40.093,0,0,0-9.487,2.544Zm50.793,20.734a40.831,40.831,0,0,0-6.94-6.939l5.141-7.344a49.867,49.867,0,0,1,9.142,9.143Zm9.8-1.641a49.274,49.274,0,0,1,5.481,11.717l-8.665,2.322a40.313,40.313,0,0,0-4.163-8.9ZM885.42,164.68a40.358,40.358,0,0,0-8.9-4.163l2.323-8.667a49.316,49.316,0,0,1,11.717,5.482Zm5.629,64.394,6.339,6.337a49.605,49.605,0,0,1-10.583,7.43l-3.79-8.127A40.682,40.682,0,0,0,891.049,229.074Zm3.025-3.025a40.636,40.636,0,0,0,5.641-8.037l8.127,3.791a49.651,49.651,0,0,1-7.429,10.583Zm7.455-11.911a40.118,40.118,0,0,0,2.543-9.486l8.936,0.782a49,49,0,0,1-3.352,12.5Zm2.913-13.748c0.016-.461.027-0.924,0.027-1.39a40.454,40.454,0,0,0-.878-8.394l8.662-2.322A49.416,49.416,0,0,1,913.427,199c0,0.728-.019,1.451-0.051,2.171Zm-38.3-62.07A60.5,60.5,0,0,1,905.374,154.6l-4.962,4.961a53.5,53.5,0,0,0-34.273-14.221V138.32Zm8.576,12.423-2.323,8.665a40.5,40.5,0,0,0-8.392-.877c-0.465,0-.928.011-1.39,0.026l-0.783-8.937c0.721-.031,1.445-0.05,2.173-0.05A49.407,49.407,0,0,1,874.715,150.743Zm-12.854-12.424v7.02a53.5,53.5,0,0,0-34.276,14.222l-4.981-4.982A60.251,60.251,0,0,1,861.861,138.319ZM819.579,157.6l4.981,4.981a53.5,53.5,0,0,0-14.221,34.276h-7.02A60.248,60.248,0,0,1,819.579,157.6Zm-16.26,43.535h7.019a53.5,53.5,0,0,0,14.222,34.273l-4.961,4.962A60.5,60.5,0,0,1,803.319,201.139Zm58.542,58.542A60.5,60.5,0,0,1,822.623,243.4l4.962-4.962a53.506,53.506,0,0,0,34.276,14.222v7.022h0Zm-8.576-12.427,2.321-8.663a40.454,40.454,0,0,0,8.394.878c0.466,0,.93-0.011,1.392-0.027l0.781,8.935c-0.72.031-1.445,0.05-2.173,0.05A49.4,49.4,0,0,1,853.285,247.254Zm12.854,12.427v-7.023h0a53.5,53.5,0,0,0,34.274-14.221l4.962,4.963A60.494,60.494,0,0,1,866.139,259.681ZM908.4,240.375l-4.963-4.962a53.5,53.5,0,0,0,14.221-34.274h7.023A60.5,60.5,0,0,1,908.4,240.375Zm-22.2-28.2a6.383,6.383,0,0,0-7.241-1.246l-9.2-9.2a6.4,6.4,0,0,0,0-5.461l9.2-9.2a6.376,6.376,0,1,0-3.025-3.024l-9.2,9.2a6.4,6.4,0,0,0-5.461,0l-9.2-9.2a6.387,6.387,0,1,0-3.025,3.025l9.2,9.2a6.4,6.4,0,0,0,0,5.461l-9.2,9.2a6.377,6.377,0,1,0,3.025,3.025l9.2-9.2a6.334,6.334,0,0,0,5.462,0l9.2,9.2A6.375,6.375,0,1,0,886.2,212.179Zm-6-32.353a2.1,2.1,0,1,1-.615,1.485A2.09,2.09,0,0,1,880.2,179.826ZM847.8,182.8a2.1,2.1,0,1,1,0-2.97A2.1,2.1,0,0,1,847.8,182.8Zm0,35.378a2.1,2.1,0,1,1,0-2.969A2.1,2.1,0,0,1,847.8,218.174Zm17.689-17.689a2.1,2.1,0,1,1,0-2.97A2.1,2.1,0,0,1,865.485,200.485Zm17.689,17.689a2.1,2.1,0,0,1-3.585-1.485,2.1,2.1,0,0,1,3.585-1.484A2.1,2.1,0,0,1,883.174,218.174Z" transform="translate(-799 -134)"/>
</svg>
