<svg xmlns="http://www.w3.org/2000/svg" width="140" height="134" viewBox="0 0 140 134">
  <metadata><?xpacket begin="﻿" id="W5M0MpCehiHzreSzNTczkc9d"?>
<x:xmpmeta xmlns:x="adobe:ns:meta/" x:xmptk="Adobe XMP Core 5.6-c140 79.160451, 2017/05/06-01:08:21        ">
   <rdf:RDF xmlns:rdf="http://www.w3.org/1999/02/22-rdf-syntax-ns#">
      <rdf:Description rdf:about=""/>
   </rdf:RDF>
</x:xmpmeta>
                                                                                                    
                                                                                                    
                                                                                                    
                                                                                                    
                                                                                                    
                                                                                                    
                                                                                                    
                                                                                                    
                                                                                                    
                                                                                                    
                                                                                                    
                                                                                                    
                                                                                                    
                                                                                                    
                                                                                                    
                                                                                                    
                                                                                                    
                                                                                                    
                                                                                                    
                                                                                                    
                           
<?xpacket end="w"?></metadata>
<defs>
    <style>
      .cls-1 {
        fill-rule: evenodd;
        opacity: 0.05;
      }
    </style>
  </defs>
  <path id="_list" data-name=" list" class="cls-1" d="M1181.51,684l3.49-6h-11l0.5,0.71,3.02,5.29H1170v-4l-3-4.335V560h-23v7h18V684h-98V567h18v-7h-25V684h-5V555h47v-3c0-1.383,1.62-2,3-2h22.5a2.5,2.5,0,0,1,2.5,2.5V555h40.45a7.465,7.465,0,0,1,7.02-5h10.07a7.472,7.472,0,0,1,7.46,7.463v118.2L1187.24,684h-5.73ZM1122,557.667V555h-18v8h18v-5.333ZM1139,567v-7h-12v8h-28v-8h-12v10h52v-3Zm-54.5,8H1082v-3h-13V682h88V572h-13v3h-59.5ZM1187,557.463a2.462,2.462,0,0,0-2.46-2.463h-10.08a2.469,2.469,0,0,0-2.46,2.463V568h15V557.463ZM1187,573h-15v5h15v-5Zm0,10h-15v90h15V583Zm-37.99,20.5a2.5,2.5,0,0,1-2.5,2.5h-40.02a2.5,2.5,0,0,1,0-5h40.02A2.5,2.5,0,0,1,1149.01,603.5Zm-48.14,49.952-12.44,10a2.486,2.486,0,0,1-3.32-.185l-4.98-5a2.511,2.511,0,0,1,0-3.535,2.48,2.48,0,0,1,3.52,0l3.41,3.418,10.7-8.6A2.5,2.5,0,0,1,1100.87,653.452Zm0-27.5-12.44,10a2.488,2.488,0,0,1-3.32-.186l-4.98-5a2.512,2.512,0,0,1,0-3.536,2.48,2.48,0,0,1,3.52,0l3.41,3.418,10.7-8.6A2.5,2.5,0,0,1,1100.87,625.953Zm0-27.5-12.44,10a2.488,2.488,0,0,1-3.32-.186l-4.98-5a2.511,2.511,0,0,1,0-3.535,2.478,2.478,0,0,1,3.52,0l3.41,3.417,10.7-8.6A2.5,2.5,0,0,1,1100.87,598.453ZM1106.49,629h40.02a2.5,2.5,0,0,1,0,5h-40.02A2.5,2.5,0,0,1,1106.49,629Zm0,28h40.02a2.5,2.5,0,0,1,0,5h-40.02A2.5,2.5,0,0,1,1106.49,657Z" transform="translate(-1052 -550)"/>
</svg>
