<svg xmlns="http://www.w3.org/2000/svg" width="150" height="131.5" viewBox="0 0 150 131.5">
  <metadata><?xpacket begin="﻿" id="W5M0MpCehiHzreSzNTczkc9d"?>
<x:xmpmeta xmlns:x="adobe:ns:meta/" x:xmptk="Adobe XMP Core 5.6-c140 79.160451, 2017/05/06-01:08:21        ">
   <rdf:RDF xmlns:rdf="http://www.w3.org/1999/02/22-rdf-syntax-ns#">
      <rdf:Description rdf:about=""/>
   </rdf:RDF>
</x:xmpmeta>
                                                                                                    
                                                                                                    
                                                                                                    
                                                                                                    
                                                                                                    
                                                                                                    
                                                                                                    
                                                                                                    
                                                                                                    
                                                                                                    
                                                                                                    
                                                                                                    
                                                                                                    
                                                                                                    
                                                                                                    
                                                                                                    
                                                                                                    
                                                                                                    
                                                                                                    
                                                                                                    
                           
<?xpacket end="w"?></metadata>
<defs>
    <style>
      .cls-1 {
        fill-rule: evenodd;
        opacity: 0.05;
      }
    </style>
  </defs>
  <path id="money" class="cls-1" d="M1184,879.149V895.49a5.51,5.51,0,0,1-.49,2.25c5.16,2.137,7.78,4.694,7.95,7.76h0.04v17.49c-0.02,6.576-11.72,11.179-26.9,14.01h-81.23c-15.16-2.831-26.85-7.431-26.87-14V905.5h0.04a5.6,5.6,0,0,1,.33-1.555c-4.88-2.338-7.86-5.142-7.87-8.449V878h0.03c0.24-4.207,5.15-7.5,14.97-10.033V850.5h0.04a5.48,5.48,0,0,1,.22-1.268c-9.12-2.767-15.25-6.484-15.26-11.234V820.5h0.04c0.9-14.57,60.6-15,67.46-15s66.56,0.43,67.46,15H1184v17.49a5.489,5.489,0,0,1-.54,2.34c10.18,2.55,15.27,5.893,15.51,10.17H1199v17.49C1198.99,872.7,1192.98,876.39,1184,879.149Zm-5,48.9c4.86-1.825,7.5-3.655,7.5-5.062V912.64a37.361,37.361,0,0,1-7.5,3.44v11.967Zm-12.5,3.488q4.155-.882,7.5-1.852V917.605c-2.33.63-4.85,1.206-7.5,1.727v12.2Zm-12.5,2.111c2.64-.349,5.15-0.731,7.5-1.146V920.225q-3.63.59-7.5,1.055v12.366Zm-12.5,1.246q3.9-.272,7.5-0.657V921.82q-3.69.357-7.5,0.6v12.467Zm-15,.591q5.19-.049,10-0.29V922.71c-2.5.115-5.02,0.193-7.54,0.24-0.13,0-.26,0-0.4,0-0.68.013-1.37,0.022-2.06,0.03v12.5Zm-15-.288c3.21,0.157,6.55.258,10,.29v-12.5c-0.69-.008-1.37-0.018-2.06-0.031-0.13,0-.27,0-0.4,0q-3.78-.067-7.54-0.24V935.2Zm-12.5-.958q3.6,0.38,7.5.658V922.428c-2.53-.168-5.04-0.37-7.5-0.608v12.417Zm-12.5-1.734c2.35,0.415,4.86.8,7.5,1.145V921.283q-3.87-.465-7.5-1.055V932.5Zm-12.5-2.82c2.23,0.643,4.74,1.264,7.5,1.852v-12.2c-2.65-.519-5.16-1.1-7.5-1.727v12.078Zm38.7-11.936c0.9,0.037,1.8.076,2.72,0.106,0.75,0.025,1.49.05,2.24,0.067,2.07,0.048,4.18.08,6.34,0.08s4.27-.032,6.34-0.078c0.76-.019,1.51-0.042,2.26-0.067,0.91-.03,1.81-0.067,2.7-0.106,17.54-.774,31.38-3.277,40.23-6.009,6.83-2.11,10.67-4.355,10.94-6.048-0.16-.627-1.52-2.2-6.46-3.962-0.22.157-.5,0.308-0.74,0.462-0.25.17-.52,0.338-0.8,0.5-0.22.133-.45,0.268-0.69,0.4-4.38,2.432-10.77,4.394-18.16,5.91-0.17.037-.35,0.073-0.52,0.107-0.79.158-1.58,0.31-2.38,0.458-3.91.733-8.12,1.362-12.56,1.875-0.06,0-.1.032-0.16,0.032a0.309,0.309,0,0,0-.04-0.007c-3.99.456-8.14,0.824-12.42,1.082-0.02,0-.02.007-0.04,0.007a0.052,0.052,0,0,0-.02,0c-3.52.211-7.12,0.346-10.77,0.406-1.42.024-2.83,0.042-4.21,0.042-1.04,0-2.09-.01-3.16-0.03-4-.047-7.96-0.19-11.83-0.42l-0.01,0-0.01,0a182.387,182.387,0,0,1-33.28-4.728c-0.41-.1-0.82-0.207-1.22-0.314l-0.81-.222q-1.05-.294-2.07-0.6c-0.08-.024-0.16-0.048-0.24-0.074q-1.185-.369-2.31-0.758c0.48,1.674,4.3,3.844,10.91,5.886C1081.32,914.47,1095.16,916.973,1112.7,917.747Zm67.71-42.757,1.09-.305V862.608c-2.33.629-4.84,1.205-7.5,1.727v12.2c0.2-.044.4-0.081,0.6-0.123,0.65-.14,1.28-0.285,1.9-0.43C1177.85,875.662,1179.17,875.338,1180.41,874.99Zm-8.91,13.59V900.5a22.328,22.328,0,0,0,6.38-3.45l0.85-.747a1.551,1.551,0,0,0,.27-0.818V885.14A37.305,37.305,0,0,1,1171.5,888.58Zm-5,13.6V890.105c-2.33.63-4.84,1.2-7.5,1.728v12.2C1161.77,903.448,1164.27,902.825,1166.5,902.182ZM1154,905V892.725q-3.63.588-7.5,1.055v12.365C1149.14,905.8,1151.65,905.415,1154,905Zm-12.5,1.735V894.32q-3.69.36-7.5,0.608V907.4c0.56-.04,1.12-0.082,1.67-0.125,0.36-.028.72-0.055,1.08-0.088C1138.38,907.05,1139.96,906.9,1141.5,906.735Zm-12.5.954V895.208c-2.5.114-5.02,0.192-7.54,0.24l-0.39.007q-1.035.018-2.07,0.03v12.487c0.91-.007,1.82-0.012,2.72-0.03,0.36-.007.73-0.011,1.1-0.022,1.54-.038,3.06-0.087,4.57-0.155C1127.93,907.743,1128.47,907.718,1129,907.689Zm-15,.293v-12.5c-0.69-.007-1.37-0.017-2.06-0.03l-0.4-.007c-2.51-.045-5.03-0.123-7.54-0.24v12.479c1.35,0.066,2.7.124,4.06,0.168q0.21,0.009.42,0.015,1.695,0.053,3.42.084c0.21,0,.43.009,0.65,0.014C1113.03,907.977,1113.52,907.977,1114,907.982Zm-15-.6V894.93c-2.53-.168-5.04-0.37-7.5-0.608v12.413c0.18,0.018.36,0.04,0.54,0.057,0.25,0.026.5,0.053,0.76,0.078C1094.82,907.068,1096.9,907.237,1099,907.387Zm-12.5-1.242V893.78q-3.87-.462-7.5-1.055V905Q1082.54,905.623,1086.5,906.145Zm-12.5-2.108v-12.2c-2.65-.523-5.16-1.1-7.5-1.727v12.077c0.08,0.022.16,0.045,0.24,0.07,0.3,0.088.62,0.17,0.92,0.257C1069.59,903.037,1071.7,903.55,1074,904.037Zm-12.5,18.953c0.01,1.407,2.64,3.235,7.5,5.057v-11.97a37.362,37.362,0,0,1-7.5-3.439V922.99Zm-7.5-27.5c0.01,1.26,2.12,2.858,6.04,4.485l0.03-.03,1.43,0.555V888.578a37.361,37.361,0,0,1-7.5-3.44V895.49Zm0.03-17.335c0.22,1.7,4.07,3.958,10.94,6.082,8.85,2.733,22.69,5.235,40.23,6.01,0.89,0.039,1.79.078,2.71,0.105,0.75,0.026,1.5.05,2.26,0.068,2.07,0.048,4.17.081,6.33,0.081,1.63,0,3.21-.024,4.78-0.049,0.62-.012,1.25-0.022,1.86-0.037,0.57-.014,1.12-0.036,1.69-0.053,18.95-.61,33.86-3.237,43.2-6.122a45.256,45.256,0,0,0,7.39-2.89,193.227,193.227,0,0,1-28.86,3.695c-0.02,0-.04.013-0.06,0.013a0.274,0.274,0,0,0-.04-0.008c-3.17.185-6.39,0.32-9.66,0.388-1.8.042-3.57,0.062-5.3,0.062-1.5,0-3.04-.02-4.61-0.053-3.53-.059-7-0.2-10.38-0.395l-0.01,0c-0.01,0-.01,0-0.02,0a192.614,192.614,0,0,1-28.31-3.59c-0.67-.137-1.32-0.28-1.97-0.424-0.21-.048-0.42-0.093-0.62-0.141-8.83-2.024-15.92-4.739-19.34-8.2-0.03-.039-0.09-0.074-0.13-0.115C1056.83,874.862,1054.31,877.215,1054.03,878.155ZM1169,877.5V865.225q-3.63.588-7.5,1.055v12.353c0.65-.083,1.3-0.161,1.94-0.25q1-.143,1.98-0.291c1.14-.171,2.25-0.36,3.35-0.55C1168.85,877.53,1168.92,877.515,1169,877.5Zm-12.5,1.722v-12.4q-3.69.358-7.5,0.607v12.446c0.95-.068,1.91-0.118,2.84-0.2l0.27-.026C1153.6,879.528,1155.05,879.375,1156.5,879.222Zm-12.5.958V867.71c-2.5.115-5.02,0.192-7.54,0.24l-0.4.008c-0.68.013-1.37,0.022-2.06,0.03v12.48C1137.38,880.433,1140.72,880.343,1144,880.18Zm-15,.29V867.988c-0.69-.008-1.38-0.017-2.06-0.03l-0.4-.008q-3.78-.068-7.54-0.24v12.483c0.1,0,.19.007,0.29,0.012,1.81,0.088,3.64.16,5.52,0.207,0.19,0.006.37,0.008,0.56,0.013C1126.55,880.452,1127.78,880.457,1129,880.47Zm-15-.582V867.427c-2.53-.167-5.04-0.37-7.5-0.607v12.415c0.07,0,.13.015,0.2,0.022,0.33,0.034.65,0.069,0.98,0.1,1.53,0.153,3.09.291,4.69,0.416l1.01,0.074C1113.58,879.862,1113.8,879.873,1114,879.888Zm-12.5-1.241V866.282q-3.87-.464-7.5-1.054v12.26c0.94,0.165,1.87.334,2.86,0.493,0.06,0.007.12,0.017,0.18,0.029C1098.47,878.234,1099.97,878.445,1101.5,878.647Zm-12.5-2.132V864.332c-2.65-.519-5.16-1.1-7.5-1.726v12.031C1083.73,875.293,1086.24,875.923,1089,876.515Zm-12.5-3.56V861.077a37.307,37.307,0,0,1-7.5-3.439V867.99a1.97,1.97,0,0,0,.04.238l0.17,0.28C1070.03,869.888,1072.57,871.437,1076.5,872.955Zm-7.29-27.533c1.24,0.323,2.54.628,3.87,0.921l0.92,0.194v-12.2c-2.65-.523-5.16-1.1-7.5-1.728v12.079C1067.37,844.932,1068.26,845.18,1069.21,845.422ZM1054,837.99c0.01,1.407,2.64,3.235,7.5,5.058V831.077a37.25,37.25,0,0,1-7.5-3.44V837.99Zm62.5-27.49c-41.22,0-62.07,6.49-62.46,10.215,0.3,1.69,4.14,3.922,10.93,6.022,8.85,2.734,22.69,5.235,40.23,6.01,0.89,0.038,1.79.078,2.71,0.106,0.75,0.024,1.5.049,2.26,0.067,2.07,0.047,4.17.081,6.33,0.081s4.27-.034,6.33-0.081c0.77-.02,1.52-0.043,2.27-0.067,0.91-.03,1.81-0.068,2.7-0.106,17.54-.775,31.38-3.276,40.23-6.01,6.79-2.1,10.63-4.332,10.93-6.022C1178.57,816.99,1157.72,810.5,1116.5,810.5ZM1079,835.227V847.5c0.27,0.048.54,0.1,0.82,0.145,1.38,0.233,2.8.455,4.24,0.663,0.32,0.045.62,0.092,0.94,0.138,0.49,0.067,1.01.119,1.5,0.184V836.28C1083.92,835.973,1081.42,835.617,1079,835.227Zm12.5,1.593v12.4c2.45,0.257,4.96.466,7.5,0.647V837.428C1096.47,837.26,1093.96,837.058,1091.5,836.82Zm12.5,0.892v12.474c3.29,0.164,6.64.251,10,.284V837.988c-0.69-.008-1.37-0.018-2.06-0.031-0.13,0-.27,0-0.4,0Q1107.76,837.884,1104,837.712Zm15,0.276v12.487c0.9-.01,1.81-0.012,2.7-0.03,0.27-.008.54-0.01,0.81-0.017,1.74-.041,3.45-0.1,5.12-0.17,0.04,0,.08,0,0.11-0.006,0.43-.02.84-0.049,1.26-0.07V837.71c-2.5.114-5.02,0.193-7.54,0.24l-0.4.007C1120.38,837.97,1119.69,837.98,1119,837.988Zm15-.56v12.455q3.885-.278,7.5-0.663v-12.4Q1137.81,837.177,1134,837.428Zm12.5-1.148v12.349c2.64-.343,5.13-0.729,7.5-1.149V835.225Q1150.37,835.813,1146.5,836.28Zm12.5-1.945v12.182c2.74-.585,5.26-1.207,7.5-1.86v-12.05C1164.17,833.238,1161.66,833.812,1159,834.335Zm20-6.7a37.25,37.25,0,0,1-7.5,3.44V842.97a24.32,24.32,0,0,0,5.95-3.073l0.91-.707,0.07,0.015a1.972,1.972,0,0,0,.57-1.222V827.637Zm0.55,16.908c-0.15.1-.34,0.2-0.5,0.3-0.28.177-.58,0.352-0.88,0.525-0.26.15-.5,0.3-0.78,0.451-0.62.331-1.29,0.651-1.98,0.964-0.19.083-.38,0.162-0.57,0.245-0.65.282-1.33,0.56-2.03,0.828-0.15.054-.29,0.11-0.43,0.165-0.84.31-1.71,0.607-2.61,0.9-0.31.1-.63,0.192-0.95,0.29q-0.78.237-1.59,0.468c-11.71,3.347-28.55,5.507-46.71,5.788-1.36.024-2.71,0.039-4.02,0.039-1.84,0-3.73-.025-5.65-0.073q-4.71-.105-9.3-0.382c-0.02,0-.03.01-0.05,0.01s-0.06-.017-0.09-0.017q-6.39-.378-12.4-1.065s0,0-.01,0-0.03-.01-0.05-0.01c-5.87-.67-11.37-1.548-16.34-2.617q-1.53-.322-3-0.673c-0.17-.042-0.36-0.077-0.53-0.121a0.5,0.5,0,0,0-.04.149c0.28,1.689,4.12,3.929,10.93,6.034,8.85,2.733,22.69,5.236,40.23,6.011,0.89,0.037,1.79.077,2.7,0.1,0.76,0.024,1.51.05,2.27,0.067,2.07,0.047,4.16.08,6.33,0.08s4.27-.033,6.34-0.077c0.76-.02,1.51-0.043,2.26-0.068,0.91-.03,1.81-0.067,2.7-0.1,17.54-.776,31.38-3.278,40.23-6.011,6.87-2.122,10.71-4.38,10.94-6.078C1193.69,849.627,1190.74,846.972,1179.55,844.545Zm14.45,13.1a37.305,37.305,0,0,1-7.5,3.44v11.968c4.86-1.825,7.5-3.655,7.5-5.063V857.64Z" transform="translate(-1049 -805.5)"/>
</svg>
