<svg xmlns="http://www.w3.org/2000/svg" width="54" height="16" viewBox="0 0 54 16">
  <metadata><?xpacket begin="﻿" id="W5M0MpCehiHzreSzNTczkc9d"?>
<x:xmpmeta xmlns:x="adobe:ns:meta/" x:xmptk="Adobe XMP Core 5.6-c140 79.160451, 2017/05/06-01:08:21        ">
   <rdf:RDF xmlns:rdf="http://www.w3.org/1999/02/22-rdf-syntax-ns#">
      <rdf:Description rdf:about=""/>
   </rdf:RDF>
</x:xmpmeta>
                                                                                                    
                                                                                                    
                                                                                                    
                                                                                                    
                                                                                                    
                                                                                                    
                                                                                                    
                                                                                                    
                                                                                                    
                                                                                                    
                                                                                                    
                                                                                                    
                                                                                                    
                                                                                                    
                                                                                                    
                                                                                                    
                                                                                                    
                                                                                                    
                                                                                                    
                                                                                                    
                           
<?xpacket end="w"?></metadata>
<defs>
    <style>
      .cls-1 {
        fill: #c5c2c8;
        fill-rule: evenodd;
      }
    </style>
  </defs>
  <path id="paypal" class="cls-1" d="M795.276,9713.41l0.053,0.06-0.841,3.76H791.5l2.43-12.22h3.084Zm-5.181,3.82H787.1l0.187-1.03c-1.589,1.69-5.7,1.6-5.047-2.17a3,3,0,0,1,.89-1.6,3.078,3.078,0,0,1,.295-0.26l0.125-.09a6.722,6.722,0,0,1,3.363-.96l0.045,0.05c0.431-.03.879-0.05,1.357-0.05,0.187-1.03-.467-1.22-1.589-1.22a12.456,12.456,0,0,0-2.9.65l0.28-2.16a15.517,15.517,0,0,1,3.458-.56,4.112,4.112,0,0,1,3.4,1.16,2.256,2.256,0,0,1,.43,2.13Zm-2.9-3.67a2.146,2.146,0,0,0-1.87.57c-0.374.75,0.187,1.13,0.841,1.13a1.642,1.642,0,0,0,1.589-1.13,1.432,1.432,0,0,1,.01-0.16l0-.03c0.007-.05.015-0.11,0.026-0.16h0a0.477,0.477,0,0,1,.092-0.22H787.2Zm-8.693-.09h-2.336l-0.842,3.76h-3.364l0.215-.61,2.308-11.61H780c1.589,0,3.551,2.07,3.084,4.79A4.451,4.451,0,0,1,778.505,9713.47Zm0.281-5.64H777.2l-0.655,2.82h1.5a1.9,1.9,0,0,0,1.869-1.41A1.061,1.061,0,0,0,778.786,9707.83Zm-16.17,13.16,2.15-3.95-1.215-9.21h2.991l0.467,5.26,2.991-5.26h3.084l-7.1,13.16h-3.365Zm-1.589-3.76h-2.991l0.153-.92a3.675,3.675,0,0,1-2.383.94,2.283,2.283,0,0,1-2.561-2c-0.01-.06-0.015-0.12-0.021-0.18-0.008-.11-0.018-0.21-0.017-0.32a4.4,4.4,0,0,1,.063-0.81c0.374-1.88,2.056-2.63,4.579-2.82l0.048,0.05c0.431-.03.878-0.05,1.354-0.05,0.183-1.01-.439-1.21-1.51-1.22a11.236,11.236,0,0,0-2.883.65l0.1-.07c-0.061.03-.153,0.05-0.193,0.07l0.281-2.16a13.739,13.739,0,0,1,3.364-.56,4.586,4.586,0,0,1,3.237.91,2.206,2.206,0,0,1,.689,2.38Zm-2.9-3.67a2.046,2.046,0,0,0-1.776.57c-0.467.75,0.094,1.13,0.748,1.13a1.643,1.643,0,0,0,1.589-1.13,1.811,1.811,0,0,1,.038-0.35h0a0.488,0.488,0,0,1,.092-0.22H758.13Zm-8.693-.09H747.1l-0.841,3.76h-3.272l2.431-12.22h5.607c1.589,0,3.552,2.07,2.991,4.79A4.451,4.451,0,0,1,749.437,9713.47Zm0.374-5.64h-1.588l-0.655,2.82h1.5a1.9,1.9,0,0,0,1.869-1.41A1.061,1.061,0,0,0,749.811,9707.83Z" transform="translate(-743 -9705)"/>
</svg>
