<?xml version="1.0" encoding="utf-8"?>
<!-- Generator: Adobe Illustrator 22.0.0, SVG Export Plug-In . SVG Version: 6.00 Build 0)  -->
<svg version="1.1" id="Layer_1" xmlns="http://www.w3.org/2000/svg" xmlns:xlink="http://www.w3.org/1999/xlink" x="0px" y="0px"
	 width="36px" height="41.2px" viewBox="0 0 36 41.2" style="enable-background:new 0 0 36 41.2;" xml:space="preserve">
<style type="text/css">
	.st0{fill:#FFFFFF;}
	.st1{opacity:0.1;}
	.st2{fill:#F15642;}
</style>
<path class="st0" d="M7.7,0C6.3,0,5.1,1.2,5.1,2.6v36c0,1.4,1.2,2.6,2.6,2.6h25.7c1.4,0,2.6-1.2,2.6-2.6V10.3L25.7,0H7.7z"/>
<path class="st1" d="M28.3,10.3H36L25.7,0v7.7C25.7,9.1,26.9,10.3,28.3,10.3z"/>
<path class="st2" d="M30.9,33.4c0,0.7-0.6,1.3-1.3,1.3H1.3c-0.7,0-1.3-0.6-1.3-1.3V20.6c0-0.7,0.6-1.3,1.3-1.3h28.3
	c0.7,0,1.3,0.6,1.3,1.3V33.4z"/>
<g>
	<path class="st0" d="M5.6,24.4c0-0.3,0.3-0.7,0.7-0.7h2.4c1.3,0,2.5,0.9,2.5,2.6c0,1.6-1.2,2.5-2.5,2.5H7v1.4
		c0,0.5-0.3,0.7-0.7,0.7c-0.3,0-0.7-0.3-0.7-0.7V24.4z M7,24.9v2.6h1.7c0.7,0,1.2-0.6,1.2-1.2c0-0.7-0.5-1.3-1.2-1.3H7z"/>
	<path class="st0" d="M13.2,30.9c-0.3,0-0.7-0.2-0.7-0.6v-5.8c0-0.4,0.4-0.6,0.7-0.6h2.4c4.7,0,4.6,7.1,0.1,7.1H13.2z M13.9,25v4.6
		h1.7c2.8,0,2.9-4.6,0-4.6L13.9,25L13.9,25z"/>
	<path class="st0" d="M21.9,25.1v1.6h2.6c0.4,0,0.7,0.4,0.7,0.7c0,0.3-0.4,0.6-0.7,0.6h-2.6v2.2c0,0.4-0.3,0.6-0.6,0.6
		c-0.5,0-0.7-0.3-0.7-0.6v-5.8c0-0.4,0.3-0.6,0.7-0.6h3.6c0.5,0,0.7,0.3,0.7,0.6c0,0.3-0.3,0.7-0.7,0.7L21.9,25.1L21.9,25.1z"/>
</g>
</svg>
