<svg xmlns="http://www.w3.org/2000/svg" width="140" height="117.5" viewBox="0 0 140 117.5">
  <metadata><?xpacket begin="﻿" id="W5M0MpCehiHzreSzNTczkc9d"?>
<x:xmpmeta xmlns:x="adobe:ns:meta/" x:xmptk="Adobe XMP Core 5.6-c140 79.160451, 2017/05/06-01:08:21        ">
   <rdf:RDF xmlns:rdf="http://www.w3.org/1999/02/22-rdf-syntax-ns#">
      <rdf:Description rdf:about=""/>
   </rdf:RDF>
</x:xmpmeta>
                                                                                                    
                                                                                                    
                                                                                                    
                                                                                                    
                                                                                                    
                                                                                                    
                                                                                                    
                                                                                                    
                                                                                                    
                                                                                                    
                                                                                                    
                                                                                                    
                                                                                                    
                                                                                                    
                                                                                                    
                                                                                                    
                                                                                                    
                                                                                                    
                                                                                                    
                                                                                                    
                           
<?xpacket end="w"?></metadata>
<defs>
    <style>
      .cls-1 {
        fill-rule: evenodd;
        opacity: 0.1;
      }
    </style>
  </defs>
  <path id="report-games" class="cls-1" d="M585,412.207c0,19.988-13.457,36.25-30,36.25H475c-16.542,0-30-16.262-30-36.25a41.139,41.139,0,0,1,6.523-22.472A41,41,0,0,1,445,367.207c0-19.988,13.458-36.25,30-36.25h80c16.543,0,30,16.262,30,36.25a41,41,0,0,1-6.523,22.528A41.15,41.15,0,0,1,585,412.207Zm-135,0c0,17.232,11.214,31.251,25,31.251h80c13.784,0,25-14.019,25-31.251a36.495,36.495,0,0,0-4.776-18.251c-5.337,5.9-12.438,9.5-20.224,9.5H475c-7.786,0-14.887-3.6-20.224-9.5A36.488,36.488,0,0,0,450,412.207Zm25-76.25c-13.786,0-25,14.018-25,31.25s11.214,31.25,25,31.25h5.412a36.217,36.217,0,0,1,0-62.5H475Zm23.75,0a31.25,31.25,0,0,0,0,62.5h32.5a31.25,31.25,0,0,0,0-62.5h-32.5ZM580,367.207c0-17.232-11.216-31.25-25-31.25h-5.411a36.217,36.217,0,0,1,0,62.5H555C568.784,398.457,580,384.438,580,367.207Zm-73.233-4.97a2.5,2.5,0,1,1-3.535-3.536l7.5-7.5a2.5,2.5,0,0,1,3.536,3.536Zm-15,2.5a2.5,2.5,0,0,1-3.534-3.535l10-10a2.5,2.5,0,0,1,3.536,3.536Zm1.465,3.966a2.5,2.5,0,1,1,3.536,3.534l-5,5a2.5,2.5,0,0,1-3.534-3.534Zm4.993-5.008a2.616,2.616,0,0,1,3.55,0,2.535,2.535,0,0,1,0,3.55A2.51,2.51,0,0,1,498.225,363.694ZM477.5,405.957a17.5,17.5,0,1,1-17.5,17.5A17.52,17.52,0,0,1,477.5,405.957Zm0,30a12.5,12.5,0,1,0-12.5-12.5A12.514,12.514,0,0,0,477.5,435.957Zm-2.5-15v-5a2.5,2.5,0,0,1,5,0v5h5a2.5,2.5,0,0,1,0,5h-5v5a2.5,2.5,0,0,1-5,0v-5h-5a2.5,2.5,0,0,1,0-5h5Zm31.25,5a6.25,6.25,0,1,1-6.25,6.25A6.25,6.25,0,0,1,506.25,425.957Zm20,0a6.25,6.25,0,1,1-6.25,6.25A6.25,6.25,0,0,1,526.25,425.957Zm28.75-20a17.5,17.5,0,1,1-17.5,17.5A17.521,17.521,0,0,1,555,405.957Zm0,30a12.5,12.5,0,1,0-12.5-12.5A12.514,12.514,0,0,0,555,435.957Zm-5-13.75v2.5a2.5,2.5,0,1,1-5,0v-2.5A2.5,2.5,0,0,1,550,422.207Zm5-10a2.5,2.5,0,0,1,2.5,2.5v2.5a2.5,2.5,0,0,1-5,0v-2.5A2.5,2.5,0,0,1,555,412.207Zm0,15a2.5,2.5,0,0,1,2.5,2.5v2.5a2.5,2.5,0,0,1-5,0v-2.5A2.5,2.5,0,0,1,555,427.208Zm7.5-7.5a2.5,2.5,0,0,1,2.5,2.5v2.5a2.5,2.5,0,1,1-5,0v-2.5A2.5,2.5,0,0,1,562.5,419.707Z" transform="translate(-445 -330.969)"/>
</svg>
