<svg xmlns="http://www.w3.org/2000/svg" width="41.406" height="13.94" viewBox="0 0 41.406 13.94">
  <metadata><?xpacket begin="﻿" id="W5M0MpCehiHzreSzNTczkc9d"?>
<x:xmpmeta xmlns:x="adobe:ns:meta/" x:xmptk="Adobe XMP Core 5.6-c140 79.160451, 2017/05/06-01:08:21        ">
   <rdf:RDF xmlns:rdf="http://www.w3.org/1999/02/22-rdf-syntax-ns#">
      <rdf:Description rdf:about=""/>
   </rdf:RDF>
</x:xmpmeta>
                                                                                                    
                                                                                                    
                                                                                                    
                                                                                                    
                                                                                                    
                                                                                                    
                                                                                                    
                                                                                                    
                                                                                                    
                                                                                                    
                                                                                                    
                                                                                                    
                                                                                                    
                                                                                                    
                                                                                                    
                                                                                                    
                                                                                                    
                                                                                                    
                                                                                                    
                                                                                                    
                           
<?xpacket end="w"?></metadata>
<defs>
    <style>
      .cls-1 {
        fill: #c5c2c8;
        fill-rule: evenodd;
      }
    </style>
  </defs>
  <path id="skrill" class="cls-1" d="M676.043,9719.97v-12.59l3.357-.61v13.2h-3.357Zm-5.37-12.59,3.356-.61v13.2h-3.356v-12.59Zm-4.7,3.07h3.357v9.52h-3.357v-9.52Zm1.679-1.02a1.705,1.705,0,1,1,1.678-1.7A1.675,1.675,0,0,1,667.652,9709.43Zm-5.035,6.26v4.28H659.26v-5.44l0.01-.01c0.05-2.76,1.458-4.21,4.622-4.28a1.443,1.443,0,0,1,.739.07v2.86C662.617,9713.24,662.617,9713.99,662.617,9715.69Zm-4.162,4.28h-4.3a7.839,7.839,0,0,0-1.611-3.67v3.67H649.19v-12.45l3.357-.75v7.01a17.268,17.268,0,0,0,2.014-3.33h4.095a18.887,18.887,0,0,1-2.484,4.62A44.868,44.868,0,0,1,658.455,9719.97Zm-15.339-8.39c3.115,0.26,4.931,1.78,4.931,4.16,0,2.11-1.687,4.23-5.385,4.23H642.6a18.863,18.863,0,0,1-4.606-.53v-3.04c0.022,0.01.043,0.01,0.065,0.02v-0.02a14.834,14.834,0,0,0,3.869.73c0.026,0,.054-0.01.081-0.01a4.646,4.646,0,0,0,.868-0.07h0.006a1.3,1.3,0,0,0,1.339-1.11,1.012,1.012,0,0,0-1.067-.98c-0.15-.01-0.282-0.01-0.36-0.01-4.282-.33-4.736-2.91-4.736-4.04,0-1.91,1.362-4.16,5.125-4.29a12.646,12.646,0,0,1,4.412.73l0.13,0.06v2.98h-0.13c-0.389-.14-0.973-0.33-0.973-0.33a11.1,11.1,0,0,0-2.985-.53c-0.519,0-1.946,0-1.946,1.05A1.179,1.179,0,0,0,643.116,9711.58Z" transform="translate(-638 -9706.03)"/>
</svg>
