<svg xmlns="http://www.w3.org/2000/svg" width="44" height="14" viewBox="0 0 44 14">
  <metadata><?xpacket begin="﻿" id="W5M0MpCehiHzreSzNTczkc9d"?>
<x:xmpmeta xmlns:x="adobe:ns:meta/" x:xmptk="Adobe XMP Core 5.6-c140 79.160451, 2017/05/06-01:08:21        ">
   <rdf:RDF xmlns:rdf="http://www.w3.org/1999/02/22-rdf-syntax-ns#">
      <rdf:Description rdf:about=""/>
   </rdf:RDF>
</x:xmpmeta>
                                                                                                    
                                                                                                    
                                                                                                    
                                                                                                    
                                                                                                    
                                                                                                    
                                                                                                    
                                                                                                    
                                                                                                    
                                                                                                    
                                                                                                    
                                                                                                    
                                                                                                    
                                                                                                    
                                                                                                    
                                                                                                    
                                                                                                    
                                                                                                    
                                                                                                    
                                                                                                    
                           
<?xpacket end="w"?></metadata>
<defs>
    <style>
      .cls-1 {
        fill: #c5c2c8;
        fill-rule: evenodd;
      }
    </style>
  </defs>
  <path id="visa" class="cls-1" d="M729.524,9719.99l-0.435-2.33h-4.638l-0.725,2.33h-3.914l5.436-12.97a1.636,1.636,0,0,1,1.884-1.01h2.826L733,9719.99h-3.478Zm-1.689-8.69-0.21-1.24c-0.209.51-.488,1.32-0.488,1.32s-1.188,3.21-1.4,3.86v0.08h2.933C728.533,9714.59,727.835,9711.3,727.835,9711.3Zm-7.4-1.97a6.193,6.193,0,0,0-2.654-.51c-1.4,0-2.025.59-2.025,1.17,0,0.66.769,1.02,2.025,1.68,2.1,0.95,3,2.11,3,3.65,0,2.77-2.444,4.6-6.145,4.6a10.992,10.992,0,0,1-3.98-.73l0.489-3,0.489,0.22a7.322,7.322,0,0,0,3.351.73c0.978,0,2.1-.44,2.1-1.31,0-.59-0.419-1.02-1.815-1.68s-3.143-1.68-3.143-3.65c0-2.63,2.514-4.45,6.006-4.45a8.569,8.569,0,0,1,3.212.58l-0.559,2.85Zm-15.327,10.58,2.385-13.9H711l-2.316,13.9h-3.582Zm-8.569.08-2.92-11.91h0c-0.3-.2-0.622-0.39-0.946-0.58l-0.225-.12c-0.092-.05-0.188-0.1-0.282-0.14l-3.154-1.23h6.535a1.42,1.42,0,0,1,1.616,1.16l1.142,6.26,0.064,0.28c-0.007-.02-0.016-0.04-0.024-0.06l0.024,0.13,0.349,1.9,3.645-9.59h3.794l-5.825,13.9h-3.793Z" transform="translate(-689 -9706)"/>
</svg>
