<svg xmlns="http://www.w3.org/2000/svg" width="146.938" height="134.969" viewBox="0 0 146.938 134.969">
  <metadata><?xpacket begin="﻿" id="W5M0MpCehiHzreSzNTczkc9d"?>
<x:xmpmeta xmlns:x="adobe:ns:meta/" x:xmptk="Adobe XMP Core 5.6-c140 79.160451, 2017/05/06-01:08:21        ">
   <rdf:RDF xmlns:rdf="http://www.w3.org/1999/02/22-rdf-syntax-ns#">
      <rdf:Description rdf:about=""/>
   </rdf:RDF>
</x:xmpmeta>
                                                                                                    
                                                                                                    
                                                                                                    
                                                                                                    
                                                                                                    
                                                                                                    
                                                                                                    
                                                                                                    
                                                                                                    
                                                                                                    
                                                                                                    
                                                                                                    
                                                                                                    
                                                                                                    
                                                                                                    
                                                                                                    
                                                                                                    
                                                                                                    
                                                                                                    
                                                                                                    
                           
<?xpacket end="w"?></metadata>
<defs>
    <style>
      .cls-1 {
        fill-rule: evenodd;
        opacity: 0.05;
      }
    </style>
  </defs>
  <path id="wishcoins" class="cls-1" d="M396.249,629.167a2.121,2.121,0,0,1-.067.465,74.756,74.756,0,0,1-4.715,16.979,2.786,2.786,0,0,1-.125.288,80.431,80.431,0,0,1-17.479,26.072c-1.789,1.79-3.642,3.468-5.54,5.054a0.01,0.01,0,0,1,0,0,0.041,0.041,0,0,0-.013.008A80.636,80.636,0,0,1,360.171,684H349.928c0.708-.345,1.42-0.676,2.122-1.046l-6.9-6.91c-0.921.511-1.85,0.993-2.784,1.463-0.275.14-.547,0.285-0.822,0.42q-1.741.849-3.506,1.606L342.5,684h-7.06l-2.5-2.507c-0.422.148-.846,0.288-1.271,0.426q-1.577.513-3.159,0.95c-0.4.112-.809,0.24-1.214,0.345-1.142.3-2.289,0.548-3.436,0.786H295.681c-1-.219-2-0.432-2.993-0.7-0.477-.131-0.949-0.273-1.424-0.415-0.607-.183-1.224-0.33-1.828-0.53,0.892,0.582,1.8,1.127,2.725,1.646H283.2a53.191,53.191,0,0,1-10.572-10.611,56.571,56.571,0,0,1-5.6-4.839c-24.829-24.862-22.057-68.093,6.179-96.366s71.413-31.05,96.242-6.189a56.355,56.355,0,0,1,4.952,5.7,55.619,55.619,0,0,1,5.644,4.909,58.3,58.3,0,0,1,16.5,34.892,2.33,2.33,0,0,1,.06.557A68.4,68.4,0,0,1,396.249,629.167Zm-10.124,17.18-6.8-6.812c-0.123.257-.25,0.515-0.375,0.772-0.142.3-.284,0.6-0.432,0.893-0.694,1.393-1.423,2.778-2.208,4.144-0.059.1-.127,0.2-0.187,0.31-0.155.27-.319,0.535-0.479,0.8l6.922,6.932A72.975,72.975,0,0,0,386.125,646.347Zm-10.777,17.5c1.626-1.978,3.12-4.016,4.508-6.1l-6.965-6.975q-1.176,1.717-2.45,3.391c-0.05.065-.1,0.125-0.15,0.188-0.637.83-1.288,1.653-1.963,2.463Zm-5.012,5.589c0.6-.595,1.127-1.228,1.7-1.838L365,660.553c-0.572.605-1.136,1.215-1.728,1.808-1.171,1.17-2.372,2.283-3.591,3.366-0.02.017-.038,0.037-0.058,0.055l7.043,7.052C367.909,671.738,369.145,670.628,370.336,669.435Zm-13.788,10.951a74.57,74.57,0,0,0,6.229-4.374l-7.015-7.025a0.317,0.317,0,0,0-.033.026c-0.312.242-.619,0.492-0.934,0.732-1.291.983-2.6,1.928-3.933,2.818-0.1.068-.205,0.131-0.308,0.2-0.327.218-.659,0.42-0.989,0.633Zm24.827-74.043c-0.02-.557-0.05-1.113-0.085-1.665-0.083-1.353-.2-2.7-0.377-4.034-0.063-.49-0.145-0.972-0.22-1.458-0.22-1.4-.47-2.8-0.792-4.175-0.08-.343-0.177-0.678-0.262-1.018-0.37-1.463-.779-2.914-1.266-4.339-0.048-.14-0.1-0.278-0.145-0.418q-0.839-2.389-1.9-4.7c-0.032-.073-0.062-0.15-0.1-0.223a52.343,52.343,0,0,0-2.5-4.708l-0.06-.105a51.914,51.914,0,0,0-3.047-4.521c-0.049-.066-0.1-0.133-0.147-0.2l-0.649-.86a51.718,51.718,0,0,0-3.911-4.394c-10.4-10.415-24.345-15.524-38.924-15.524-17.5,0-35.915,7.352-50.255,21.711-26.29,26.324-29.062,66.382-6.181,89.3a51.647,51.647,0,0,0,4.385,3.914l0.884,0.665c0.058,0.045.115,0.087,0.172,0.13a52.021,52.021,0,0,0,4.526,3.056l0.087,0.05a52.019,52.019,0,0,0,4.725,2.51c0.058,0.028.118,0.05,0.178,0.078q2.337,1.083,4.767,1.933c0.1,0.035.207,0.072,0.312,0.107,1.459,0.5,2.947.925,4.446,1.3,0.312,0.078.621,0.17,0.936,0.243,1.4,0.33,2.822.585,4.251,0.807,0.457,0.07.911,0.148,1.368,0.208,1.364,0.18,2.737.3,4.116,0.388,0.519,0.032,1.041.062,1.563,0.079q2.054,0.072,4.123.011c0.515-.015,1.029-0.043,1.546-0.07,1.419-.081,2.837-0.2,4.261-0.368,0.439-.052.881-0.123,1.321-0.185,1.511-.218,3.022-0.465,4.528-0.788,0.292-.063.584-0.142,0.876-0.207,1.551-.353,3.1-0.751,4.638-1.216,0.145-.042.29-0.077,0.434-0.122,1.681-.52,3.352-1.118,5.01-1.768,0.2-.075.395-0.148,0.59-0.225,1.63-.658,3.246-1.386,4.847-2.171,0.212-.1.422-0.2,0.632-0.308q2.382-1.2,4.7-2.583l0.622-.375q2.316-1.414,4.561-3.01c0.187-.136.372-0.273,0.556-0.408,1.509-1.1,3-2.253,4.441-3.479,0.132-.112.26-0.23,0.389-0.342,1.5-1.288,2.967-2.628,4.388-4.051s2.747-2.879,4.026-4.371c0.122-.143.25-0.281,0.37-0.423,1.211-1.435,2.352-2.908,3.441-4.406,0.147-.2.3-0.4,0.442-0.605q1.578-2.217,2.97-4.511c0.139-.231.279-0.461,0.417-0.693q1.356-2.289,2.537-4.631c0.122-.243.237-0.488,0.357-0.733q1.15-2.352,2.123-4.751c0.1-.238.182-0.478,0.275-0.718,0.624-1.6,1.2-3.206,1.7-4.826,0.067-.22.127-0.443,0.192-0.663,0.44-1.465.817-2.936,1.154-4.411,0.077-.343.17-0.685,0.242-1.031,0.312-1.465.555-2.933,0.764-4.4,0.068-.485.145-0.97,0.2-1.455,0.167-1.388.279-2.776,0.357-4.159,0.03-.553.057-1.1,0.075-1.656C381.425,609.027,381.422,607.681,381.375,606.343Zm1.051,25.517c-0.312.908-.647,1.813-0.994,2.713l6.688,6.7a69.359,69.359,0,0,0,2.925-11.22l-6.334-6.342c-0.185.843-.374,1.685-0.592,2.526-0.105.41-.227,0.817-0.339,1.225q-0.447,1.605-.962,3.2C382.688,631.062,382.563,631.463,382.426,631.86Zm0.809-43.429c0.095,0.288.163,0.585,0.257,0.875q0.417,1.317.772,2.654c0.137,0.515.28,1.022,0.4,1.54q0.411,1.732.726,3.5c0.115,0.645.208,1.3,0.3,1.945,0.057,0.391.125,0.78,0.174,1.176l4.271,4.276A53.344,53.344,0,0,0,383.235,588.431Zm8.476,24.6-5.309-5.316c0,0.29-.015.582-0.015,0.873,0,0.69-.013,1.38-0.035,2.073s-0.04,1.367-.082,2.055q-0.109,1.792-.313,3.591c-0.055.465-.117,0.928-0.179,1.393l6.058,6.066A62.289,62.289,0,0,0,391.711,613.035Zm-23.932,9.933a2.39,2.39,0,0,1-.48-0.048,2.5,2.5,0,0,1-1.973-2.933c0.3-1.55.532-3.121,0.685-4.669a2.5,2.5,0,1,1,4.97.49c-0.17,1.7-.423,3.431-0.755,5.137A2.5,2.5,0,0,1,367.779,622.968Zm0.484-19.756a2.494,2.494,0,0,1-2.954-1.938,42.286,42.286,0,0,0-1.2-4.523,2.5,2.5,0,1,1,4.75-1.55,47.48,47.48,0,0,1,1.344,5.053A2.5,2.5,0,0,1,368.263,603.212Zm-2.991,32.4c-0.752,1.53-1.584,3.055-2.47,4.533a2.5,2.5,0,1,1-4.281-2.575c0.814-1.358,1.578-2.759,2.268-4.167A2.5,2.5,0,1,1,365.272,635.614ZM359.54,585.42a2.49,2.49,0,0,1-1.965-.955,39.319,39.319,0,0,0-3.09-3.483,2.57,2.57,0,0,1-.052-3.591,2.428,2.428,0,0,1,3.479-.053l-1.766,1.768,1.843-1.69a44.687,44.687,0,0,1,3.514,3.958A2.5,2.5,0,0,1,359.54,585.42Zm-6.246,66.9-0.03.029c-1.2,1.2-2.457,2.369-3.746,3.469a2.5,2.5,0,0,1-3.244-3.8c1.189-1.015,2.352-2.093,3.459-3.2a2.513,2.513,0,0,1,3.546-.015A2.484,2.484,0,0,1,353.294,652.316Zm-13.509-12.6c-8.3,9.817-19.239,10.619-29.273,2.146l-0.011-.009-18.221-15.4c-9.634-8.143-10.348-18.966-1.908-28.953l14.916-17.652,5.289,4.469c3.091,2.613,4.663,5.165,4.8,7.8,0.159,2.972-1.57,5.384-2.884,6.939-2.863,3.394-1.833,4.266-.407,5.471l0.024,0.019c0.762,0.644,2.035,1.665,4.75-1.547l6.592-7.8,5.29,4.469c2.783,2.353,4.211,4.561,4.493,6.95,0.286,2.418-.661,4.878-2.9,7.522l-0.212.251c-1.326,1.57-1.612,2.549-1.619,3.1,0,0.251,0,.95,1.258,1.981,1.249,1.055,2.18,1.774,4.934-1.485l6.546-7.746,5.289,4.469c2.622,2.216,4.134,4.605,4.493,7.1a9.537,9.537,0,0,1-2.573,7.641Zm6.309-17.218c-0.18-1.247-1.11-2.589-2.767-3.989l-1.47-1.243-3.336,3.947c-3.979,4.708-8.018,5.388-12,2.022l0,0a7.413,7.413,0,0,1-2.99-5.825c0.025-2,.936-4.044,2.789-6.236l0.212-.252c1.3-1.538,1.875-2.759,1.76-3.735-0.121-1.023-1.046-2.271-2.75-3.712l-1.471-1.243-3.382,4c-5.37,6.354-10.038,3.59-11.8,2.1l0,0c-4.161-3.516-4.229-7.72-.2-12.494h0l0.01-.012c1.216-1.442,1.76-2.541,1.711-3.459-0.062-1.169-1.082-2.6-3.033-4.244l-1.471-1.243-11.7,13.852c-6.622,7.836-6.16,15.623,1.3,21.928l18.221,15.4,0.009,0.008c7.872,6.647,15.772,6.089,22.246-1.572l8.673-10.263A4.8,4.8,0,0,0,346.094,622.5Zm-2.115-49.285a2.475,2.475,0,0,1-1.032-.226,40.933,40.933,0,0,0-4.35-1.682,2.5,2.5,0,0,1,1.533-4.759,45.692,45.692,0,0,1,4.88,1.888A2.5,2.5,0,0,1,343.979,573.21ZM324.754,569.2c-1.561.01-3.144,0.1-4.705,0.253a2.177,2.177,0,0,1-.255.012,2.5,2.5,0,0,1-.25-4.989c1.721-.175,3.467-0.27,5.185-0.277h0.012A2.5,2.5,0,0,1,324.754,569.2Zm-18.433,3.611c-1.464.578-2.92,1.223-4.331,1.923a2.467,2.467,0,0,1-1.106.26,2.5,2.5,0,0,1-1.114-4.741c1.539-.763,3.129-1.471,4.725-2.1A2.5,2.5,0,0,1,306.321,572.812Zm-19.575,12.926a2.578,2.578,0,0,1-1.828.755,2.481,2.481,0,0,1-1.788-4.206l1.766,1.768-1.719-1.816q1.836-1.838,3.727-3.455a2.5,2.5,0,0,1,3.246,3.8C288.984,583.582,287.84,584.643,286.746,585.738Zm-4.69,71.359a2.506,2.506,0,0,1-1.808.777,2.423,2.423,0,0,1-1.666-.66c-0.062-.057-0.175-0.172-0.229-0.235a41.891,41.891,0,0,1-3.322-3.746,2.5,2.5,0,1,1,3.923-3.095A39.445,39.445,0,0,0,282,653.563,2.537,2.537,0,0,1,282.056,657.1Zm-6.4-55.9a2.5,2.5,0,1,1-4.485-2.2c0.751-1.538,1.58-3.066,2.464-4.539a2.5,2.5,0,1,1,4.284,2.573C277.111,598.386,276.35,599.787,275.658,601.2Zm-4.515,13.429c-0.3,1.553-.527,3.123-0.68,4.671a2.5,2.5,0,0,1-2.482,2.258c-0.083,0-.162,0-0.245-0.012a2.5,2.5,0,0,1-2.243-2.731c0.165-1.7.415-3.431,0.745-5.136A2.5,2.5,0,1,1,271.143,614.628Zm-2.912,16.777a2.5,2.5,0,0,1,2.957,1.933,42.788,42.788,0,0,0,1.208,4.519,2.5,2.5,0,0,1-1.593,3.156,2.592,2.592,0,0,1-.779.125,2.5,2.5,0,0,1-2.373-1.721,48.429,48.429,0,0,1-1.351-5.051A2.5,2.5,0,0,1,268.231,631.405Zm25.238,30.123a41.124,41.124,0,0,0,4.346,1.691,2.5,2.5,0,1,1-1.541,4.758,45.645,45.645,0,0,1-4.88-1.9A2.5,2.5,0,0,1,293.469,661.528Zm18.186,3.814c1.561-.006,3.144-0.088,4.705-0.245a2.5,2.5,0,0,1,.5,4.978c-1.72.173-3.464,0.265-5.182,0.27h-0.01A2.5,2.5,0,0,1,311.655,665.342Zm18.441-3.586c1.453-.568,2.912-1.213,4.333-1.916a2.5,2.5,0,0,1,2.207,4.486c-1.55.765-3.139,1.468-4.727,2.088a2.45,2.45,0,0,1-.907.173A2.5,2.5,0,0,1,330.1,661.756Zm60.871-94.195a2.5,2.5,0,0,1-2.5-2.5c0-5.517-3.362-10-7.492-10a2.5,2.5,0,0,1,0-5c6.885,0,12.487,6.729,12.487,15A2.5,2.5,0,0,1,390.967,567.561ZM256.108,677.59a2.5,2.5,0,0,1,2.5,2.5,7.454,7.454,0,0,0,1.11,3.909h-5.471a12.453,12.453,0,0,1-.634-3.909A2.5,2.5,0,0,1,256.108,677.59Zm132.362-15a2.5,2.5,0,1,1,4.995,0A27.47,27.47,0,0,1,383.2,684H372.882A22.539,22.539,0,0,0,388.47,662.586Zm4.995,20A2.491,2.491,0,0,1,395.7,684h-4.473A2.491,2.491,0,0,1,393.465,682.591Z" transform="translate(-250.062 -549.031)"/>
</svg>
