<?xml version="1.0" encoding="utf-8"?>
<!-- Generator: Adobe Illustrator 22.0.0, SVG Export Plug-In . SVG Version: 6.00 Build 0)  -->
<svg version="1.1" id="Layer_1" xmlns="http://www.w3.org/2000/svg" xmlns:xlink="http://www.w3.org/1999/xlink" x="0px" y="0px"
	 width="36px" height="41px" viewBox="0 0 36 41" style="enable-background:new 0 0 36 41;" xml:space="preserve">
<style type="text/css">
	.st0{fill:#FFFFFF;}
	.st1{opacity:0.1;}
	.st2{fill:#84BD5A;}
</style>
<path class="st0" d="M7.7-0.1C6.3-0.1,5.1,1,5.1,2.5v36c0,1.4,1.2,2.6,2.6,2.6h25.7c1.4,0,2.6-1.2,2.6-2.6V10.2L25.7-0.1H7.7z"/>
<path class="st1" d="M28.3,10.2H36L25.7-0.1v7.7C25.7,9,26.9,10.2,28.3,10.2z"/>
<path class="st2" d="M30.9,33.3c0,0.7-0.6,1.3-1.3,1.3H1.3C0.6,34.6,0,34,0,33.3V20.5c0-0.7,0.6-1.3,1.3-1.3h28.3
	c0.7,0,1.3,0.6,1.3,1.3V33.3z"/>
<g>
	<path class="st0" d="M9,26.1l1.8-2.2c0.5-0.7,1.6,0.2,1,0.9c-0.6,0.7-1.3,1.5-1.9,2.3l2.1,2.6c0.6,0.8-0.6,1.5-1.1,0.7L9,28
		l-1.9,2.5c-0.5,0.7-1.7-0.1-1.1-0.8l2.1-2.6c-0.6-0.8-1.3-1.6-1.9-2.3c-0.6-0.8,0.6-1.6,1-0.8L9,26.1z"/>
	<path class="st0" d="M13.3,24.2c0-0.3,0.3-0.6,0.6-0.6c0.3,0,0.6,0.3,0.6,0.6v5.2h2.8c1,0,1,1.3,0,1.3h-3.4c-0.4,0-0.6-0.3-0.6-0.6
		L13.3,24.2L13.3,24.2L13.3,24.2z"/>
	<path class="st0" d="M19.3,25.2c0.2-2,3.2-2.4,4.7-1.3c0.7,0.6,0,1.5-0.7,1c-0.8-0.5-2.5-0.7-2.7,0.4c-0.3,1.7,4.2,0.7,4.1,3.5
		c-0.1,2.6-3.9,2.7-5.3,1.5c-0.3-0.3-0.3-0.7-0.1-1c0.3-0.3,0.6-0.4,0.9-0.1c0.8,0.6,3,1,3.2-0.5C23.2,27.2,19,28.1,19.3,25.2z"/>
</g>
</svg>
