<?xml version="1.0" encoding="utf-8"?>
<!-- Generator: Adobe Illustrator 22.0.0, SVG Export Plug-In . SVG Version: 6.00 Build 0)  -->
<svg version="1.1" id="Capa_1" xmlns="http://www.w3.org/2000/svg" xmlns:xlink="http://www.w3.org/1999/xlink" x="0px" y="0px"
	 width="21px" height="14px" viewBox="0 0 21 14" style="enable-background:new 0 0 21 14;" xml:space="preserve">
<style type="text/css">
	.st0{fill:#0052B4;}
	.st1{fill:#D80027;}
	.st2{fill:#F0F0F0;}
</style>
<rect class="st0" width="21" height="14"/>
<g>
	<polygon class="st1" points="17.4,6.1 17.6,6.5 18,6.5 17.7,6.8 17.8,7.2 17.4,6.9 17.1,7.2 17.2,6.8 16.9,6.5 17.3,6.5 	"/>
	<polygon class="st1" points="15.8,9.2 16,9.8 16.7,9.8 16.2,10.2 16.4,10.8 15.8,10.4 15.3,10.8 15.5,10.2 15,9.8 15.6,9.8 	"/>
	<polygon class="st1" points="15.9,4.1 16.1,4.7 16.6,4.7 16.2,5 16.4,5.5 15.9,5.2 15.4,5.5 15.6,5 15.2,4.7 15.7,4.7 	"/>
	<polygon class="st1" points="14.4,6.1 14.6,6.7 15.2,6.7 14.7,7.1 14.9,7.7 14.4,7.4 13.8,7.7 14,7.1 13.5,6.7 14.1,6.7 	"/>
</g>
<polygon class="st2" points="10.5,0 10.5,1.3 8.6,2.3 10.5,2.3 10.5,4.7 8.1,4.7 10.5,6.1 10.5,7 9.4,7 6.4,5.3 6.4,7 4.1,7 4.1,5 
	0.5,7 0,7 0,5.7 1.9,4.7 0,4.7 0,2.3 2.4,2.3 0,0.9 0,0 1.1,0 4.1,1.7 4.1,0 6.4,0 6.4,2 10,0 "/>
<polygon class="st1" points="5.9,0 4.6,0 4.6,2.8 0,2.8 0,4.2 4.6,4.2 4.6,7 5.9,7 5.9,4.2 10.5,4.2 10.5,2.8 5.9,2.8 "/>
<polygon class="st0" points="6.4,4.7 10.5,7 10.5,6.4 7.6,4.7 "/>
<polygon class="st2" points="6.4,4.7 10.5,7 10.5,6.4 7.6,4.7 "/>
<g>
	<polygon class="st1" points="6.4,4.7 10.5,7 10.5,6.4 7.6,4.7 	"/>
	<polygon class="st1" points="2.9,4.7 0,6.4 0,7 0,7 4.1,4.7 	"/>
</g>
<polygon class="st0" points="4.1,2.3 0,0 0,0.6 2.9,2.3 "/>
<polygon class="st2" points="4.1,2.3 0,0 0,0.6 2.9,2.3 "/>
<g>
	<polygon class="st1" points="4.1,2.3 0,0 0,0.6 2.9,2.3 	"/>
	<polygon class="st1" points="7.6,2.3 10.5,0.6 10.5,0 10.5,0 6.4,2.3 	"/>
</g>
</svg>
