<?xml version="1.0" encoding="utf-8"?>
<!-- Generator: Adobe Illustrator 22.0.0, SVG Export Plug-In . SVG Version: 6.00 Build 0)  -->
<svg version="1.1" id="Capa_1" xmlns="http://www.w3.org/2000/svg" xmlns:xlink="http://www.w3.org/1999/xlink" x="0px" y="0px"
	 width="21px" height="14px" viewBox="0 0 21 14" style="enable-background:new 0 0 21 14;" xml:space="preserve">
<style type="text/css">
	.st0{fill:#F0F0F0;}
	.st1{fill:#D80027;}
	.st2{fill:#0052B4;}
</style>
<rect x="0" y="0" class="st0" width="21" height="14"/>
<polygon class="st1" points="11.8,0 9.2,0 9.2,5.7 0,5.7 0,8.3 9.2,8.3 9.2,14 11.8,14 11.8,8.3 21,8.3 21,5.7 11.8,5.7 "/>
<g>
	<polygon class="st2" points="16.2,9.4 21,12.1 21,9.4 	"/>
	<polygon class="st2" points="12.8,9.4 21,14 21,12.7 15.1,9.4 	"/>
	<polygon class="st2" points="18.8,14 12.8,10.7 12.8,14 	"/>
</g>
<polygon class="st0" points="12.8,9.4 21,14 21,12.7 15.1,9.4 "/>
<polygon class="st1" points="12.8,9.4 21,14 21,12.7 15.1,9.4 "/>
<g>
	<polygon class="st2" points="3.7,9.4 0,11.5 0,9.4 	"/>
	<polygon class="st2" points="8.2,10 8.2,14 1.1,14 	"/>
</g>
<polygon class="st1" points="5.9,9.4 0,12.7 0,14 0,14 8.2,9.4 "/>
<g>
	<polygon class="st2" points="4.9,4.6 0,1.9 0,4.6 	"/>
	<polygon class="st2" points="8.2,4.6 0,0 0,1.3 5.9,4.6 	"/>
	<polygon class="st2" points="2.2,0 8.2,3.3 8.2,0 	"/>
</g>
<polygon class="st0" points="8.2,4.6 0,0 0,1.3 5.9,4.6 "/>
<polygon class="st1" points="8.2,4.6 0,0 0,1.3 5.9,4.6 "/>
<g>
	<polygon class="st2" points="17.3,4.6 21,2.5 21,4.6 	"/>
	<polygon class="st2" points="12.8,4 12.8,0 20,0 	"/>
</g>
<polygon class="st1" points="15.1,4.6 21,1.3 21,0 21,0 12.8,4.6 "/>
</svg>
