<svg id="upload" xmlns="http://www.w3.org/2000/svg" width="88.375" height="68.969" viewBox="0 0 88.375 68.969">
  <metadata><?xpacket begin="﻿" id="W5M0MpCehiHzreSzNTczkc9d"?>
<x:xmpmeta xmlns:x="adobe:ns:meta/" x:xmptk="Adobe XMP Core 5.6-c140 79.160451, 2017/05/06-01:08:21        ">
   <rdf:RDF xmlns:rdf="http://www.w3.org/1999/02/22-rdf-syntax-ns#">
      <rdf:Description rdf:about=""/>
   </rdf:RDF>
</x:xmpmeta>
                                                                                                    
                                                                                                    
                                                                                                    
                                                                                                    
                                                                                                    
                                                                                                    
                                                                                                    
                                                                                                    
                                                                                                    
                                                                                                    
                                                                                                    
                                                                                                    
                                                                                                    
                                                                                                    
                                                                                                    
                                                                                                    
                                                                                                    
                                                                                                    
                                                                                                    
                                                                                                    
                           
<?xpacket end="w"?></metadata>
<defs>
    <style>
      .cls-1 {
        fill: #3f2a69;
        opacity: 0.1;
      }

      .cls-1, .cls-2, .cls-3, .cls-4 {
        fill-rule: evenodd;
      }

      .cls-2 {
        fill: none;
        stroke: #d9d4e1;
        stroke-width: 3px;
      }

      .cls-2, .cls-3 {
        opacity: 0.5;
      }

      .cls-3, .cls-4 {
        fill: #d9d4e1;
      }
    </style>
  </defs>
  <path id="Rounded_Rectangle_7" data-name="Rounded Rectangle 7" class="cls-1" d="M125,162.5v35a6.157,6.157,0,0,0,2.692,4.432l-1.97.528a4,4,0,0,1-4.9-2.829l-8.283-30.909a4,4,0,0,1,2.829-4.9l9.717-2.172A4.485,4.485,0,0,0,125,162.5Z" transform="translate(-101.5 -143.531)"/>
  <path id="Forma_1_copy_4" data-name="Forma 1 copy 4" class="cls-2" d="M183.5,201.984a4.506,4.506,0,1,1-4.5,4.506A4.5,4.5,0,0,1,183.5,201.984Z" transform="translate(-101.5 -143.531)"/>
  <path id="Forma_1_copy_5" data-name="Forma 1 copy 5" class="cls-2" d="M107.5,183.984a4.506,4.506,0,1,1-4.5,4.506A4.5,4.5,0,0,1,107.5,183.984Z" transform="translate(-101.5 -143.531)"/>
  <path id="Rounded_Rectangle_8" data-name="Rounded Rectangle 8" class="cls-3" d="M122.263,151.25a1.5,1.5,0,0,1-2.049.549l-2.165-1.25-1.25,2.165a1.5,1.5,0,0,1-2.6-1.5l1.25-2.165-2.165-1.25a1.5,1.5,0,1,1,1.5-2.6l2.165,1.25,1.25-2.165a1.5,1.5,0,1,1,2.6,1.5l-1.25,2.165,2.165,1.25A1.5,1.5,0,0,1,122.263,151.25Z" transform="translate(-101.5 -143.531)"/>
  <path id="Rounded_Rectangle_8_copy" data-name="Rounded Rectangle 8 copy" class="cls-3" d="M188.752,182.914l-2.415.647,0.647,2.414a1.5,1.5,0,1,1-2.9.777l-0.647-2.415-2.414.647a1.5,1.5,0,1,1-.777-2.9l2.415-.647-0.647-2.414a1.5,1.5,0,1,1,2.9-.777l0.647,2.415,2.415-.647A1.5,1.5,0,1,1,188.752,182.914Z" transform="translate(-101.5 -143.531)"/>
  <path id="Forma_1_copy_2" data-name="Forma 1 copy 2" class="cls-4" d="M162.5,207a12.438,12.438,0,0,1-8.111-3H133a8.143,8.143,0,0,1-5.786-1.937,7.959,7.959,0,0,1-2.231-5.5V163.741a7.659,7.659,0,0,1,7.673-7.753h31.565a7.562,7.562,0,0,1,5.442,2.255A8.7,8.7,0,0,1,172,164v22.389A12.49,12.49,0,0,1,162.5,207ZM128,191v6a3.91,3.91,0,0,0,1.228,2.974C130.1,200.854,131.694,201,133,201h18.838a12.476,12.476,0,0,1,15.073-18.184l-6.989-8.869-12.136,14.316a1.5,1.5,0,0,1-2.068,0l-8.218-8.3L128,190v1Zm41.01-27.2a4.848,4.848,0,0,0-1.415-3.409A5.243,5.243,0,0,0,164,159H133a5.557,5.557,0,0,0-3.718,1.387A5.146,5.146,0,0,0,128,164v22l8.466-9.228a1.45,1.45,0,0,1,2.068,0l8.218,8.357,12.136-14.316a1.45,1.45,0,0,1,2.068,0l8.054,10.137V163.8ZM162.5,185a9.5,9.5,0,1,0,9.5,9.5A9.5,9.5,0,0,0,162.5,185Zm2.265,9.971L164,194v6a1.686,1.686,0,0,1-1.575,1.623A1.56,1.56,0,0,1,161,200v-6l-0.915.971a1.5,1.5,0,0,1-2.068,0,1.542,1.542,0,0,1,0-2.09l3.374-3.409a1.285,1.285,0,0,1,.49-0.33,1.576,1.576,0,0,1,.49-0.11h0.109a1.57,1.57,0,0,1,.489.11,1.9,1.9,0,0,1,.49.33l3.374,3.409a1.54,1.54,0,0,1,0,2.09A1.5,1.5,0,0,1,164.765,194.971ZM146.5,172a3.505,3.505,0,1,1,3.5-3.505A3.5,3.5,0,0,1,146.5,172Z" transform="translate(-101.5 -143.531)"/>
</svg>
