<?xml version="1.0" encoding="utf-8"?>
<!-- Generator: Adobe Illustrator 22.0.0, SVG Export Plug-In . SVG Version: 6.00 Build 0)  -->
<svg version="1.1" id="Capa_1" xmlns="http://www.w3.org/2000/svg" xmlns:xlink="http://www.w3.org/1999/xlink" x="0px" y="0px"
	 width="21px" height="14px" viewBox="0 0 21 14" style="enable-background:new 0 0 21 14;" xml:space="preserve">
<style type="text/css">
	.st0{fill:#F0F0F0;}
	.st1{fill:#D80027;}
	.st2{fill:#2E52B2;}
</style>
<rect y="0" class="st0" width="21" height="14"/>
<g>
	<rect y="1.8" class="st1" width="21" height="1.7"/>
	<rect y="5.3" class="st1" width="21" height="1.7"/>
	<rect y="8.8" class="st1" width="21" height="1.7"/>
	<rect y="12.3" class="st1" width="21" height="1.7"/>
</g>
<rect y="0" class="st2" width="10.5" height="7.5"/>
<g>
	<polygon class="st0" points="4.1,3.1 3.9,3.6 3.4,3.6 3.8,4 3.7,4.5 4.1,4.1 4.5,4.5 4.4,4 4.8,3.6 4.3,3.6 	"/>
	<polygon class="st0" points="4.3,5.5 4.1,5 3.9,5.5 3.4,5.5 3.8,5.8 3.7,6.3 4.1,6 4.5,6.3 4.4,5.8 4.8,5.5 	"/>
	<polygon class="st0" points="2,5.5 1.8,5 1.6,5.5 1.1,5.5 1.5,5.8 1.3,6.3 1.8,6 2.2,6.3 2.1,5.8 2.5,5.5 	"/>
	<polygon class="st0" points="1.8,3.1 1.6,3.6 1.1,3.6 1.5,4 1.3,4.5 1.8,4.1 2.2,4.5 2.1,4 2.5,3.6 2,3.6 	"/>
	<polygon class="st0" points="4.1,1.2 3.9,1.8 3.4,1.8 3.8,2.1 3.7,2.6 4.1,2.3 4.5,2.6 4.4,2.1 4.8,1.8 4.3,1.8 	"/>
	<polygon class="st0" points="1.8,1.2 1.6,1.8 1.1,1.8 1.5,2.1 1.3,2.6 1.8,2.3 2.2,2.6 2.1,2.1 2.5,1.8 2,1.8 	"/>
	<polygon class="st0" points="6.4,3.1 6.2,3.6 5.7,3.6 6.1,4 6,4.5 6.4,4.1 6.8,4.5 6.7,4 7.1,3.6 6.6,3.6 	"/>
	<polygon class="st0" points="6.6,5.5 6.4,5 6.2,5.5 5.7,5.5 6.1,5.8 6,6.3 6.4,6 6.8,6.3 6.7,5.8 7.1,5.5 	"/>
	<polygon class="st0" points="8.9,5.5 8.7,5 8.5,5.5 8,5.5 8.4,5.8 8.3,6.3 8.7,6 9.2,6.3 9,5.8 9.4,5.5 	"/>
	<polygon class="st0" points="8.7,3.1 8.5,3.6 8,3.6 8.4,4 8.3,4.5 8.7,4.1 9.2,4.5 9,4 9.4,3.6 8.9,3.6 	"/>
	<polygon class="st0" points="6.4,1.2 6.2,1.8 5.7,1.8 6.1,2.1 6,2.6 6.4,2.3 6.8,2.6 6.7,2.1 7.1,1.8 6.6,1.8 	"/>
	<polygon class="st0" points="8.7,1.2 8.5,1.8 8,1.8 8.4,2.1 8.3,2.6 8.7,2.3 9.2,2.6 9,2.1 9.4,1.8 8.9,1.8 	"/>
</g>
</svg>
