<svg version="1.1" id="Capa_1" xmlns="http://www.w3.org/2000/svg" x="0" y="0" width="21" height="14" xml:space="preserve"><style type="text/css">.st0{fill:#0052b4}.st1{fill:#d80027}.st2{fill:#f0f0f0}</style><path class="st0" d="M0 0h21v14H0z"/><path class="st1" d="M17.4 6.1l.2.4h.4l-.3.3.1.4-.4-.3-.3.3.1-.4-.3-.3h.4zm-1.6 3.1l.2.6h.7l-.5.4.2.6-.6-.4-.5.4.2-.6-.5-.4h.6zm.1-5.1l.2.6h.5l-.4.3.2.5-.5-.3-.5.3.2-.5-.4-.3h.5zm-1.5 2l.2.6h.6l-.5.4.2.6-.5-.3-.6.3.2-.6-.5-.4h.6z"/><path class="st2" d="M10.5 0v1.3l-1.9 1h1.9v2.4H8.1l2.4 1.4V7H9.4l-3-1.7V7H4.1V5L.5 7H0V5.7l1.9-1H0V2.3h2.4L0 .9V0h1.1l3 1.7V0h2.3v2L10 0z"/><path class="st1" d="M5.9 0H4.6v2.8H0v1.4h4.6V7h1.3V4.2h4.6V2.8H5.9z"/><path class="st0" d="M6.4 4.7L10.5 7v-.6L7.6 4.7z"/><path class="st2" d="M6.4 4.7L10.5 7v-.6L7.6 4.7z"/><path class="st1" d="M6.4 4.7L10.5 7v-.6L7.6 4.7zm-3.5 0L0 6.4V7l4.1-2.3z"/><path class="st0" d="M4.1 2.3L0 0v.6l2.9 1.7z"/><path class="st2" d="M4.1 2.3L0 0v.6l2.9 1.7z"/><path class="st1" d="M4.1 2.3L0 0v.6l2.9 1.7zm3.5 0L10.5.6V0L6.4 2.3z"/></svg>