<svg version="1.1" id="Capa_1" xmlns="http://www.w3.org/2000/svg" x="0" y="0" width="21" height="14" xml:space="preserve"><style type="text/css">.st0{fill:#f0f0f0}.st1{fill:#d80027}.st2{fill:#0052b4}</style><path class="st0" d="M0 0h21v14H0z"/><path class="st1" d="M11.8 0H9.2v5.7H0v2.6h9.2V14h2.6V8.3H21V5.7h-9.2z"/><path class="st2" d="M16.2 9.4l4.8 2.7V9.4zm-3.4 0L21 14v-1.3l-5.9-3.3zm6 4.6l-6-3.3V14z"/><path class="st0" d="M12.8 9.4L21 14v-1.3l-5.9-3.3z"/><path class="st1" d="M12.8 9.4L21 14v-1.3l-5.9-3.3z"/><path class="st2" d="M3.7 9.4L0 11.5V9.4zm4.5.6v4H1.1z"/><path class="st1" d="M5.9 9.4L0 12.7V14l8.2-4.6z"/><path class="st2" d="M4.9 4.6L0 1.9v2.7zm3.3 0L0 0v1.3l5.9 3.3zM2.2 0l6 3.3V0z"/><path class="st0" d="M8.2 4.6L0 0v1.3l5.9 3.3z"/><path class="st1" d="M8.2 4.6L0 0v1.3l5.9 3.3z"/><path class="st2" d="M17.3 4.6L21 2.5v2.1zM12.8 4V0H20z"/><path class="st1" d="M15.1 4.6L21 1.3V0l-8.2 4.6z"/></svg>