<svg id="upload" xmlns="http://www.w3.org/2000/svg" width="88.375" height="68.969"><defs><style>.cls-2,.cls-3{fill-rule:evenodd}.cls-2{fill:none;stroke:#d9d4e1;stroke-width:3px;opacity:.5}.cls-3{opacity:.5;fill:#d9d4e1}</style></defs><path id="Rounded_Rectangle_7" data-name="Rounded Rectangle 7" d="M125 162.5v35a6.157 6.157 0 0 0 2.692 4.432l-1.97.528a4 4 0 0 1-4.9-2.829l-8.283-30.909a4 4 0 0 1 2.829-4.9l9.717-2.172a4.485 4.485 0 0 0-.085.85z" transform="translate(-101.5 -143.531)" fill-rule="evenodd" fill="#3f2a69" opacity=".1"/><path id="Forma_1_copy_4" data-name="Forma 1 copy 4" class="cls-2" d="M183.5 201.984a4.506 4.506 0 1 1-4.5 4.506 4.5 4.5 0 0 1 4.5-4.506z" transform="translate(-101.5 -143.531)"/><path id="Forma_1_copy_5" data-name="Forma 1 copy 5" class="cls-2" d="M107.5 183.984a4.506 4.506 0 1 1-4.5 4.506 4.5 4.5 0 0 1 4.5-4.506z" transform="translate(-101.5 -143.531)"/><path id="Rounded_Rectangle_8" data-name="Rounded Rectangle 8" class="cls-3" d="M122.263 151.25a1.5 1.5 0 0 1-2.049.549l-2.165-1.25-1.25 2.165a1.5 1.5 0 0 1-2.6-1.5l1.25-2.165-2.165-1.25a1.5 1.5 0 1 1 1.5-2.6l2.165 1.25 1.25-2.165a1.5 1.5 0 1 1 2.6 1.5l-1.25 2.165 2.165 1.25a1.5 1.5 0 0 1 .549 2.051z" transform="translate(-101.5 -143.531)"/><path id="Rounded_Rectangle_8_copy" data-name="Rounded Rectangle 8 copy" class="cls-3" d="M188.752 182.914l-2.415.647.647 2.414a1.5 1.5 0 1 1-2.9.777l-.647-2.415-2.414.647a1.5 1.5 0 1 1-.777-2.9l2.415-.647-.647-2.414a1.5 1.5 0 1 1 2.9-.777l.647 2.415 2.415-.647a1.5 1.5 0 1 1 .776 2.9z" transform="translate(-101.5 -143.531)"/><path id="Forma_1_copy_2" data-name="Forma 1 copy 2" d="M162.5 207a12.438 12.438 0 0 1-8.111-3H133a8.143 8.143 0 0 1-5.786-1.937 7.959 7.959 0 0 1-2.231-5.5v-32.822a7.659 7.659 0 0 1 7.673-7.753h31.565a7.562 7.562 0 0 1 5.442 2.255A8.7 8.7 0 0 1 172 164v22.389A12.49 12.49 0 0 1 162.5 207zM128 191v6a3.91 3.91 0 0 0 1.228 2.974c.872.88 2.466 1.026 3.772 1.026h18.838a12.476 12.476 0 0 1 15.073-18.184l-6.989-8.869-12.136 14.316a1.5 1.5 0 0 1-2.068 0l-8.218-8.3L128 190v1zm41.01-27.2a4.848 4.848 0 0 0-1.415-3.409A5.243 5.243 0 0 0 164 159h-31a5.557 5.557 0 0 0-3.718 1.387A5.146 5.146 0 0 0 128 164v22l8.466-9.228a1.45 1.45 0 0 1 2.068 0l8.218 8.357 12.136-14.316a1.45 1.45 0 0 1 2.068 0l8.054 10.137V163.8zM162.5 185a9.5 9.5 0 1 0 9.5 9.5 9.5 9.5 0 0 0-9.5-9.5zm2.265 9.971L164 194v6a1.686 1.686 0 0 1-1.575 1.623A1.56 1.56 0 0 1 161 200v-6l-.915.971a1.5 1.5 0 0 1-2.068 0 1.542 1.542 0 0 1 0-2.09l3.374-3.409a1.285 1.285 0 0 1 .49-.33 1.576 1.576 0 0 1 .49-.11h.109a1.57 1.57 0 0 1 .489.11 1.9 1.9 0 0 1 .49.33l3.374 3.409a1.54 1.54 0 0 1 0 2.09 1.5 1.5 0 0 1-2.068 0zM146.5 172a3.505 3.505 0 1 1 3.5-3.505 3.5 3.5 0 0 1-3.5 3.505z" transform="translate(-101.5 -143.531)" fill="#d9d4e1" fill-rule="evenodd"/></svg>