<svg version="1.1" id="Capa_1" xmlns="http://www.w3.org/2000/svg" x="0" y="0" width="21" height="14" xml:space="preserve"><style type="text/css">.st0{fill:#f0f0f0}</style><path class="st0" d="M0 0h21v14H0z"/><path d="M0 1.8h21v1.7H0zm0 3.5h21V7H0zm0 3.5h21v1.7H0zm0 3.5h21V14H0z" fill="#d80027"/><path fill="#2e52b2" d="M0 0h10.5v7.5H0z"/><path class="st0" d="M4.1 3.1l-.2.5h-.5l.4.4-.1.5.4-.4.4.4-.1-.5.4-.4h-.5zm.2 2.4L4.1 5l-.2.5h-.5l.4.3-.1.5.4-.3.4.3-.1-.5.4-.3zM2 5.5L1.8 5l-.2.5h-.5l.4.3-.2.5.5-.3.4.3-.1-.5.4-.3zm-.2-2.4l-.2.5h-.5l.4.4-.2.5.5-.4.4.4-.1-.5.4-.4H2zm2.3-1.9l-.2.6h-.5l.4.3-.1.5.4-.3.4.3-.1-.5.4-.3h-.5zm-2.3 0l-.2.6h-.5l.4.3-.2.5.5-.3.4.3-.1-.5.4-.3H2zm4.6 1.9l-.2.5h-.5l.4.4-.1.5.4-.4.4.4-.1-.5.4-.4h-.5zm.2 2.4L6.4 5l-.2.5h-.5l.4.3-.1.5.4-.3.4.3-.1-.5.4-.3zm2.3 0L8.7 5l-.2.5H8l.4.3-.1.5.4-.3.5.3-.2-.5.4-.3zm-.2-2.4l-.2.5H8l.4.4-.1.5.4-.4.5.4L9 4l.4-.4h-.5zM6.4 1.2l-.2.6h-.5l.4.3-.1.5.4-.3.4.3-.1-.5.4-.3h-.5zm2.3 0l-.2.6H8l.4.3-.1.5.4-.3.5.3-.2-.5.4-.3h-.5z"/></svg>