<svg xmlns="http://www.w3.org/2000/svg" width="67" height="10"><path id="f-logo" d="M556.189 765.01c2.165 0 3.15-1.248 3.15-2.408 0-1.032-.6-1.6-1.886-1.771-1.437-.2-1.641-.316-1.641-.659 0-.388.367-.562 1.189-.562a3.616 3.616 0 0 1 2.156.589h.017v-.641c0-1.077-.859-1.622-2.554-1.622-1.88 0-3.048.894-3.048 2.334 0 .731.334 1.655 1.925 1.906 1.489.237 1.641.328 1.641.61 0 .25-.213.549-1.228.549a3.829 3.829 0 0 1-2.156-.564h-.017v.665c0 .985.917 1.574 2.452 1.574m9.927-.2h.891v-4.029a2.612 2.612 0 0 0-2.6-2.85 2.185 2.185 0 0 0-2.014.929l-.064.1v-1.66a1.293 1.293 0 0 0-1.538-1.3h-.74v7.443c0 .966.468 1.378 1.564 1.378h.778v-3.587c0-1.224.46-1.469 1.2-1.469.723 0 1.075.464 1.075 1.42v2.258a1.186 1.186 0 0 0 1.45 1.378m11.723 0h.8v-3.636a2.933 2.933 0 0 0-3.2-3.243 2.746 2.746 0 0 0-2.153 1.187l-.037.057-.025-.062a2.369 2.369 0 0 0-2.112-1.182c-2.131 0-3.353 1.16-3.353 3.182v2.368a1.279 1.279 0 0 0 1.538 1.329h.8v-3.845c0-.852.282-1.2.974-1.2a.944.944 0 0 1 .986 1.163v2.552c0 .956.41 1.329 1.463 1.329h.8v-3.857a.957.957 0 0 1 .936-1.187c.737 0 1.037.354 1.037 1.224v2.491c0 .8.262 1.329 1.539 1.329m-32.306.1c2.131 0 3.353-1.16 3.353-3.181v-2.369a1.279 1.279 0 0 0-1.539-1.328h-.8v3.843c0 .853-.283 1.2-.974 1.2a.944.944 0 0 1-.987-1.162v-2.553c0-.956-.41-1.328-1.462-1.328h-.8v3.856a.957.957 0 0 1-.936 1.187c-.736 0-1.037-.355-1.037-1.224v-2.491c0-.8-.262-1.328-1.538-1.328h-.8v3.635a2.933 2.933 0 0 0 3.2 3.243 2.744 2.744 0 0 0 2.152-1.187l.037-.057.026.063a2.369 2.369 0 0 0 2.112 1.181m36.714.08c2.54 0 3.315-.729 3.315-3.121v-1.042c0-1.87-1.119-2.9-3.15-2.9-1.974 0-2.858.821-2.858 1.635v.788h.015a2.9 2.9 0 0 1 2.3-.736c.906 0 1.431.118 1.431.721v.316h-.378c-2.469 0-3.619.707-3.619 2.224 0 1.452 1.528 2.114 2.947 2.114m.584-2.958h.517v.537a.775.775 0 0 1-.847.856c-.673 0-.987-.217-.987-.684-.003-.491.403-.71 1.314-.71zm4.5-6.047h-.891v7.48a1.31 1.31 0 0 0 1.424 1.341h.916v-3.295l.064.1c.1.152.206.3.307.454a21.437 21.437 0 0 0 1.746 2.352 1.79 1.79 0 0 0 1.217.455 1.268 1.268 0 0 0 1.434-1.107A1.883 1.883 0 0 1 592.3 763a14.177 14.177 0 0 1-1.1-1.472l-.212-.311-.013-.019.013-.019a38.058 38.058 0 0 1 2.595-3.038v-.013h-1.652a1.388 1.388 0 0 0-1.256.442 16.878 16.878 0 0 0-1.631 2.116l-.206.3-.064.092v-3.758a1.279 1.279 0 0 0-1.449-1.329m12.851 4.608c0-1.6-1.291-2.678-3.213-2.678a3.5 3.5 0 0 0-3.556 3.685 3.355 3.355 0 0 0 3.645 3.4c1.7 0 2.68-.582 2.68-1.6v-.507h-.043a4.291 4.291 0 0 1-2.218.43c-1.034 0-1.606-.334-1.748-1.021l-.008-.041h1.085c2.526 0 3.378-.422 3.378-1.672m-3.543.243h-.977v-.037a1.208 1.208 0 0 1 1.3-1.209.885.885 0 0 1 1.05.746c.01.33-.208.506-1.37.506zm5.759 3.97h.624v-4a.99.99 0 0 1 1.076-1.139 2.289 2.289 0 0 1 .856.136h.035v-.826c0-.67-.646-1.07-1.729-1.07a2.35 2.35 0 0 0-2.5 2.408v2.933a1.42 1.42 0 0 0 1.64 1.562m-52.152-6.78h-.561v4.7a2.011 2.011 0 0 0 2.249 2.174 1.114 1.114 0 0 0 1.348-1.045v-.654h-.257c-.728 0-1-.222-1-.819v-2.786c0-1.206-.416-1.573-1.78-1.573m.611-3.029a1.118 1.118 0 1 0 1.156 1.117 1.138 1.138 0 0 0-1.156-1.117" transform="translate(-538 -755)" fill-rule="evenodd" opacity=".2"/></svg>