<svg xmlns="http://www.w3.org/2000/svg" width="157.624" height="24.375"><path id="logo" d="M583.983 51.7c5.093 0 7.411-3.041 7.411-5.867 0-2.513-1.409-3.884-4.437-4.313-3.381-.476-3.862-.769-3.862-1.605 0-.947.864-1.369 2.8-1.369a8.287 8.287 0 0 1 5.072 1.435h.041v-1.564c0-2.623-2.021-3.953-6.009-3.953-4.424 0-7.172 2.178-7.172 5.687 0 1.781.786 4.031 4.529 4.642 3.5.579 3.86.8 3.86 1.487 0 .61-.5 1.337-2.889 1.337a8.752 8.752 0 0 1-5.071-1.374h-.041v1.621c0 2.4 2.157 3.834 5.769 3.834m23.357-.478h2.1v-9.814c0-4.77-3.176-6.942-6.127-6.942-2.251 0-3.756.719-4.737 2.263l-.152.238v-4.057c0-2.049-1.285-3.177-3.62-3.177h-1.739v18.133c0 2.352 1.1 3.356 3.679 3.356h1.829v-8.737c0-2.981 1.083-3.58 2.829-3.58 1.7 0 2.53 1.132 2.53 3.46v5.5c0 2.072.57 3.356 3.412 3.356m27.582 0h1.888v-8.856c0-5.02-2.745-7.9-7.531-7.9a6.417 6.417 0 0 0-5.065 2.891l-.086.138-.06-.151c-.72-1.8-3.092-2.878-4.97-2.878-5.013 0-7.888 2.825-7.888 7.75v5.77c0 2.147 1.218 3.236 3.619 3.236h1.889v-9.364c0-2.075.664-2.923 2.291-2.923 1.583 0 2.321.9 2.321 2.833v6.218c0 2.329.964 3.236 3.441 3.236h1.888v-9.394c0-1.921.741-2.894 2.2-2.894 1.734 0 2.441.864 2.441 2.983v6.069c0 1.942.615 3.236 3.62 3.236m-76.011.239c5.014 0 7.889-2.825 7.889-7.75v-5.77c0-2.147-1.218-3.236-3.62-3.236h-1.888v9.364c0 2.076-.665 2.923-2.292 2.923-1.583 0-2.321-.9-2.321-2.833v-6.217c0-2.329-.964-3.236-3.44-3.236h-1.892V44.1c0 1.919-.741 2.892-2.2 2.892-1.733 0-2.44-.864-2.44-2.983v-6.07c0-1.942-.616-3.236-3.62-3.236h-1.89v8.856c0 5.02 2.744 7.9 7.531 7.9a6.417 6.417 0 0 0 5.064-2.891l.087-.138.06.152c.719 1.8 3.091 2.877 4.969 2.877m86.387.21c5.976 0 7.8-1.776 7.8-7.6v-2.543c0-4.554-2.632-7.062-7.411-7.062-4.645 0-6.724 2-6.724 3.983v1.92H639c1.105-1.018 2.218-1.793 5.405-1.793 2.132 0 3.367.288 3.367 1.756v.77h-.892c-5.81 0-8.516 1.722-8.516 5.418 0 3.538 3.595 5.149 6.934 5.149m1.373-7.2h1.217v1.308a1.858 1.858 0 0 1-1.993 2.085c-1.583 0-2.321-.529-2.321-1.667 0-1.193.955-1.73 3.097-1.73zm10.581-14.731h-2.1v18.218a3.133 3.133 0 0 0 3.351 3.266h2.157v-8.025l.15.23q.365.555.722 1.107a52.351 52.351 0 0 0 4.108 5.731 4.132 4.132 0 0 0 2.864 1.107c1.95 0 3.145-.956 3.373-2.7a4.408 4.408 0 0 1-2.927-1.861 34.568 34.568 0 0 1-2.582-3.588q-.252-.383-.5-.756l-.031-.047.032-.045a91.092 91.092 0 0 1 6.105-7.4v-.031h-3.888c-1.767 0-2.278.345-2.955 1.079a40.918 40.918 0 0 0-3.836 5.154c-.163.244-.324.486-.486.726l-.149.224v-9.157a3.069 3.069 0 0 0-3.411-3.236m30.237 11.226c0-3.9-3.037-6.525-7.559-6.525-4.849 0-8.367 3.775-8.367 8.976 0 5.725 4.306 8.288 8.575 8.288 4.008 0 6.306-1.419 6.306-3.894v-1.232h-.1c-1.041.694-2.8 1.046-5.22 1.046s-3.776-.814-4.111-2.487l-.019-.1h2.548c5.943 0 7.948-1.028 7.948-4.074m-8.336.59h-2.3l.008-.089a2.885 2.885 0 0 1 3.068-2.946c1.7 0 2.47.942 2.47 1.817.003.792-.515 1.22-3.244 1.22zM692.7 51.22h1.469v-9.754c0-2.292 1.378-2.773 2.532-2.773a5.227 5.227 0 0 1 2.014.33h.085v-2.011c0-1.633-1.52-2.609-4.067-2.609a5.624 5.624 0 0 0-5.889 5.867v7.145c0 2.524 1.3 3.8 3.859 3.8M570 34.7h-1.321v11.46c0 4.61 3.316 5.3 5.292 5.3 1.447 0 3.172-.442 3.172-2.548v-1.594h-.605c-1.713 0-2.351-.541-2.351-2v-6.782c0-2.938-.978-3.833-4.187-3.833m1.433-7.4a2.723 2.723 0 1 0 2.719 2.722 2.723 2.723 0 0 0-2.719-2.722" transform="translate(-541.188 -27.313)" fill="#fff" fill-rule="evenodd"/></svg>