<svg version="1.1" id="crown" xmlns="http://www.w3.org/2000/svg" x="0" y="0" width="39" height="25.5" xml:space="preserve"><style type="text/css">.st1{fill:#ebb81e}</style><path d="M27 25.5c7.6 0 12-4.3 12-11.8V4.9C39 1.7 37.1 0 33.5 0h-2.9v5c0 3.2-1 4.4-3.5 4.4-2.4 0-3.5-1.4-3.5-4.3v-.2c0-3.5-1.5-4.9-5.2-4.9h-2.9v5c0 2.9-1.1 4.4-3.4 4.4-2.6 0-3.7-1.3-3.7-4.5C8.4 2 7.5 0 2.9 0H0v13.5c0 7.6 4.2 12 11.5 12H27" fill="#ffd528"/><path class="st1" d="M28.1 23.7H12.6c-7.3 0-11.5-4.4-11.5-12V0H0v13.5c0 7.6 4.2 12 11.5 12H27c5.3 0 9.1-2.1 10.8-5.9-2 2.6-5.3 4.1-9.7 4.1z"/><path class="st1" d="M13.3 9.2c2.1-.1 3.2-1.5 3.2-4.4V-.1h-1v5c0 2.5-.8 3.9-2.2 4.3zm15.3 0c2.2-.1 3.1-1.4 3.1-4.4V0h-1v5c-.1 2.5-.7 3.8-2.1 4.2z"/></svg>