<svg id="logo-wiki" xmlns="http://www.w3.org/2000/svg" width="166" height="42.719"><defs><style>.cls-1{fill:#fff;fill-rule:evenodd}</style></defs><path id="wiki" class="cls-1" d="M604.795 49.817a.511.511 0 0 0-.5.324l-2.506 7.524-2.363-7.416a.545.545 0 0 0-.541-.432.529.529 0 0 0-.343.117.6.6 0 0 0-.2.315l-2.345 7.56-2.542-7.668a.527.527 0 0 0-.208-.243.566.566 0 0 0-.3-.081.415.415 0 0 0-.451.486 2.207 2.207 0 0 0 .036.288l2.921 8.73a.474.474 0 0 0 .19.252.553.553 0 0 0 .315.09.49.49 0 0 0 .5-.342l2.381-7.614 2.453 7.614a.386.386 0 0 0 .18.252.6.6 0 0 0 .325.09.586.586 0 0 0 .333-.09.474.474 0 0 0 .19-.252l2.9-8.73a.77.77 0 0 0 .054-.27.527.527 0 0 0-.126-.36.455.455 0 0 0-.361-.144zm4.635.54v8.766a.555.555 0 0 0 .938.387.542.542 0 0 0 .144-.387v-8.766a.5.5 0 0 0-.541-.54.545.545 0 0 0-.388.144.518.518 0 0 0-.153.4zm.541-4.284a.886.886 0 0 0-.6.216.762.762 0 0 0-.252.612.835.835 0 0 0 .234.6.79.79 0 0 0 .6.243.832.832 0 0 0 .847-.844.774.774 0 0 0-.244-.612.853.853 0 0 0-.586-.216zm13.4 12.8l-3.932-4.806 3.824-3.474a.463.463 0 0 0 .18-.342.482.482 0 0 0-.162-.342.466.466 0 0 0-.343-.18.561.561 0 0 0-.343.144l-5.59 5.076v-8.8a.5.5 0 0 0-.541-.54.543.543 0 0 0-.388.144.518.518 0 0 0-.153.4v12.97a.523.523 0 0 0 .541.54.517.517 0 0 0 .4-.153.543.543 0 0 0 .145-.387v-2.862l1.677-1.53L622.6 59.5a.47.47 0 0 0 .379.216.548.548 0 0 0 .325-.144.514.514 0 0 0 .2-.378.48.48 0 0 0-.126-.324zm5.067-8.514v8.766a.555.555 0 0 0 .938.387.543.543 0 0 0 .145-.387v-8.768a.5.5 0 0 0-.542-.54.543.543 0 0 0-.387.144.515.515 0 0 0-.154.4zm.541-4.284a.888.888 0 0 0-.6.216.762.762 0 0 0-.252.612.835.835 0 0 0 .234.6.791.791 0 0 0 .6.243.83.83 0 0 0 .848-.846.776.776 0 0 0-.243-.612.855.855 0 0 0-.587-.216z" transform="translate(-530 -17)"/><path id="Shape_601_copy" data-name="Shape 601 copy" class="cls-1" d="M575.069 41.987c5.365 0 7.807-3.113 7.807-6.006 0-2.573-1.485-3.976-4.674-4.416-3.561-.487-4.068-.788-4.068-1.644 0-.969.91-1.4 2.948-1.4a8.9 8.9 0 0 1 5.342 1.47h.043v-1.6c0-2.685-2.128-4.046-6.328-4.046-4.66 0-7.555 2.23-7.555 5.822 0 1.823.828 4.127 4.771 4.752 3.69.593 4.065.818 4.065 1.521 0 .625-.528 1.37-3.043 1.37a9.418 9.418 0 0 1-5.341-1.407h-.043v1.66c0 2.457 2.272 3.924 6.076 3.924m24.6-.489h2.208V31.451c0-4.884-3.346-7.108-6.454-7.108-2.371 0-3.956.736-4.99 2.318l-.16.243v-4.153c0-2.1-1.353-3.252-3.812-3.252h-1.832v18.564c0 2.408 1.159 3.435 3.876 3.435h1.926v-8.945c0-3.052 1.14-3.665 2.979-3.665 1.794 0 2.665 1.159 2.665 3.543v5.632c0 2.12.6 3.435 3.594 3.435m29.052 0h1.989v-9.067c0-5.14-2.891-8.088-7.933-8.088a6.8 6.8 0 0 0-5.335 2.96l-.09.141-.063-.154c-.759-1.844-3.257-2.947-5.235-2.947-5.281 0-8.309 2.892-8.309 7.935v5.907c0 2.2 1.283 3.313 3.812 3.313h1.99V31.91c0-2.125.7-2.992 2.413-2.992 1.667 0 2.445.922 2.445 2.9v6.366c0 2.385 1.016 3.313 3.624 3.313h1.989V31.88c0-1.966.781-2.962 2.319-2.962 1.826 0 2.571.885 2.571 3.053v6.213c0 1.988.648 3.313 3.813 3.313m-80.063.244c5.282 0 8.31-2.892 8.31-7.934V27.9c0-2.2-1.283-3.312-3.813-3.312h-1.989v9.586c0 2.125-.7 2.992-2.413 2.992-1.668 0-2.445-.921-2.445-2.9V27.9c0-2.385-1.016-3.312-3.624-3.312H540.7v9.617c0 1.965-.781 2.961-2.319 2.961-1.826 0-2.571-.884-2.571-3.053V27.9c0-1.988-.649-3.312-3.812-3.312h-1.989v9.066c0 5.139 2.89 8.087 7.932 8.087a6.794 6.794 0 0 0 5.334-2.96l.092-.142.063.156c.757 1.843 3.255 2.945 5.233 2.945m90.992.215c6.295 0 8.214-1.818 8.214-7.782v-2.6c0-4.662-2.771-7.23-7.8-7.23-4.893 0-7.083 2.047-7.083 4.078v1.965h.037c1.164-1.041 2.336-1.836 5.693-1.836 2.246 0 3.547.3 3.547 1.8v.789h-.937c-6.119 0-8.969 1.762-8.969 5.547 0 3.623 3.786 5.272 7.3 5.272m1.447-7.376h1.282v1.34a1.928 1.928 0 0 1-2.1 2.134c-1.668 0-2.444-.541-2.444-1.706-.005-1.224 1.001-1.769 3.258-1.769zM652.243 19.5h-2.208v18.654a3.256 3.256 0 0 0 3.529 3.343h2.272v-8.215l.158.236q.384.567.761 1.133a53.5 53.5 0 0 0 4.327 5.868 4.425 4.425 0 0 0 3.018 1.131c2.054 0 3.312-.979 3.553-2.759a4.669 4.669 0 0 1-3.083-1.906 35.354 35.354 0 0 1-2.72-3.673q-.265-.392-.526-.774l-.033-.049.033-.046a93.938 93.938 0 0 1 6.432-7.577v-.033h-4.1c-1.861 0-2.4.353-3.112 1.1a41.953 41.953 0 0 0-4.041 5.276l-.512.744-.157.228v-9.368c0-.778-.26-3.313-3.593-3.313m31.849 11.493c0-4-3.2-6.68-7.962-6.68-5.108 0-8.813 3.864-8.813 9.19 0 5.861 4.536 8.485 9.032 8.485 4.222 0 6.643-1.452 6.643-3.986v-1.264h-.108c-1.1.711-2.944 1.071-5.5 1.071s-3.978-.833-4.33-2.547l-.02-.1h2.683c6.261 0 8.372-1.052 8.372-4.17m-8.78.6h-2.417l.009-.091a3 3 0 0 1 3.231-3.016c1.787 0 2.6.964 2.6 1.86.002.813-.544 1.255-3.418 1.255zm14.27 9.9h1.549v-9.98c0-2.346 1.45-2.838 2.666-2.838a5.652 5.652 0 0 1 2.122.337H696v-2.059c0-1.672-1.6-2.67-4.284-2.67a5.842 5.842 0 0 0-6.2 6.006V37.6c0 2.584 1.367 3.9 4.063 3.9m-129.24-16.912h-1.391v11.73c0 4.72 3.492 5.424 5.574 5.424 1.524 0 3.34-.452 3.34-2.609V37.5h-.637c-1.8 0-2.476-.553-2.476-2.043v-6.944c0-3.007-1.031-3.924-4.41-3.924m1.509-7.579a2.788 2.788 0 1 0 2.864 2.787 2.829 2.829 0 0 0-2.864-2.787" transform="translate(-530 -17)"/></svg>