<?xml version="1.0" encoding="utf-8"?>
<!-- Generator: Adobe Illustrator 22.0.0, SVG Export Plug-In . SVG Version: 6.00 Build 0)  -->
<svg version="1.1" id="Object" xmlns="http://www.w3.org/2000/svg" xmlns:xlink="http://www.w3.org/1999/xlink" x="0px" y="0px"
	 width="174.8px" height="174.8px" viewBox="0 0 174.8 174.8" style="enable-background:new 0 0 174.8 174.8;" xml:space="preserve"
	>
<style type="text/css">
	.st0{fill:#3F2A69;}
	.st1{fill:#F8AC34;}
	.st2{fill:#FFFFFF;}
</style>
<g>
	<path class="st0" d="M87.4-0.1C39.1-0.1-0.1,39.1-0.1,87.4c0,29.6,14.7,55.7,37.1,71.5l50.4-71.5V-0.1z"/>
	<path class="st1" d="M174.9,87.4c0-48.3-39.2-87.5-87.5-87.5v87.5L37,158.9c14.2,10,31.6,16,50.4,16
		C135.7,174.9,174.9,135.7,174.9,87.4z"/>
	<g>
		<g>
			<path class="st2" d="M36.3,90.2v-3.4h-5.8v-1.1l5.6-8h1.8v7.8h1.7v1.3h-1.7v3.4H36.3z M36.3,85.5v-4.2c0-0.7,0-1.3,0.1-2h-0.1
				c-0.4,0.7-0.7,1.3-1,1.8l-3.1,4.2v0H36.3z"/>
			<path class="st2" d="M49.7,83.8c0,4.2-1.6,6.6-4.3,6.6c-2.4,0-4.1-2.3-4.1-6.4c0-4.2,1.8-6.5,4.3-6.5
				C48.2,77.5,49.7,79.9,49.7,83.8z M43,84c0,3.2,1,5.1,2.5,5.1c1.7,0,2.6-2,2.6-5.2c0-3.1-0.8-5.1-2.5-5.1C44,78.8,43,80.6,43,84z"
				/>
			<path class="st2" d="M57.4,81.2c0,2.6-1.4,3.9-3,3.9c-1.6,0-2.9-1.2-2.9-3.8c0-2.5,1.4-3.9,3-3.9C56.3,77.5,57.4,78.9,57.4,81.2z
				 M52.8,81.4c0,1.6,0.6,2.8,1.6,2.8c1.1,0,1.6-1.2,1.6-2.8c0-1.5-0.4-2.8-1.6-2.8C53.4,78.5,52.8,79.8,52.8,81.4z M54.3,90.4
				l7.3-12.9h1.1l-7.3,12.9H54.3z M65.5,86.4c0,2.6-1.4,3.9-3,3.9c-1.6,0-2.9-1.2-2.9-3.7c0-2.5,1.4-3.9,3-3.9
				C64.4,82.7,65.5,84,65.5,86.4z M61,86.5c0,1.6,0.6,2.8,1.6,2.8c1.1,0,1.6-1.2,1.6-2.8c0-1.5-0.4-2.8-1.6-2.8
				C61.5,83.7,61,84.9,61,86.5z"/>
		</g>
	</g>
	<g>
		<g>
			<path class="st2" d="M115.9,78.9c-0.3,0-0.8,0-1.3,0.1c-2.7,0.4-4.1,2.4-4.4,4.5h0.1c0.6-0.8,1.6-1.5,3-1.5
				c2.2,0,3.8,1.6,3.8,4.1c0,2.3-1.6,4.4-4.2,4.4c-2.7,0-4.5-2.1-4.5-5.4c0-2.5,0.9-4.4,2.1-5.7c1-1,2.4-1.7,4-1.9
				c0.5-0.1,0.9-0.1,1.2-0.1V78.9z M115.4,86.1c0-1.8-1-2.9-2.6-2.9c-1,0-2,0.6-2.4,1.6c-0.1,0.2-0.2,0.4-0.2,0.8
				c0,2.1,1,3.6,2.8,3.6C114.4,89.2,115.4,87.9,115.4,86.1z"/>
			<path class="st2" d="M127.5,83.8c0,4.3-1.6,6.7-4.4,6.7c-2.5,0-4.1-2.3-4.2-6.5c0-4.2,1.8-6.6,4.4-6.6
				C126,77.4,127.5,79.8,127.5,83.8z M120.7,84c0,3.3,1,5.1,2.6,5.1c1.7,0,2.6-2,2.6-5.3c0-3.1-0.8-5.1-2.6-5.1
				C121.8,78.8,120.7,80.6,120.7,84z"/>
			<path class="st2" d="M135.3,81.2c0,2.7-1.4,4-3,4c-1.6,0-2.9-1.3-3-3.8c0-2.5,1.4-3.9,3-3.9C134.1,77.4,135.3,78.8,135.3,81.2z
				 M130.6,81.3c0,1.6,0.6,2.8,1.6,2.8c1.1,0,1.6-1.2,1.6-2.9c0-1.5-0.4-2.8-1.6-2.8C131.2,78.5,130.6,79.7,130.6,81.3z M132.1,90.5
				l7.4-13h1.1l-7.4,13H132.1z M143.5,86.4c0,2.7-1.4,4-3,4c-1.6,0-2.9-1.3-3-3.8c0-2.5,1.4-4,3-4C142.3,82.7,143.5,84,143.5,86.4z
				 M138.9,86.5c0,1.6,0.6,2.8,1.7,2.8c1.1,0,1.6-1.2,1.6-2.9c0-1.5-0.4-2.8-1.6-2.8C139.4,83.7,138.9,85,138.9,86.5z"/>
		</g>
	</g>
</g>
</svg>
