<svg width="174" height="175" viewBox="0 0 174 175" fill="none" xmlns="http://www.w3.org/2000/svg">
<ellipse cx="87" cy="87.5" rx="87" ry="87.5" fill="#1B1D22"/>
<path d="M35.8849 158.305C46.9879 166.413 59.8403 171.765 73.3924 173.923C86.9445 176.082 100.812 174.986 113.863 170.725C126.913 166.464 138.777 159.159 148.484 149.406C158.192 139.653 165.468 127.73 169.719 114.609C173.97 101.488 175.075 87.5422 172.944 73.9098C170.813 60.2774 165.506 47.3453 157.457 36.1694C149.408 24.9936 138.845 15.891 126.63 9.60499C114.415 3.31897 100.895 0.0277737 87.174 0.000174988L87 87.5L35.8849 158.305Z" fill="#EC5C29"/>
<path d="M29.665 87.074C29.5637 87.074 29.475 87.0423 29.399 86.979C29.3357 86.903 29.304 86.8143 29.304 86.713V86.01L36.505 76.985C36.581 76.909 36.676 76.871 36.79 76.871H37.17C37.2713 76.871 37.3537 76.909 37.417 76.985C37.493 77.0483 37.531 77.1307 37.531 77.232L37.55 85.915H39.089C39.1904 85.915 39.2727 85.9467 39.336 86.01C39.412 86.0733 39.45 86.1557 39.45 86.257V86.675C39.45 86.7763 39.412 86.865 39.336 86.941C39.2727 87.0043 39.1904 87.036 39.089 87.036H37.55V89.639C37.55 89.7277 37.512 89.81 37.436 89.886C37.36 89.962 37.2777 90 37.189 90H36.543C36.4543 90 36.372 89.962 36.296 89.886C36.22 89.81 36.182 89.7277 36.182 89.639V87.074H29.665ZM30.9 85.896H36.258V79.284L30.9 85.896Z" fill="white"/>
<path d="M49.5378 88.442C48.7398 89.6073 47.6062 90.19 46.1368 90.19C44.6675 90.19 43.5275 89.6073 42.7168 88.442C41.9188 87.264 41.5198 85.63 41.5198 83.54C41.5198 81.45 41.9188 79.8223 42.7168 78.657C43.5275 77.479 44.6675 76.89 46.1368 76.89C47.6062 76.89 48.7398 77.479 49.5378 78.657C50.3485 79.8223 50.7538 81.45 50.7538 83.54C50.7538 85.63 50.3485 87.264 49.5378 88.442ZM43.7048 87.549C44.2748 88.4863 45.0855 88.955 46.1368 88.955C47.1882 88.955 47.9925 88.4863 48.5498 87.549C49.1198 86.6117 49.4048 85.2753 49.4048 83.54C49.4048 81.8173 49.1198 80.4873 48.5498 79.55C47.9798 78.6 47.1755 78.125 46.1368 78.125C45.0982 78.125 44.2938 78.6 43.7238 79.55C43.1538 80.4873 42.8688 81.8173 42.8688 83.54C42.8688 85.2753 43.1475 86.6117 43.7048 87.549Z" fill="white"/>
<path d="M57.1727 80.88C56.6787 81.374 56.077 81.621 55.3677 81.621C54.6584 81.621 54.0504 81.374 53.5437 80.88C53.0497 80.3733 52.8027 79.7653 52.8027 79.056C52.8027 78.3467 53.0497 77.745 53.5437 77.251C54.0504 76.7443 54.6584 76.491 55.3677 76.491C56.077 76.491 56.6787 76.7443 57.1727 77.251C57.6794 77.745 57.9327 78.3467 57.9327 79.056C57.9327 79.7653 57.6794 80.3733 57.1727 80.88ZM54.5697 89.487L61.0867 76.89C61.1627 76.7633 61.2704 76.7 61.4097 76.7H61.7137C61.853 76.7 61.9544 76.757 62.0177 76.871C62.0937 76.9723 62.1 77.0863 62.0367 77.213L55.4817 89.81C55.4184 89.9367 55.3107 90 55.1587 90H54.8927C54.7534 90 54.6457 89.9493 54.5697 89.848C54.5064 89.734 54.5064 89.6137 54.5697 89.487ZM55.3677 80.538C55.7604 80.538 56.096 80.3987 56.3747 80.12C56.666 79.8287 56.8117 79.474 56.8117 79.056C56.8117 78.6633 56.666 78.3277 56.3747 78.049C56.096 77.7577 55.7604 77.612 55.3677 77.612C54.9497 77.612 54.595 77.7577 54.3037 78.049C54.025 78.3277 53.8857 78.6633 53.8857 79.056C53.8857 79.474 54.025 79.8287 54.3037 80.12C54.595 80.3987 54.9497 80.538 55.3677 80.538ZM59.5477 89.468C59.0537 88.9613 58.8067 88.3533 58.8067 87.644C58.8067 86.9347 59.0537 86.333 59.5477 85.839C60.0544 85.3323 60.6624 85.079 61.3717 85.079C62.081 85.079 62.6827 85.3323 63.1767 85.839C63.6834 86.333 63.9367 86.9347 63.9367 87.644C63.9367 88.3533 63.6834 88.9613 63.1767 89.468C62.6827 89.962 62.081 90.209 61.3717 90.209C60.6624 90.209 60.0544 89.962 59.5477 89.468ZM59.8897 87.644C59.8897 88.062 60.029 88.4167 60.3077 88.708C60.599 88.9867 60.9537 89.126 61.3717 89.126C61.7644 89.126 62.1 88.9867 62.3787 88.708C62.67 88.4167 62.8157 88.062 62.8157 87.644C62.8157 87.2513 62.67 86.9157 62.3787 86.637C62.1 86.3457 61.7644 86.2 61.3717 86.2C60.9537 86.2 60.599 86.3457 60.3077 86.637C60.029 86.9157 59.8897 87.2513 59.8897 87.644Z" fill="white"/>
<path d="M111.007 84.775C111.007 83.8123 111.165 82.9067 111.482 82.058C111.799 81.2093 112.185 80.5063 112.641 79.949C113.097 79.379 113.629 78.8597 114.237 78.391C114.858 77.9097 115.396 77.5487 115.852 77.308C116.321 77.0547 116.789 76.833 117.258 76.643C117.448 76.567 117.587 76.6303 117.676 76.833L117.885 77.289C117.999 77.555 117.885 77.7387 117.543 77.84C117.353 77.9033 117.093 78.0237 116.764 78.201C116.447 78.3657 116.074 78.6 115.643 78.904C115.212 79.1953 114.801 79.5183 114.408 79.873C114.028 80.2277 113.673 80.6457 113.344 81.127C113.015 81.6083 112.787 82.0897 112.66 82.571C112.749 82.5077 112.875 82.4317 113.04 82.343C113.217 82.2417 113.559 82.115 114.066 81.963C114.573 81.7983 115.067 81.716 115.548 81.716C116.663 81.716 117.619 82.096 118.417 82.856C119.228 83.616 119.633 84.6103 119.633 85.839C119.633 87.0297 119.215 88.0557 118.379 88.917C117.556 89.7657 116.574 90.19 115.434 90.19C113.965 90.19 112.856 89.6897 112.109 88.689C111.374 87.6883 111.007 86.3837 111.007 84.775ZM115.434 88.936C116.232 88.936 116.903 88.6383 117.448 88.043C118.005 87.4477 118.284 86.7383 118.284 85.915C118.284 85.0917 118.005 84.395 117.448 83.825C116.891 83.2423 116.213 82.951 115.415 82.951C114.896 82.951 114.383 83.0587 113.876 83.274C113.382 83.4767 113.015 83.6793 112.774 83.882L112.413 84.186C112.299 84.6673 112.286 85.1867 112.375 85.744C112.476 86.2887 112.628 86.8017 112.831 87.283C113.034 87.7517 113.363 88.1443 113.819 88.461C114.275 88.7777 114.813 88.936 115.434 88.936Z" fill="white"/>
<path d="M129.721 88.442C128.923 89.6073 127.79 90.19 126.32 90.19C124.851 90.19 123.711 89.6073 122.9 88.442C122.102 87.264 121.703 85.63 121.703 83.54C121.703 81.45 122.102 79.8223 122.9 78.657C123.711 77.479 124.851 76.89 126.32 76.89C127.79 76.89 128.923 77.479 129.721 78.657C130.532 79.8223 130.937 81.45 130.937 83.54C130.937 85.63 130.532 87.264 129.721 88.442ZM123.888 87.549C124.458 88.4863 125.269 88.955 126.32 88.955C127.372 88.955 128.176 88.4863 128.733 87.549C129.303 86.6117 129.588 85.2753 129.588 83.54C129.588 81.8173 129.303 80.4873 128.733 79.55C128.163 78.6 127.359 78.125 126.32 78.125C125.282 78.125 124.477 78.6 123.907 79.55C123.337 80.4873 123.052 81.8173 123.052 83.54C123.052 85.2753 123.331 86.6117 123.888 87.549Z" fill="white"/>
<path d="M137.356 80.88C136.862 81.374 136.261 81.621 135.551 81.621C134.842 81.621 134.234 81.374 133.727 80.88C133.233 80.3733 132.986 79.7653 132.986 79.056C132.986 78.3467 133.233 77.745 133.727 77.251C134.234 76.7443 134.842 76.491 135.551 76.491C136.261 76.491 136.862 76.7443 137.356 77.251C137.863 77.745 138.116 78.3467 138.116 79.056C138.116 79.7653 137.863 80.3733 137.356 80.88ZM134.753 89.487L141.27 76.89C141.346 76.7633 141.454 76.7 141.593 76.7H141.897C142.037 76.7 142.138 76.757 142.201 76.871C142.277 76.9723 142.284 77.0863 142.22 77.213L135.665 89.81C135.602 89.9367 135.494 90 135.342 90H135.076C134.937 90 134.829 89.9493 134.753 89.848C134.69 89.734 134.69 89.6137 134.753 89.487ZM135.551 80.538C135.944 80.538 136.28 80.3987 136.558 80.12C136.85 79.8287 136.995 79.474 136.995 79.056C136.995 78.6633 136.85 78.3277 136.558 78.049C136.28 77.7577 135.944 77.612 135.551 77.612C135.133 77.612 134.779 77.7577 134.487 78.049C134.209 78.3277 134.069 78.6633 134.069 79.056C134.069 79.474 134.209 79.8287 134.487 80.12C134.779 80.3987 135.133 80.538 135.551 80.538ZM139.731 89.468C139.237 88.9613 138.99 88.3533 138.99 87.644C138.99 86.9347 139.237 86.333 139.731 85.839C140.238 85.3323 140.846 85.079 141.555 85.079C142.265 85.079 142.866 85.3323 143.36 85.839C143.867 86.333 144.12 86.9347 144.12 87.644C144.12 88.3533 143.867 88.9613 143.36 89.468C142.866 89.962 142.265 90.209 141.555 90.209C140.846 90.209 140.238 89.962 139.731 89.468ZM140.073 87.644C140.073 88.062 140.213 88.4167 140.491 88.708C140.783 88.9867 141.137 89.126 141.555 89.126C141.948 89.126 142.284 88.9867 142.562 88.708C142.854 88.4167 142.999 88.062 142.999 87.644C142.999 87.2513 142.854 86.9157 142.562 86.637C142.284 86.3457 141.948 86.2 141.555 86.2C141.137 86.2 140.783 86.3457 140.491 86.637C140.213 86.9157 140.073 87.2513 140.073 87.644Z" fill="white"/>
</svg>
