<svg width="209" height="163" viewBox="0 0 209 163" fill="none" xmlns="http://www.w3.org/2000/svg">
<rect x="3" y="4" width="11" height="1" fill="#6D6D6D"/>
<rect x="3" y="35" width="11" height="1" fill="#6D6D6D"/>
<rect x="3" y="65" width="11" height="1" fill="#6D6D6D"/>
<rect x="3" y="96" width="11" height="1" fill="#6D6D6D"/>
<rect x="3" y="127" width="11" height="1" fill="#6D6D6D"/>
<rect y="158" width="209" height="1" fill="#6D6D6D"/>
<rect x="31.5" y="153" width="10" height="1" transform="rotate(90 31.5 153)" fill="#6D6D6D"/>
<rect x="9" y="5" width="153" height="0.999993" transform="rotate(90 9 5)" fill="#6D6D6D"/>
<rect x="72.5" y="153" width="10" height="1" transform="rotate(90 72.5 153)" fill="#6D6D6D"/>
<rect x="113.5" y="153" width="10" height="1" transform="rotate(90 113.5 153)" fill="#6D6D6D"/>
<rect x="154.5" y="153" width="10" height="1" transform="rotate(90 154.5 153)" fill="#6D6D6D"/>
<rect x="195.5" y="153" width="10" height="1" transform="rotate(90 195.5 153)" fill="#6D6D6D"/>
<rect x="24" y="111" width="7" height="42" fill="#1B1D22"/>
<rect x="65" y="90" width="7" height="63" fill="#1B1D22"/>
<rect x="106" y="67" width="7" height="86" fill="#1B1D22"/>
<rect x="147" y="47" width="7" height="106" fill="#1B1D22"/>
<rect x="188" y="28" width="7" height="125" fill="#1B1D22"/>
<rect x="31" y="85" width="7" height="68" fill="#EC5C29"/>
<rect x="72" y="64" width="7" height="89" fill="#EC5C29"/>
<rect x="113" y="41" width="7" height="112" fill="#EC5C29"/>
<rect x="154" y="18" width="7" height="135" fill="#EC5C29"/>
<rect x="195" width="7" height="153" fill="#EC5C29"/>
</svg>
