<?xml version="1.0" encoding="utf-8"?>
<!-- Generator: Adobe Illustrator 22.0.0, SVG Export Plug-In . SVG Version: 6.00 Build 0)  -->
<svg version="1.1" id="Object" xmlns="http://www.w3.org/2000/svg" xmlns:xlink="http://www.w3.org/1999/xlink" x="0px" y="0px"
	 width="256px" height="198.6px" viewBox="0 0 256 198.6" style="enable-background:new 0 0 256 198.6;" xml:space="preserve">
<style type="text/css">
	.st0{opacity:0.9;fill:#3F2A69;}
	.st1{opacity:0.9;fill:#F8AC34;}
	.st2{fill:#959595;}
	.st3{fill:#666666;}
</style>
<rect x="28.6" y="134.4" class="st0" width="9" height="52.6"/>
<rect x="37.6" y="103" class="st1" width="9" height="84.4"/>
<rect x="78.6" y="109.4" class="st0" width="9" height="78"/>
<rect x="87.6" y="77.5" class="st1" width="9" height="109.9"/>
<rect x="128.5" y="81.3" class="st0" width="9" height="106.2"/>
<rect x="137.5" y="49.4" class="st1" width="9" height="138.1"/>
<rect x="178.8" y="56.1" class="st0" width="9" height="131.3"/>
<rect x="187.9" y="24.2" class="st1" width="9" height="163.2"/>
<rect x="228.4" y="32.6" class="st0" width="9" height="154.8"/>
<rect x="237.4" y="0.7" class="st1" width="9" height="186.7"/>
<g>
	<polygon class="st2" points="255.4,192.8 10.5,192.8 10.5,5.7 11.3,5.7 11.3,192 255.4,192 	"/>
	<rect x="-0.6" y="192" class="st3" width="11.5" height="0.9"/>
	<rect x="5.2" y="154.6" class="st3" width="11.5" height="0.9"/>
	<rect x="5.2" y="117.3" class="st3" width="11.5" height="0.9"/>
	<rect x="5.2" y="79.9" class="st3" width="11.5" height="0.9"/>
	<rect x="5.2" y="42.6" class="st3" width="11.5" height="0.9"/>
	<rect x="5.2" y="5.2" class="st3" width="11.5" height="0.9"/>
	<rect x="37.2" y="186.7" class="st3" width="0.9" height="11.5"/>
	<rect x="87.2" y="186.7" class="st3" width="0.9" height="11.5"/>
	<rect x="137.1" y="186.7" class="st3" width="0.9" height="11.5"/>
	<rect x="187.4" y="186.7" class="st3" width="0.9" height="11.5"/>
	<rect x="237" y="186.7" class="st3" width="0.9" height="11.5"/>
</g>
</svg>
