<?xml version="1.0" encoding="utf-8"?>
<!-- Generator: Adobe Illustrator 22.1.0, SVG Export Plug-In . SVG Version: 6.00 Build 0)  -->
<svg version="1.1" id="Layer_1" xmlns="http://www.w3.org/2000/svg" xmlns:xlink="http://www.w3.org/1999/xlink" x="0px" y="0px"
	 viewBox="0 0 30 30" style="enable-background:new 0 0 30 30;" xml:space="preserve">
<style type="text/css">
	.st0{fill:#DAD0E6;}
	.st1{fill:none;stroke:#DAD0E6;stroke-width:1.6409;stroke-linecap:round;stroke-linejoin:round;stroke-miterlimit:10;}
</style>
<g>
	<path class="st0" d="M24.5,18.4h-0.4c-0.3,0-0.5-0.2-0.5-0.5l0-0.4c0-0.2-0.2-0.5-0.4-0.5c-0.3,0-0.6,0.2-0.6,0.5v0.4
		c0,0.3-0.3,0.6-0.6,0.6h-0.3c-0.2,0-0.5,0.2-0.5,0.4c0,0.3,0.2,0.6,0.5,0.6h0.4c0.3,0,0.5,0.2,0.5,0.5v0.4c0,0.2,0.2,0.5,0.4,0.5
		c0.3,0,0.6-0.2,0.6-0.5v-0.4c0-0.3,0.2-0.5,0.5-0.5h0.4c0.3,0,0.5-0.3,0.5-0.6C25,18.6,24.7,18.4,24.5,18.4z"/>
	<g>
		<path class="st1" d="M9.6,12.6V14c0,0.2-0.2,0.4-0.4,0.4H6.4C6.2,14.4,6,14.2,6,14V6.3C6,6,6.2,5.8,6.5,5.8h2.3
			c0.3,0,0.6,0.3,0.6,0.6v0.8c0,0,2.1-2.8,5.9-1.4c3.5,1.3,4.6,1.5,5.1,0.7c0.1-0.2,0.3-0.2,0.5-0.2H23c0.1,0,0.2,0.1,0.2,0.2
			c0,0.9-0.4,4.2-3.6,7.7c-1.3,1.5-1.6,6.5-1.6,8.6c0,0.5-0.4,0.9-0.9,0.9H11c-0.5,0-0.9-0.4-0.9-0.9c0.1-1.8,0.6-6,3.9-8.4
			c4-3,3.6-3.6,3.6-3.6s-3.6,0-5.6-0.3C9.5,9.9,9.6,12.6,9.6,12.6z"/>
	</g>
</g>
</svg>
