<?xml version="1.0" encoding="utf-8"?>
<!-- Generator: Adobe Illustrator 23.0.0, SVG Export Plug-In . SVG Version: 6.00 Build 0)  -->
<svg version="1.1" id="Layer_1" xmlns="http://www.w3.org/2000/svg" xmlns:xlink="http://www.w3.org/1999/xlink" x="0px" y="0px"
	 width="160px" height="160px" viewBox="0 0 160 160" enable-background="new 0 0 160 160" xml:space="preserve">
<g>
	<g>
		<g>
			<path fill="#5FA871" d="M79.9,97.7l0.1,0.1l0-0.1C79.9,97.7,79.9,97.7,79.9,97.7z M79.9,97.7l0.1,0.1l0-0.1
				C79.9,97.7,79.9,97.7,79.9,97.7z M79.9,97.7l0.1,0.1l0-0.1C79.9,97.7,79.9,97.7,79.9,97.7z M79.9,97.7l0.1,0.1l0-0.1
				C79.9,97.7,79.9,97.7,79.9,97.7z M79.9,97.7l0.1,0.1l0-0.1C79.9,97.7,79.9,97.7,79.9,97.7z M79.9,97.7l0.1,0.1l0-0.1
				C79.9,97.7,79.9,97.7,79.9,97.7z M79.9,97.7l0.1,0.1l0-0.1C79.9,97.7,79.9,97.7,79.9,97.7z M79.9,97.7l0.1,0.1l0-0.1
				C79.9,97.7,79.9,97.7,79.9,97.7z M79.9,97.7l0.1,0.1l0-0.1C79.9,97.7,79.9,97.7,79.9,97.7z"/>
			<path fill="#9FCBAA" d="M80,0C35.9,0,0,35.9,0,80c0,44.1,35.9,80,80,80c44.1,0,80-35.9,80-80C160,35.9,124.1,0,80,0z M80,151.9
				C40.3,151.9,8,119.7,8,80S40.3,8.1,80,8.1c39.7,0,72,32.3,72,71.9S119.7,151.9,80,151.9z"/>
			<path fill="#5FA871" d="M80,8.1C40.3,8.1,8,40.3,8,80s32.3,71.9,71.9,71.9c39.7,0,72-32.3,72-71.9S119.7,8.1,80,8.1z M105.1,83.2
				c-1.2,2.1-4.9,2.3-6.6,4c-0.5,0.5-0.9,1.2-1.2,1.9l10.7,23.1l-11.3-1.2l-6.3,9.4L79.9,97.8l-10.5,22.5l-6.3-9.4l-11.3,1.2
				l10.8-23.2c-0.3-0.7-0.7-1.3-1.1-1.7c-1.7-1.7-5.4-1.9-6.6-4c-1.2-2.1,0.5-5.4-0.2-7.7c-0.6-2.3-3.7-4.3-3.7-6.8
				c0-2.5,3.1-4.5,3.7-6.8c0.6-2.4-1-5.7,0.2-7.7c1.2-2.1,4.9-2.3,6.6-4c1.7-1.7,1.9-5.4,4-6.6c2.1-1.2,5.4,0.5,7.7-0.2
				c2.3-0.6,4.3-3.7,6.8-3.7c2.5,0,4.5,3.1,6.8,3.7c2.4,0.6,5.7-1,7.7,0.2c2.1,1.2,2.3,4.9,4,6.6c1.7,1.7,5.4,1.9,6.6,4
				c1.2,2.1-0.5,5.4,0.2,7.7c0.6,2.3,3.7,4.3,3.7,6.8c0,2.5-3.1,4.5-3.7,6.8C104.7,77.8,106.3,81.1,105.1,83.2z"/>
		</g>
	</g>
	<g>
		<path fill="#F2D733" d="M80,97.7l0,0.1l-0.1-0.1C79.9,97.7,79.9,97.7,80,97.7z"/>
		<path fill="#F2D733" d="M80,97.7l0,0.1l-0.1-0.1C79.9,97.7,79.9,97.7,80,97.7z"/>
		<path fill="#F2D733" d="M98.5,87.2c1.7-1.7,5.4-1.9,6.6-4c1.2-2.1-0.5-5.4,0.2-7.7c0.6-2.3,3.7-4.3,3.7-6.8c0-2.5-3.1-4.5-3.7-6.8
			c-0.6-2.4,1-5.7-0.2-7.7c-1.2-2.1-4.9-2.3-6.6-4c-1.7-1.7-1.9-5.4-4-6.6c-2.1-1.2-5.4,0.5-7.7-0.2c-2.3-0.6-4.3-3.7-6.8-3.7
			c-2.5,0-4.5,3.1-6.8,3.7c-2.4,0.6-5.7-1-7.7,0.2c-2.1,1.2-2.3,4.9-4,6.6c-1.7,1.7-5.4,1.9-6.6,4c-1.2,2.1,0.5,5.4-0.2,7.7
			c-0.6,2.3-3.7,4.3-3.7,6.8c0,2.5,3.1,4.5,3.7,6.8c0.6,2.4-1,5.7,0.2,7.7c1.2,2.1,4.9,2.3,6.6,4c0.5,0.5,0.8,1.1,1.1,1.7
			l-10.8,23.2l11.3-1.2l6.3,9.4l10.5-22.5l-0.1-0.1c0,0,0.1,0,0.1,0l0,0.1l10.5,22.5l6.3-9.4l11.3,1.2L97.3,89.1
			C97.7,88.3,98,87.7,98.5,87.2z M94.1,82.1c-2.5,2.6-5.8,4.6-9.4,5.5c-1.5,0.4-3.1,0.6-4.7,0.6c-1.7,0-3.3-0.2-4.8-0.6
			c-3.6-0.9-6.9-2.9-9.4-5.5c-3.3-3.5-5.3-8.2-5.3-13.4c0-10.8,8.7-19.5,19.5-19.5c10.8,0,19.5,8.7,19.5,19.5
			C99.5,73.9,97.5,78.7,94.1,82.1z"/>
		<path fill="#E8B341" d="M80,49.1c-10.8,0-19.5,8.7-19.5,19.5c0,5.2,2,9.9,5.3,13.4c2.5,2.7,5.7,4.6,9.4,5.5
			c1.6,0.4,3.2,0.6,4.8,0.6c1.6,0,3.2-0.2,4.7-0.6c3.7-0.9,6.9-2.8,9.4-5.5c3.4-3.5,5.4-8.2,5.4-13.5C99.5,57.9,90.8,49.1,80,49.1z
			 M90.6,70c0,1.2-0.2,2.3-0.7,3.2c-0.8,1.6-2.2,2.6-4.2,3h0c-0.5,0.1-1,0.1-1.6,0.1h-8.4c-0.6,0-1.1,0-1.6-0.1c0,0,0,0,0,0
			c-2-0.4-3.4-1.5-4.1-3.3c-0.3-0.9-0.5-1.9-0.5-3v-7.3h1.6c1.2,0,2,0.3,2.4,0.7c0.4,0.5,0.6,1.1,0.6,1.9c0,1.7,0.6,2.4,2,2.4
			c1.2,0,1.8-0.8,1.8-2.4v-2.7h1.6c2,0,2.8,0.8,2.8,2.7v0.1c0,1.6,0.6,2.3,1.9,2.3c1.3,0,1.9-0.7,1.9-2.4v-2.7h1.6c2,0,3,0.9,3,2.7
			V70z"/>
		<path fill="#F2D733" d="M90.6,65.2V70c0,1.2-0.2,2.3-0.7,3.2c-0.8,1.6-2.2,2.6-4.2,3h0c-0.5,0.1-1,0.1-1.6,0.1h-8.4
			c-0.6,0-1.1,0-1.6-0.1c0,0,0,0,0,0c-2-0.4-3.4-1.5-4.1-3.3c-0.3-0.9-0.5-1.9-0.5-3v-7.3h1.6c1.2,0,2,0.3,2.4,0.7
			c0.4,0.5,0.6,1.1,0.6,1.9c0,1.7,0.6,2.4,2,2.4c1.2,0,1.8-0.8,1.8-2.4v-2.7h1.6c2,0,2.8,0.8,2.8,2.7v0.1c0,1.6,0.6,2.3,1.9,2.3
			c1.3,0,1.9-0.7,1.9-2.4v-2.7h1.6C89.6,62.6,90.6,63.5,90.6,65.2z"/>
	</g>
</g>
</svg>
