<?xml version="1.0" encoding="utf-8"?>
<!-- Generator: Adobe Illustrator 23.0.0, SVG Export Plug-In . SVG Version: 6.00 Build 0)  -->
<svg version="1.1" id="Layer_1" xmlns="http://www.w3.org/2000/svg" xmlns:xlink="http://www.w3.org/1999/xlink" x="0px" y="0px"
	 width="160px" height="160px" viewBox="0 0 160 160" enable-background="new 0 0 160 160" xml:space="preserve">
<g>
	<g>
		<g>
			<g>
				<path fill="#CDC6FB" d="M80,0C35.9,0,0,35.9,0,80c0,44.1,35.9,80,80,80c44.1,0,80-35.9,80-80C160,35.9,124.1,0,80,0z M80,152
					C40.3,152,8,119.7,8,80S40.3,8,80,8s72,32.3,72,71.9S119.7,152,80,152z"/>
				<path fill="#52489C" d="M80,8C40.3,8,8,40.3,8,80s32.3,72,71.9,72s72-32.3,72-72S119.7,8,80,8z M89.2,75.9
					c-4.3-1.1-6.9-5.6-5.7-9.9c1.1-4.3,5.6-6.8,9.9-5.7c4.3,1.2,6.9,5.6,5.7,9.9C98,74.5,93.5,77,89.2,75.9z"/>
			</g>
		</g>
	</g>
	<g>
		<g>
			<g>
				<path fill="#AAD7D1" d="M113.1,49.2c-0.2-1.6-1.7-2.9-3.3-3c-3.5-0.2-9.8,0-17.3,2.6c-3.7,1.3-7.6,3.2-11.6,5.9
					c-3.9,2.7-7.9,6.3-11.6,11.1c0,0-1.9,2.5-4,6.2c-4.4-0.3-12.2,0.8-18.7,10.3c-0.6,0.8,0.2,1.9,1.2,1.6c2.9-0.9,7.6-1.7,12.3,0.1
					c-0.2,0.6-0.3,1.2-0.4,1.8c0,0,1.4,0.6,3.4,2L61.9,90c-0.2,0.3-0.1,0.7,0.1,0.9l6.1,6c0.2,0.2,0.6,0.3,0.9,0.1l2.1-1.4
					c0.8,1.1,1.6,2.3,2.3,3.7c0,0,0.7,0,2-0.3c2,4.7,1.2,9.4,0.3,12.4c-0.3,1,0.8,1.8,1.6,1.2c9.3-6.5,10.4-14.1,10.2-18.6
					c2.2-1.3,4.5-2.9,6.9-5c6.7-5.7,13.1-13.4,16.6-22.1C113.1,61.3,114.1,55.3,113.1,49.2z M99.1,70.2c-1.2,4.3-5.6,6.8-9.9,5.7
					c-4.3-1.1-6.9-5.6-5.7-9.9c1.1-4.3,5.6-6.8,9.9-5.7C97.7,61.5,100.3,65.9,99.1,70.2z"/>
			</g>
			<g>
				<path fill="#E8B341" d="M66.1,96.6c-0.1,0.2-0.1,0.4-0.3,0.5c0,0-3.5,4.1-8.1,3.6c-0.6-4.6,3.5-8.1,3.5-8.1
					c0.1-0.1,0.3-0.1,0.4-0.2c-1.4-0.4-2.8-0.3-3.7,0.6c0,0-6.8,5.9-5.8,13.5c7.7,0.9,13.5-5.9,13.5-5.9
					C66.5,99.6,66.7,98.1,66.1,96.6z"/>
			</g>
		</g>
		<g>
			<path fill="#52489C" d="M99.1,70.2c-1.2,4.3-5.6,6.8-9.9,5.7c-4.3-1.1-6.9-5.6-5.7-9.9c1.1-4.3,5.6-6.8,9.9-5.7
				C97.7,61.5,100.3,65.9,99.1,70.2z"/>
		</g>
	</g>
</g>
</svg>
