<?xml version="1.0" encoding="utf-8"?>
<!-- Generator: Adobe Illustrator 23.0.0, SVG Export Plug-In . SVG Version: 6.00 Build 0)  -->
<svg version="1.1" id="Layer_1" xmlns="http://www.w3.org/2000/svg" xmlns:xlink="http://www.w3.org/1999/xlink" x="0px" y="0px"
	 width="160px" height="160px" viewBox="0 0 160 160" enable-background="new 0 0 160 160" xml:space="preserve">
<g>
	<g>
		<g>
			<g>
				<path fill="#52489C" d="M152,80c0,39.7-32.3,71.9-71.9,71.9C40.3,152,8,119.7,8,80C8,40.3,40.3,8,80,8C119.7,8,152,40.3,152,80z
					"/>
				<path fill="#CDC6FB" d="M80,0C35.9,0,0,35.9,0,80s35.9,80,80,80c44.1,0,80-35.9,80-80S124.1,0,80,0z M80,152
					C40.3,152,8,119.7,8,80C8,40.3,40.3,8,80,8C119.7,8,152,40.3,152,80C152,119.7,119.7,152,80,152z"/>
			</g>
		</g>
	</g>
	<g>
		<g>
			<path fill="#F3D833" d="M103,57.5c0-12.7-10.3-23-23-23c-12.7,0-23,10.3-23,23c0,11.4,8.3,20.8,19.1,22.7v40.6
				c0,2.6,2.1,4.7,4.7,4.7c2.6,0,4.7-2.1,4.7-4.7H93c1.1,0,2.1-0.9,2.1-2.1v-6.9c0-1.2-0.9-2.1-2.1-2.1h-1.2v-5.3
				c0-1.2-0.9-2.1-2.1-2.1h-4.2V79.9C95.5,77.5,103,68.4,103,57.5z M80,71.2c-1.4,0-2.7-0.2-3.9-0.6c-5.7-1.7-9.8-6.9-9.8-13.1
				c0-7.5,6.1-13.7,13.7-13.7c7.5,0,13.7,6.1,13.7,13.7c0,5.6-3.4,10.4-8.2,12.5C83.8,70.8,81.9,71.2,80,71.2z"/>
			<path fill="#E8B341" d="M93.7,57.5c0,5.6-3.4,10.4-8.2,12.5c-1.7,0.7-3.5,1.1-5.4,1.1c-1.4,0-2.7-0.2-3.9-0.6
				c-5.7-1.7-9.8-6.9-9.8-13.1c0-7.5,6.1-13.7,13.7-13.7C87.5,43.9,93.7,50,93.7,57.5z"/>
		</g>
	</g>
</g>
</svg>
