<?xml version="1.0" encoding="utf-8"?>
<!-- Generator: Adobe Illustrator 23.0.0, SVG Export Plug-In . SVG Version: 6.00 Build 0)  -->
<svg version="1.1" id="Layer_1" xmlns="http://www.w3.org/2000/svg" xmlns:xlink="http://www.w3.org/1999/xlink" x="0px" y="0px"
	 width="160px" height="160px" viewBox="0 0 160 160" enable-background="new 0 0 160 160" xml:space="preserve">
<g>
	<g>
		<g>
			<g>
				<path fill="#52489C" d="M80,8.1C40.3,8.1,8,40.3,8,80s32.3,71.9,71.9,71.9s72-32.3,72-71.9S119.7,8.1,80,8.1z M87.8,62.1
					c-1.1,4.3-5.6,6.8-9.9,5.7c-4.3-1.1-6.9-5.6-5.7-9.9s5.6-6.8,9.9-5.7C86.4,53.4,89,57.8,87.8,62.1z"/>
			</g>
			<g>
				<path fill="#CDC6FB" d="M80,0C35.9,0,0,35.9,0,80s35.9,80,80,80c44.1,0,80-35.9,80-80S124.1,0,80,0z M80,151.9
					C40.3,151.9,8,119.7,8,80S40.3,8.1,80,8.1s72,32.3,72,71.9S119.7,151.9,80,151.9z"/>
			</g>
		</g>
	</g>
	<g>
		<g>
			<g>
				<path fill="#AAD7D1" d="M95.6,81c0.6-2.5,1.1-5.2,1.3-8.4c0.7-8.8-0.2-18.8-3.9-27.3v0c-2.4-5.5-5.9-10.4-10.8-14.1
					c-1.3-0.9-3.3-0.9-4.5,0.2c-2.6,2.3-7,7-10.4,14c-2.7,5.6-4.8,12.8-4.8,21.6c0,2.2,0.1,4.5,0.4,6.9c0,0,0.4,3.1,1.5,7.2
					c-3.3,2.9-8.1,9.2-5.9,20.5c0.2,1,1.5,1.2,2,0.3c1.4-2.7,4.1-6.6,8.8-8.6c0.3,0.6,0.6,1.1,1,1.6c0,0,1.5-0.6,3.9-1l0.6,2.4
					c0.1,0.3,0.4,0.6,0.7,0.6l8.5,0c0.3,0,0.6-0.2,0.7-0.6l0.5-2.5c1.4,0.2,2.8,0.5,4.2,1c0,0,0.5-0.6,1.2-1.6
					c4.7,1.9,7.5,5.8,8.9,8.5c0.5,0.9,1.8,0.7,2-0.3C103.5,90.3,98.9,84,95.6,81z M87.8,62.1c-1.1,4.3-5.6,6.8-9.9,5.7
					c-4.3-1.1-6.9-5.6-5.7-9.9s5.6-6.8,9.9-5.7C86.4,53.4,89,57.8,87.8,62.1z"/>
			</g>
		</g>
		<g>
			<path fill="#52489C" d="M87.8,62.1c-1.1,4.3-5.6,6.8-9.9,5.7c-4.3-1.1-6.9-5.6-5.7-9.9s5.6-6.8,9.9-5.7
				C86.4,53.4,89,57.8,87.8,62.1z"/>
		</g>
		<g>
			<path fill="#CDC6FB" d="M111.7,117.1C111.7,117.1,111.7,117.1,111.7,117.1l-63.4,0c-2.3,0-4.2-1.9-4.2-4.2c0-2.3,1.9-4.2,4.2-4.2
				c0,0,0,0,0,0l63.4,0c2.3,0,4.2,1.9,4.2,4.2S114,117.1,111.7,117.1z"/>
		</g>
	</g>
</g>
</svg>
