<?xml version="1.0" encoding="utf-8"?>
<!-- Generator: Adobe Illustrator 22.0.0, SVG Export Plug-In . SVG Version: 6.00 Build 0)  -->
<svg version="1.1" id="crown" xmlns="http://www.w3.org/2000/svg" xmlns:xlink="http://www.w3.org/1999/xlink" x="0px" y="0px"
	 width="39px" height="25.5px" viewBox="0 0 39 25.5" style="enable-background:new 0 0 39 25.5;" xml:space="preserve">
<style type="text/css">
	.st0{fill:#FFD528;}
	.st1{fill:#EBB81E;}
</style>
<g>
	<path class="st0" d="M27,25.5c7.6,0,12-4.3,12-11.8l0-8.8C39,1.7,37.1,0,33.5,0l-2.9,0l0,5c0,3.2-1,4.4-3.5,4.4
		c-2.4,0-3.5-1.4-3.5-4.3l0-0.2c0-3.5-1.5-4.9-5.2-4.9l-2.9,0l0,5c0,2.9-1.1,4.4-3.4,4.4c-2.6,0-3.7-1.3-3.7-4.5v0
		C8.4,2,7.5,0,2.9,0L0,0l0,13.5c0,7.6,4.2,12,11.5,12C15.1,25.5,24.1,25.5,27,25.5"/>
	<g>
		<path class="st1" d="M28.1,23.7c-2.9,0-11.8,0-15.5,0c-7.3,0-11.5-4.4-11.5-12L1.1,0L0,0l0,13.5c0,7.6,4.2,12,11.5,12
			c3.7,0,12.6,0,15.5,0c5.3,0,9.1-2.1,10.8-5.9C35.8,22.2,32.5,23.7,28.1,23.7z"/>
		<path class="st1" d="M13.3,9.2c2.1-0.1,3.2-1.5,3.2-4.4l0-4.9l-1,0l0,5C15.5,7.4,14.7,8.8,13.3,9.2z"/>
		<path class="st1" d="M28.6,9.2c2.2-0.1,3.1-1.4,3.1-4.4l0-4.8l-1,0l0,5C30.6,7.5,30,8.8,28.6,9.2z"/>
	</g>
</g>
</svg>
