<svg id="logo-wiki" xmlns="http://www.w3.org/2000/svg" width="166" height="42.719" viewBox="0 0 166 42.719">
  <metadata><?xpacket begin="﻿" id="W5M0MpCehiHzreSzNTczkc9d"?>
<x:xmpmeta xmlns:x="adobe:ns:meta/" x:xmptk="Adobe XMP Core 5.6-c140 79.160451, 2017/05/06-01:08:21        ">
   <rdf:RDF xmlns:rdf="http://www.w3.org/1999/02/22-rdf-syntax-ns#">
      <rdf:Description rdf:about=""/>
   </rdf:RDF>
</x:xmpmeta>
                                                                                                    
                                                                                                    
                                                                                                    
                                                                                                    
                                                                                                    
                                                                                                    
                                                                                                    
                                                                                                    
                                                                                                    
                                                                                                    
                                                                                                    
                                                                                                    
                                                                                                    
                                                                                                    
                                                                                                    
                                                                                                    
                                                                                                    
                                                                                                    
                                                                                                    
                                                                                                    
                           
<?xpacket end="w"?></metadata>
<defs>
    <style>
      .cls-1 {
        fill: #fff;
        fill-rule: evenodd;
      }
    </style>
  </defs>
  <path id="wiki" class="cls-1" d="M604.795,49.817a0.511,0.511,0,0,0-.5.324l-2.506,7.524-2.363-7.416a0.545,0.545,0,0,0-.541-0.432,0.529,0.529,0,0,0-.343.117,0.6,0.6,0,0,0-.2.315l-2.345,7.56-2.542-7.668a0.527,0.527,0,0,0-.208-0.243,0.566,0.566,0,0,0-.3-0.081,0.415,0.415,0,0,0-.451.486,2.207,2.207,0,0,0,.036.288l2.921,8.73a0.474,0.474,0,0,0,.19.252,0.553,0.553,0,0,0,.315.09,0.49,0.49,0,0,0,.5-0.342l2.381-7.614,2.453,7.614a0.386,0.386,0,0,0,.18.252,0.6,0.6,0,0,0,.325.09,0.586,0.586,0,0,0,.333-0.09,0.474,0.474,0,0,0,.19-0.252l2.9-8.73a0.77,0.77,0,0,0,.054-0.27,0.527,0.527,0,0,0-.126-0.36,0.455,0.455,0,0,0-.361-0.144h0Zm4.635,0.54v8.766a0.555,0.555,0,0,0,.938.387,0.542,0.542,0,0,0,.144-0.387V50.357a0.5,0.5,0,0,0-.541-0.54,0.545,0.545,0,0,0-.388.144,0.518,0.518,0,0,0-.153.4h0Zm0.541-4.284a0.886,0.886,0,0,0-.6.216,0.762,0.762,0,0,0-.252.612,0.835,0.835,0,0,0,.234.6,0.79,0.79,0,0,0,.6.243A0.832,0.832,0,0,0,610.8,46.9a0.774,0.774,0,0,0-.244-0.612,0.853,0.853,0,0,0-.586-0.216h0Zm13.4,12.8-3.932-4.806,3.824-3.474a0.463,0.463,0,0,0,.18-0.342,0.482,0.482,0,0,0-.162-0.342,0.466,0.466,0,0,0-.343-0.18,0.561,0.561,0,0,0-.343.144l-5.59,5.076v-8.8a0.5,0.5,0,0,0-.541-0.54,0.543,0.543,0,0,0-.388.144,0.518,0.518,0,0,0-.153.4V59.123a0.523,0.523,0,0,0,.541.54,0.517,0.517,0,0,0,.4-0.153,0.543,0.543,0,0,0,.145-0.387V56.261l1.677-1.53L622.6,59.5a0.47,0.47,0,0,0,.379.216,0.548,0.548,0,0,0,.325-0.144,0.514,0.514,0,0,0,.2-0.378,0.48,0.48,0,0,0-.126-0.324h0Zm5.067-8.514v8.766a0.555,0.555,0,0,0,.938.387,0.543,0.543,0,0,0,.145-0.387V50.357a0.5,0.5,0,0,0-.542-0.54,0.543,0.543,0,0,0-.387.144,0.515,0.515,0,0,0-.154.4h0Zm0.541-4.284a0.888,0.888,0,0,0-.6.216,0.762,0.762,0,0,0-.252.612,0.835,0.835,0,0,0,.234.6,0.791,0.791,0,0,0,.6.243,0.83,0.83,0,0,0,.848-0.846,0.776,0.776,0,0,0-.243-0.612,0.855,0.855,0,0,0-.587-0.216h0Z" transform="translate(-530 -17)"/>
  <path id="Shape_601_copy" data-name="Shape 601 copy" class="cls-1" d="M575.069,41.987c5.365,0,7.807-3.113,7.807-6.006,0-2.573-1.485-3.976-4.674-4.416-3.561-.487-4.068-0.788-4.068-1.644,0-.969.91-1.4,2.948-1.4a8.9,8.9,0,0,1,5.342,1.47h0.043v-1.6c0-2.685-2.128-4.046-6.328-4.046-4.66,0-7.555,2.23-7.555,5.822,0,1.823.828,4.127,4.771,4.752,3.69,0.593,4.065.818,4.065,1.521,0,0.625-.528,1.37-3.043,1.37a9.418,9.418,0,0,1-5.341-1.407h-0.043v1.66c0,2.457,2.272,3.924,6.076,3.924m24.6-.489h2.208V31.451c0-4.884-3.346-7.108-6.454-7.108-2.371,0-3.956.736-4.99,2.318l-0.16.243V22.751c0-2.1-1.353-3.252-3.812-3.252h-1.832V38.063c0,2.408,1.159,3.435,3.876,3.435h1.926V32.553c0-3.052,1.14-3.665,2.979-3.665,1.794,0,2.665,1.159,2.665,3.543v5.632c0,2.12.6,3.435,3.594,3.435m29.052,0h1.989V32.431c0-5.14-2.891-8.088-7.933-8.088a6.8,6.8,0,0,0-5.335,2.96l-0.09.141-0.063-.154c-0.759-1.844-3.257-2.947-5.235-2.947-5.281,0-8.309,2.892-8.309,7.935v5.907c0,2.2,1.283,3.313,3.812,3.313h1.99V31.91c0-2.125.7-2.992,2.413-2.992,1.667,0,2.445.922,2.445,2.9v6.366c0,2.385,1.016,3.313,3.624,3.313h1.989V31.88c0-1.966.781-2.962,2.319-2.962,1.826,0,2.571.885,2.571,3.053v6.213c0,1.988.648,3.313,3.813,3.313m-80.063.244c5.282,0,8.31-2.892,8.31-7.934V27.9c0-2.2-1.283-3.312-3.813-3.312h-1.989v9.586c0,2.125-.7,2.992-2.413,2.992-1.668,0-2.445-.921-2.445-2.9V27.9c0-2.385-1.016-3.312-3.624-3.312H540.7v9.617c0,1.965-.781,2.961-2.319,2.961-1.826,0-2.571-.884-2.571-3.053V27.9c0-1.988-.649-3.312-3.812-3.312h-1.989v9.066c0,5.139,2.89,8.087,7.932,8.087a6.794,6.794,0,0,0,5.334-2.96l0.092-.142,0.063,0.156c0.757,1.843,3.255,2.945,5.233,2.945m90.992,0.215c6.295,0,8.214-1.818,8.214-7.782v-2.6c0-4.662-2.771-7.23-7.8-7.23-4.893,0-7.083,2.047-7.083,4.078v1.965h0.037c1.164-1.041,2.336-1.836,5.693-1.836,2.246,0,3.547.3,3.547,1.8v0.789h-0.937c-6.119,0-8.969,1.762-8.969,5.547,0,3.623,3.786,5.272,7.3,5.272m1.447-7.376h1.282v1.34a1.928,1.928,0,0,1-2.1,2.134c-1.668,0-2.444-.541-2.444-1.706C637.837,35.126,638.843,34.581,641.1,34.581ZM652.243,19.5h-2.208V38.154a3.256,3.256,0,0,0,3.529,3.343h2.272V33.282l0.158,0.236q0.384,0.567.761,1.133a53.5,53.5,0,0,0,4.327,5.868A4.425,4.425,0,0,0,664.1,41.65c2.054,0,3.312-.979,3.553-2.759a4.669,4.669,0,0,1-3.083-1.906,35.354,35.354,0,0,1-2.72-3.673q-0.265-.392-0.526-0.774l-0.033-.049,0.033-.046a93.938,93.938,0,0,1,6.432-7.577V24.833h-4.1c-1.861,0-2.4.353-3.112,1.1a41.953,41.953,0,0,0-4.041,5.276q-0.257.374-.512,0.744l-0.157.228V22.813c0-.778-0.26-3.313-3.593-3.313m31.849,11.493c0-4-3.2-6.68-7.962-6.68-5.108,0-8.813,3.864-8.813,9.19,0,5.861,4.536,8.485,9.032,8.485,4.222,0,6.643-1.452,6.643-3.986V36.738h-0.108c-1.1.711-2.944,1.071-5.5,1.071s-3.978-.833-4.33-2.547l-0.02-.1h2.683c6.261,0,8.372-1.052,8.372-4.17m-8.78.6H672.89l0.009-.091a3,3,0,0,1,3.231-3.016c1.787,0,2.6.964,2.6,1.86C678.732,31.158,678.186,31.6,675.312,31.6Zm14.27,9.9h1.549V31.512c0-2.346,1.45-2.838,2.666-2.838a5.652,5.652,0,0,1,2.122.337h0.086V26.952c0-1.672-1.6-2.67-4.284-2.67a5.842,5.842,0,0,0-6.2,6.006V37.6c0,2.584,1.367,3.9,4.063,3.9M560.339,24.588h-1.391V36.318c0,4.72,3.492,5.424,5.574,5.424,1.524,0,3.34-.452,3.34-2.609V37.5h-0.637c-1.8,0-2.476-.553-2.476-2.043V28.513c0-3.007-1.031-3.924-4.41-3.924m1.509-7.579a2.788,2.788,0,1,0,2.864,2.787,2.829,2.829,0,0,0-2.864-2.787" transform="translate(-530 -17)"/>
</svg>
